<svg viewBox="0 0 1920 492" fill="none" xmlns="http://www.w3.org/2000/svg">
<path d="M-33 489.418C515.297 489.418 1042.87 9.12253 1378.12 9.12253C1713.37 9.12253 1948.2 269.671 2100.68 269.671" stroke="url(#paint0_linear_2248_7373)" stroke-width="4" style="mix-blend-mode:overlay"/>
<path d="M-33 489.418C515.297 489.418 1042.87 9.12253 1378.12 9.12253C1713.37 9.12253 1948.2 269.671 2100.68 269.671" stroke="white" stroke-opacity="0.1" stroke-width="4"/>
<path d="M-33 115.207C631.651 241.11 993.994 81.6095 1323.93 7.37366C1516.26 -35.9007 2003.99 196.811 2157 183.404" stroke="url(#paint1_linear_2248_7373)" stroke-width="4" style="mix-blend-mode:overlay"/>
<path d="M-33 115.207C631.651 241.11 993.994 81.6095 1323.93 7.37366C1516.26 -35.9007 2003.99 196.811 2157 183.404" stroke="white" stroke-opacity="0.1" stroke-width="4"/>
<path d="M-33 454.955C525.875 466.401 1038.43 15.2683 1373.19 8.5196C1695.45 4.58557 1953.27 262.604 2105.8 261.385" stroke="url(#paint2_linear_2248_7373)" stroke-width="4" style="mix-blend-mode:overlay"/>
<path d="M-33 454.955C525.875 466.401 1038.43 15.2683 1373.19 8.5196C1695.45 4.58557 1953.27 262.604 2105.8 261.385" stroke="white" stroke-opacity="0.1" stroke-width="4"/>
<path d="M-33 420.581C536.452 443.472 1033.99 21.5031 1368.27 8.00565C1677.53 0.137588 1958.34 255.625 2110.92 253.188" stroke="url(#paint3_linear_2248_7373)" stroke-width="4" style="mix-blend-mode:overlay"/>
<path d="M-33 420.581C536.452 443.472 1033.99 21.5031 1368.27 8.00565C1677.53 0.137588 1958.34 255.625 2110.92 253.188" stroke="white" stroke-opacity="0.1" stroke-width="4"/>
<path d="M-33 386.296C547.03 420.633 1029.54 27.8268 1363.34 7.58063C1659.61 -4.22147 1963.42 248.735 2116.04 245.079" stroke="url(#paint4_linear_2248_7373)" stroke-width="4" style="mix-blend-mode:overlay"/>
<path d="M-33 386.296C547.03 420.633 1029.54 27.8268 1363.34 7.58063C1659.61 -4.22147 1963.42 248.735 2116.04 245.079" stroke="white" stroke-opacity="0.1" stroke-width="4"/>
<path d="M-33 352.099C557.607 397.882 1025.1 34.2393 1358.41 7.24442C1641.69 -8.49171 1968.49 241.934 2121.16 237.059" stroke="url(#paint5_linear_2248_7373)" stroke-width="4" style="mix-blend-mode:overlay"/>
<path d="M-33 352.099C557.607 397.882 1025.1 34.2393 1358.41 7.24442C1641.69 -8.49171 1968.49 241.934 2121.16 237.059" stroke="white" stroke-opacity="0.1" stroke-width="4"/>
<path d="M-33 317.992C568.185 375.22 1020.66 40.7406 1353.49 6.99702C1623.77 -12.6731 1973.56 235.222 2126.28 229.129" stroke="url(#paint6_linear_2248_7373)" stroke-width="4" style="mix-blend-mode:overlay"/>
<path d="M-33 317.992C568.185 375.22 1020.66 40.7406 1353.49 6.99702C1623.77 -12.6731 1973.56 235.222 2126.28 229.129" stroke="white" stroke-opacity="0.1" stroke-width="4"/>
<path d="M-33 283.973C578.763 352.647 1016.21 47.3305 1348.56 6.8382C1605.85 -16.766 1978.63 228.599 2131.4 221.286" stroke="url(#paint7_linear_2248_7373)" stroke-width="4" style="mix-blend-mode:overlay"/>
<path d="M-33 283.973C578.763 352.647 1016.21 47.3305 1348.56 6.8382C1605.85 -16.766 1978.63 228.599 2131.4 221.286" stroke="white" stroke-opacity="0.1" stroke-width="4"/>
<path d="M-33 250.042C589.34 330.162 1011.77 54.0091 1343.63 6.76813C1587.93 -20.7701 1983.7 222.064 2136.52 213.533" stroke="url(#paint8_linear_2248_7373)" stroke-width="4" style="mix-blend-mode:overlay"/>
<path d="M-33 250.042C589.34 330.162 1011.77 54.0091 1343.63 6.76813C1587.93 -20.7701 1983.7 222.064 2136.52 213.533" stroke="white" stroke-opacity="0.1" stroke-width="4"/>
<path d="M-33 216.201C599.918 307.766 1007.32 60.7764 1338.71 6.78672C1570.02 -24.6855 1988.77 215.618 2141.64 205.868" stroke="url(#paint9_linear_2248_7373)" stroke-width="4" style="mix-blend-mode:overlay"/>
<path d="M-33 216.201C599.918 307.766 1007.32 60.7764 1338.71 6.78672C1570.02 -24.6855 1988.77 215.618 2141.64 205.868" stroke="white" stroke-opacity="0.1" stroke-width="4"/>
<path d="M-33 182.448C610.495 285.459 1002.88 67.6323 1333.78 6.89384C1552.1 -28.5125 1993.84 209.26 2146.76 198.291" stroke="url(#paint10_linear_2248_7373)" stroke-width="4" style="mix-blend-mode:overlay"/>
<path d="M-33 182.448C610.495 285.459 1002.88 67.6323 1333.78 6.89384C1552.1 -28.5125 1993.84 209.26 2146.76 198.291" stroke="white" stroke-opacity="0.1" stroke-width="4"/>
<path d="M-33 148.783C621.073 263.24 998.438 74.5767 1328.86 7.0895C1534.18 -32.2508 1998.92 202.991 2151.88 190.804" stroke="url(#paint11_linear_2248_7373)" stroke-width="4" style="mix-blend-mode:overlay"/>
<path d="M-33 148.783C621.073 263.24 998.438 74.5767 1328.86 7.0895C1534.18 -32.2508 1998.92 202.991 2151.88 190.804" stroke="white" stroke-opacity="0.1" stroke-width="4"/>
<defs>
<linearGradient id="paint0_linear_2248_7373" x1="1033.84" y1="9.12253" x2="1033.84" y2="489.418" gradientUnits="userSpaceOnUse">
<stop stop-color="white"/>
<stop offset="1" stop-color="white" stop-opacity="0"/>
</linearGradient>
<linearGradient id="paint1_linear_2248_7373" x1="1062" y1="2" x2="1062" y2="183.963" gradientUnits="userSpaceOnUse">
<stop stop-color="white"/>
<stop offset="1" stop-color="white" stop-opacity="0"/>
</linearGradient>
<linearGradient id="paint2_linear_2248_7373" x1="1036.4" y1="8.47507" x2="1036.4" y2="455.169" gradientUnits="userSpaceOnUse">
<stop stop-color="white"/>
<stop offset="1" stop-color="white" stop-opacity="0"/>
</linearGradient>
<linearGradient id="paint3_linear_2248_7373" x1="1038.96" y1="7.82758" x2="1038.96" y2="421.48" gradientUnits="userSpaceOnUse">
<stop stop-color="white"/>
<stop offset="1" stop-color="white" stop-opacity="0"/>
</linearGradient>
<linearGradient id="paint4_linear_2248_7373" x1="1041.52" y1="7.18008" x2="1041.52" y2="388.421" gradientUnits="userSpaceOnUse">
<stop stop-color="white"/>
<stop offset="1" stop-color="white" stop-opacity="0"/>
</linearGradient>
<linearGradient id="paint5_linear_2248_7373" x1="1044.08" y1="6.53256" x2="1044.08" y2="356.081" gradientUnits="userSpaceOnUse">
<stop stop-color="white"/>
<stop offset="1" stop-color="white" stop-opacity="0"/>
</linearGradient>
<linearGradient id="paint6_linear_2248_7373" x1="1046.64" y1="5.88507" x2="1046.64" y2="324.563" gradientUnits="userSpaceOnUse">
<stop stop-color="white"/>
<stop offset="1" stop-color="white" stop-opacity="0"/>
</linearGradient>
<linearGradient id="paint7_linear_2248_7373" x1="1049.2" y1="5.23746" x2="1049.2" y2="293.994" gradientUnits="userSpaceOnUse">
<stop stop-color="white"/>
<stop offset="1" stop-color="white" stop-opacity="0"/>
</linearGradient>
<linearGradient id="paint8_linear_2248_7373" x1="1051.76" y1="4.58994" x2="1051.76" y2="264.53" gradientUnits="userSpaceOnUse">
<stop stop-color="white"/>
<stop offset="1" stop-color="white" stop-opacity="0"/>
</linearGradient>
<linearGradient id="paint9_linear_2248_7373" x1="1054.32" y1="3.94247" x2="1054.32" y2="236.358" gradientUnits="userSpaceOnUse">
<stop stop-color="white"/>
<stop offset="1" stop-color="white" stop-opacity="0"/>
</linearGradient>
<linearGradient id="paint10_linear_2248_7373" x1="1056.88" y1="3.29498" x2="1056.88" y2="209.704" gradientUnits="userSpaceOnUse">
<stop stop-color="white"/>
<stop offset="1" stop-color="white" stop-opacity="0"/>
</linearGradient>
<linearGradient id="paint11_linear_2248_7373" x1="1059.44" y1="2.64749" x2="1059.44" y2="191.262" gradientUnits="userSpaceOnUse">
<stop stop-color="white"/>
<stop offset="1" stop-color="white" stop-opacity="0"/>
</linearGradient>
</defs>
</svg>
