<svg width="852" height="654" viewBox="0 0 852 654" fill="none" xmlns="http://www.w3.org/2000/svg">
<path d="M762 327C762 284.058 753.542 241.536 737.109 201.863C720.675 162.189 696.589 126.141 666.224 95.7761C635.859 65.4113 599.811 41.3247 560.137 24.8914C520.464 8.4581 477.942 -1.87707e-06 435 0C392.058 1.87707e-06 349.536 8.45811 309.863 24.8914C270.189 41.3247 234.141 65.4113 203.776 95.7761C173.411 126.141 149.325 162.189 132.891 201.863C116.458 241.536 108 284.058 108 327L435 327H762Z" fill="url(#paint0_linear_2518_555)"/>
<path fill-rule="evenodd" clip-rule="evenodd" d="M574.246 147.797C570.662 147.797 567.604 150.388 567.015 153.923L566.657 156.07C566.474 157.169 565.679 158.057 564.637 158.447C564.002 158.685 563.378 158.944 562.766 159.223C561.752 159.685 560.562 159.619 559.655 158.972L557.883 157.705C554.967 155.622 550.972 155.953 548.438 158.487L547.487 159.438C544.953 161.972 544.622 165.967 546.705 168.883L547.972 170.655C548.619 171.562 548.685 172.752 548.223 173.766C547.944 174.378 547.685 175.002 547.447 175.637C547.057 176.679 546.169 177.473 545.07 177.657L542.923 178.014C539.388 178.604 536.797 181.662 536.797 185.246V186.591C536.797 190.174 539.388 193.233 542.923 193.822L545.07 194.18C546.169 194.363 547.057 195.157 547.447 196.2C547.685 196.834 547.944 197.458 548.223 198.071C548.685 199.084 548.619 200.274 547.971 201.181L546.705 202.953C544.622 205.87 544.953 209.864 547.487 212.398L548.438 213.349C550.972 215.883 554.967 216.214 557.883 214.131L559.655 212.865C560.562 212.217 561.752 212.151 562.766 212.613C563.378 212.893 564.002 213.151 564.637 213.389C565.679 213.779 566.473 214.667 566.657 215.766L567.014 217.913C567.604 221.448 570.662 224.039 574.246 224.039H575.591C579.174 224.039 582.233 221.448 582.822 217.913L583.18 215.766C583.363 214.667 584.157 213.779 585.2 213.389C585.834 213.151 586.458 212.893 587.071 212.613C588.084 212.151 589.274 212.217 590.181 212.865L591.953 214.131C594.87 216.214 598.864 215.883 601.398 213.349L602.349 212.398C604.883 209.864 605.214 205.87 603.131 202.953L601.865 201.181C601.217 200.274 601.151 199.084 601.613 198.071C601.892 197.458 602.151 196.834 602.389 196.2C602.779 195.157 603.667 194.363 604.766 194.18L606.913 193.822C610.448 193.233 613.039 190.174 613.039 186.591V185.246C613.039 181.662 610.448 178.604 606.913 178.015L604.766 177.657C603.667 177.474 602.779 176.679 602.389 175.637C602.151 175.002 601.893 174.378 601.613 173.766C601.151 172.752 601.217 171.562 601.865 170.656L603.131 168.883C605.214 165.967 604.883 161.972 602.349 159.438L601.398 158.487C598.864 155.953 594.87 155.622 591.954 157.705L590.181 158.972C589.274 159.619 588.084 159.685 587.071 159.223C586.458 158.944 585.834 158.685 585.2 158.447C584.157 158.057 583.363 157.169 583.18 156.07L582.822 153.923C582.233 150.388 579.174 147.797 575.591 147.797H574.246ZM574.918 200.58C583.016 200.58 589.58 194.016 589.58 185.918C589.58 177.821 583.016 171.256 574.918 171.256C566.821 171.256 560.256 177.821 560.256 185.918C560.256 194.016 566.821 200.58 574.918 200.58Z" fill="#F3F4F6"/>
<path fill-rule="evenodd" clip-rule="evenodd" d="M517.523 67.1519C512.684 65.9682 507.7 68.4557 505.737 73.0333L504.544 75.8143C503.934 77.2367 502.569 78.1733 501.032 78.356C500.097 78.4671 499.169 78.6105 498.25 78.7853C496.729 79.0744 495.144 78.592 494.134 77.4183L492.159 75.1235C488.911 71.3482 483.408 70.4751 479.15 73.0591L477.553 74.0288C473.295 76.6128 471.529 81.8964 473.378 86.5214L474.501 89.3326C475.076 90.7703 474.772 92.3988 473.814 93.6146C473.234 94.3494 472.679 95.1062 472.148 95.8841C471.277 97.163 469.816 97.9417 468.272 97.8261L465.255 97.5999C460.288 97.2277 455.78 100.501 454.596 105.339L454.152 107.154C452.968 111.993 455.456 116.977 460.033 118.94L462.814 120.133C464.237 120.743 465.173 122.108 465.356 123.645C465.467 124.58 465.611 125.508 465.785 126.427C466.075 127.948 465.592 129.533 464.418 130.543L462.123 132.518C458.348 135.767 457.475 141.269 460.059 145.527L461.029 147.125C463.613 151.383 468.896 153.148 473.521 151.3L476.333 150.176C477.77 149.601 479.399 149.905 480.615 150.863C481.35 151.443 482.106 151.998 482.884 152.529C484.163 153.4 484.942 154.861 484.826 156.405L484.6 159.422C484.228 164.389 487.501 168.897 492.339 170.081L494.155 170.525C498.993 171.709 503.977 169.221 505.94 164.644L507.133 161.863C507.743 160.44 509.108 159.504 510.645 159.321C511.58 159.21 512.508 159.066 513.427 158.892C514.948 158.602 516.533 159.085 517.543 160.259L519.518 162.553C522.767 166.329 528.269 167.202 532.527 164.618L534.125 163.648C538.383 161.064 540.148 155.78 538.3 151.156L537.176 148.344C536.601 146.907 536.905 145.278 537.864 144.062C538.443 143.327 538.999 142.571 539.529 141.793C540.4 140.514 541.862 139.735 543.405 139.851L546.422 140.077C551.389 140.449 555.897 137.176 557.081 132.338L557.525 130.522C558.709 125.684 556.221 120.7 551.644 118.737L548.863 117.544C547.44 116.934 546.504 115.569 546.321 114.032C546.21 113.097 546.066 112.169 545.892 111.25C545.603 109.729 546.085 108.144 547.259 107.134L549.554 105.159C553.329 101.91 554.202 96.4083 551.618 92.1503L550.648 90.5523C548.064 86.2943 542.781 84.5285 538.156 86.3773L535.344 87.5012C533.907 88.076 532.278 87.7722 531.062 86.8134C530.328 86.234 529.571 85.6784 528.793 85.1482C527.514 84.2766 526.735 82.8154 526.851 81.2721L527.077 78.2546C527.449 73.2878 524.176 68.7798 519.338 67.5961L517.523 67.1519ZM500.996 138.632C511.928 141.307 522.958 134.613 525.633 123.681C528.307 112.749 521.613 101.719 510.682 99.0444C499.75 96.3697 488.719 103.064 486.045 113.995C483.37 124.927 490.064 135.958 500.996 138.632Z" fill="#F3F4F6"/>
<g filter="url(#filter0_bd_2518_555)">
<g filter="url(#filter1_dd_2518_555)">
<path d="M294.615 138.406C294.615 133.686 298.441 129.859 303.161 129.859H557.637C562.357 129.859 566.183 133.686 566.183 138.406V313.012C566.183 313.687 565.637 314.233 564.962 314.233H295.835C295.161 314.233 294.615 313.687 294.615 313.012V138.406Z" fill="white"/>
<path d="M294.92 138.406C294.92 133.854 298.61 130.164 303.161 130.164H557.637C562.188 130.164 565.878 133.854 565.878 138.406V313.012C565.878 313.518 565.468 313.928 564.962 313.928H295.835C295.33 313.928 294.92 313.518 294.92 313.012V138.406Z" stroke="url(#paint1_linear_2518_555)" stroke-width="0.610496" style="mix-blend-mode:overlay"/>
<path d="M294.92 138.406C294.92 133.854 298.61 130.164 303.161 130.164H557.637C562.188 130.164 565.878 133.854 565.878 138.406V313.012C565.878 313.518 565.468 313.928 564.962 313.928H295.835C295.33 313.928 294.92 313.518 294.92 313.012V138.406Z" stroke="white" stroke-opacity="0.1" stroke-width="0.610496"/>
</g>
<path d="M296.279 138.239C296.279 134.53 299.285 131.523 302.994 131.523H557.804C561.513 131.523 564.519 134.53 564.519 138.239V307.244H296.279V138.239Z" fill="url(#paint2_linear_2518_555)"/>
<path d="M369.949 247.137V239.689L388.624 210.267H395.045V220.577H391.245L379.472 239.208V239.558H406.01V247.137H369.949ZM391.42 255V244.865L391.594 241.567V210.267H400.462V255H391.42ZM429.851 255.983C426.094 255.968 422.862 255.044 420.153 253.209C417.459 251.374 415.384 248.717 413.928 245.237C412.487 241.756 411.773 237.57 411.788 232.677C411.788 227.799 412.508 223.642 413.95 220.205C415.406 216.769 417.481 214.155 420.175 212.364C422.883 210.558 426.109 209.655 429.851 209.655C433.593 209.655 436.812 210.558 439.505 212.364C442.214 214.17 444.296 216.791 445.752 220.227C447.208 223.649 447.929 227.799 447.915 232.677C447.915 237.584 447.187 241.778 445.73 245.258C444.289 248.739 442.221 251.396 439.527 253.231C436.833 255.066 433.608 255.983 429.851 255.983ZM429.851 248.142C432.414 248.142 434.46 246.853 435.989 244.275C437.518 241.698 438.275 237.832 438.26 232.677C438.26 229.284 437.911 226.459 437.212 224.202C436.528 221.945 435.552 220.249 434.285 219.113C433.033 217.977 431.555 217.409 429.851 217.409C427.303 217.409 425.264 218.684 423.735 221.232C422.206 223.78 421.435 227.595 421.42 232.677C421.42 236.114 421.762 238.982 422.447 241.283C423.146 243.569 424.128 245.287 425.395 246.438C426.662 247.574 428.147 248.142 429.851 248.142ZM453.981 247.137V239.689L472.657 210.267H479.078V220.577H475.278L463.505 239.208V239.558H490.043V247.137H453.981ZM475.452 255V244.865L475.627 241.567V210.267H484.495V255H475.452Z" fill="#4B5563"/>
<path d="M262 313.513C262 313.175 262.273 312.902 262.61 312.902H596.857C597.194 312.902 597.468 313.175 597.468 313.513V318.893H262V313.513Z" fill="#F9FAFB"/>
<path d="M262 318.893H597.468C584.379 323.952 570.468 326.547 556.436 326.547H299.505C286.616 326.547 273.859 323.943 262 318.893Z" fill="#E5E7EB"/>
<path fill-rule="evenodd" clip-rule="evenodd" d="M402.122 312.902C402.293 315.504 404.458 317.561 407.103 317.561H452.697C455.342 317.561 457.507 315.504 457.678 312.902H402.122Z" fill="#E5E7EB"/>
<path fill-rule="evenodd" clip-rule="evenodd" d="M194.915 144.537C193.036 144.537 191.512 146.06 191.512 147.939V162.306C191.512 164.185 193.036 165.709 194.915 165.709H215.331C217.21 165.709 218.733 164.185 218.733 162.306V147.939C218.733 146.06 217.21 144.537 215.331 144.537H194.915ZM193.781 153.61V162.306C193.781 162.932 194.289 163.44 194.915 163.44H215.331C215.957 163.44 216.465 162.932 216.465 162.306V153.61H193.781ZM196.049 147.939C195.423 147.939 194.915 148.447 194.915 149.074V149.089C194.915 149.715 195.423 150.223 196.049 150.223H196.064C196.691 150.223 197.198 149.715 197.198 149.089V149.074C197.198 148.447 196.691 147.939 196.064 147.939H196.049ZM199.452 149.074C199.452 148.447 199.96 147.939 200.586 147.939H200.601C201.228 147.939 201.735 148.447 201.735 149.074V149.089C201.735 149.715 201.228 150.223 200.601 150.223H200.586C199.96 150.223 199.452 149.715 199.452 149.089V149.074ZM205.123 147.939C204.496 147.939 203.989 148.447 203.989 149.074V149.089C203.989 149.715 204.496 150.223 205.123 150.223H205.138C205.764 150.223 206.272 149.715 206.272 149.089V149.074C206.272 148.447 205.764 147.939 205.138 147.939H205.123Z" fill="#E5E7EB"/>
</g>
<rect x="0.528055" y="432.307" width="176.089" height="9.71622" rx="4.85811" stroke="#E5E7EB" stroke-width="1.05611"/>
<rect x="206.966" y="403.746" width="9.505" height="9.505" rx="4.7525" stroke="#E5E7EB" stroke-width="1.05611"/>
<rect x="77.4143" y="383.642" width="47.525" height="5.28055" rx="2.64028" fill="#E5E7EB"/>
<rect x="145.93" y="349.829" width="62.3105" height="5.28055" rx="2.64028" fill="#E5E7EB"/>
<rect x="86.3914" y="272.414" width="15.8417" height="2.11222" rx="1.05611" transform="rotate(90 86.3914 272.414)" fill="#E5E7EB"/>
<rect x="93.2561" y="281.391" width="15.8417" height="2.11222" rx="1.05611" transform="rotate(-180 93.2561 281.391)" fill="#E5E7EB"/>
<rect x="170.034" y="195" width="15.8417" height="2.11222" rx="1.05611" transform="rotate(90 170.034 195)" fill="#E5E7EB"/>
<rect x="176.898" y="203.977" width="15.8417" height="2.11222" rx="1.05611" transform="rotate(-180 176.898 203.977)" fill="#E5E7EB"/>
<rect x="138.634" y="290.123" width="10.6778" height="1.42371" rx="0.711855" transform="rotate(90 138.634 290.123)" fill="#E5E7EB"/>
<rect x="143.261" y="296.174" width="10.6778" height="1.42371" rx="0.711855" transform="rotate(-180 143.261 296.174)" fill="#E5E7EB"/>
<rect x="645.528" y="417.528" width="143.944" height="8.94389" rx="4.47194" stroke="#E5E7EB" stroke-width="1.05611"/>
<rect x="841.411" y="404.551" width="9.51325" height="9.51325" rx="4.75662" stroke="#E5E7EB" stroke-width="1.05611"/>
<rect x="634.528" y="345.909" width="9.51325" height="9.51325" rx="4.75662" stroke="#E5E7EB" stroke-width="1.05611"/>
<rect x="681.605" y="340" width="46.5052" height="5.28468" rx="2.64234" fill="#E5E7EB"/>
<rect x="690.555" y="268.225" width="15.854" height="2.11387" rx="1.05694" transform="rotate(90 690.555 268.225)" fill="#E5E7EB"/>
<rect x="697.425" y="277.209" width="15.854" height="2.11387" rx="1.05694" transform="rotate(-180 697.425 277.209)" fill="#E5E7EB"/>
<rect x="663.004" y="170" width="15.854" height="2.11387" rx="1.05694" transform="rotate(90 663.004 170)" fill="#E5E7EB"/>
<rect x="669.874" y="178.984" width="15.854" height="2.11387" rx="1.05694" transform="rotate(-180 669.874 178.984)" fill="#E5E7EB"/>
<rect x="758" y="366" width="60.2453" height="5.28468" rx="2.64234" fill="#E5E7EB"/>
<rect x="758.657" y="247.942" width="9.505" height="9.505" rx="4.7525" stroke="#E5E7EB" stroke-width="1.05611"/>
<defs>
<filter id="filter0_bd_2518_555" x="183.849" y="123.708" width="419.769" height="208.989" filterUnits="userSpaceOnUse" color-interpolation-filters="sRGB">
<feFlood flood-opacity="0" result="BackgroundImageFix"/>
<feGaussianBlur in="BackgroundImageFix" stdDeviation="3.07539"/>
<feComposite in2="SourceAlpha" operator="in" result="effect1_backgroundBlur_2518_555"/>
<feColorMatrix in="SourceAlpha" type="matrix" values="0 0 0 0 0 0 0 0 0 0 0 0 0 0 0 0 0 0 127 0" result="hardAlpha"/>
<feOffset dy="1.02513"/>
<feGaussianBlur stdDeviation="1.02513"/>
<feComposite in2="hardAlpha" operator="out"/>
<feColorMatrix type="matrix" values="0 0 0 0 0 0 0 0 0 0 0 0 0 0 0 0 0 0 0.05 0"/>
<feBlend mode="normal" in2="effect1_backgroundBlur_2518_555" result="effect2_dropShadow_2518_555"/>
<feBlend mode="normal" in="SourceGraphic" in2="effect2_dropShadow_2518_555" result="shape"/>
</filter>
<filter id="filter1_dd_2518_555" x="292.552" y="128.484" width="275.693" height="188.498" filterUnits="userSpaceOnUse" color-interpolation-filters="sRGB">
<feFlood flood-opacity="0" result="BackgroundImageFix"/>
<feColorMatrix in="SourceAlpha" type="matrix" values="0 0 0 0 0 0 0 0 0 0 0 0 0 0 0 0 0 0 127 0" result="hardAlpha"/>
<feOffset dy="0.687398"/>
<feGaussianBlur stdDeviation="0.687398"/>
<feComposite in2="hardAlpha" operator="out"/>
<feColorMatrix type="matrix" values="0 0 0 0 0 0 0 0 0 0 0 0 0 0 0 0 0 0 0.06 0"/>
<feBlend mode="normal" in2="BackgroundImageFix" result="effect1_dropShadow_2518_555"/>
<feColorMatrix in="SourceAlpha" type="matrix" values="0 0 0 0 0 0 0 0 0 0 0 0 0 0 0 0 0 0 127 0" result="hardAlpha"/>
<feOffset dy="0.687398"/>
<feGaussianBlur stdDeviation="1.0311"/>
<feComposite in2="hardAlpha" operator="out"/>
<feColorMatrix type="matrix" values="0 0 0 0 0 0 0 0 0 0 0 0 0 0 0 0 0 0 0.1 0"/>
<feBlend mode="normal" in2="effect1_dropShadow_2518_555" result="effect2_dropShadow_2518_555"/>
<feBlend mode="normal" in="SourceGraphic" in2="effect2_dropShadow_2518_555" result="shape"/>
</filter>
<linearGradient id="paint0_linear_2518_555" x1="435" y1="0" x2="435" y2="457" gradientUnits="userSpaceOnUse">
<stop stop-color="#F9FAFB"/>
<stop offset="1" stop-color="#F9FAFB" stop-opacity="0"/>
</linearGradient>
<linearGradient id="paint1_linear_2518_555" x1="430.399" y1="129.859" x2="430.399" y2="314.233" gradientUnits="userSpaceOnUse">
<stop stop-color="white"/>
<stop offset="1" stop-color="white" stop-opacity="0"/>
</linearGradient>
<linearGradient id="paint2_linear_2518_555" x1="430.399" y1="131.523" x2="430.399" y2="307.244" gradientUnits="userSpaceOnUse">
<stop offset="0.380208" stop-color="white"/>
<stop offset="1" stop-color="#F3F4F6"/>
</linearGradient>
</defs>
</svg>
