<svg  viewBox="0 0 906 403" fill="none" xmlns="http://www.w3.org/2000/svg">
<path fill-rule="evenodd" clip-rule="evenodd" d="M605.246 107.797C601.662 107.797 598.604 110.388 598.015 113.923L597.657 116.07C597.474 117.169 596.679 118.057 595.637 118.447C595.002 118.685 594.378 118.944 593.766 119.223C592.752 119.685 591.562 119.619 590.655 118.972L588.883 117.705C585.967 115.622 581.972 115.953 579.438 118.487L578.487 119.438C575.953 121.972 575.622 125.967 577.705 128.883L578.972 130.655C579.619 131.562 579.685 132.752 579.223 133.766C578.944 134.378 578.685 135.002 578.447 135.637C578.057 136.679 577.169 137.473 576.07 137.657L573.923 138.014C570.388 138.604 567.797 141.662 567.797 145.246V146.591C567.797 150.174 570.388 153.233 573.923 153.822L576.07 154.18C577.169 154.363 578.057 155.157 578.447 156.2C578.685 156.834 578.944 157.458 579.223 158.071C579.685 159.084 579.619 160.274 578.971 161.181L577.705 162.953C575.622 165.87 575.953 169.864 578.487 172.398L579.438 173.349C581.972 175.883 585.967 176.214 588.883 174.131L590.655 172.865C591.562 172.217 592.752 172.151 593.766 172.613C594.378 172.893 595.002 173.151 595.637 173.389C596.679 173.779 597.473 174.667 597.657 175.766L598.014 177.913C598.604 181.448 601.662 184.039 605.246 184.039H606.591C610.174 184.039 613.233 181.448 613.822 177.913L614.18 175.766C614.363 174.667 615.157 173.779 616.2 173.389C616.834 173.151 617.458 172.893 618.071 172.613C619.084 172.151 620.274 172.217 621.181 172.865L622.953 174.131C625.87 176.214 629.864 175.883 632.398 173.349L633.349 172.398C635.883 169.864 636.214 165.87 634.131 162.953L632.865 161.181C632.217 160.274 632.151 159.084 632.613 158.071C632.892 157.458 633.151 156.834 633.389 156.2C633.779 155.157 634.667 154.363 635.766 154.18L637.913 153.822C641.448 153.233 644.039 150.174 644.039 146.591V145.246C644.039 141.662 641.448 138.604 637.913 138.015L635.766 137.657C634.667 137.474 633.779 136.679 633.389 135.637C633.151 135.002 632.893 134.378 632.613 133.766C632.151 132.752 632.217 131.562 632.865 130.656L634.131 128.883C636.214 125.967 635.883 121.972 633.349 119.438L632.398 118.487C629.864 115.953 625.87 115.622 622.954 117.705L621.181 118.972C620.274 119.619 619.084 119.685 618.071 119.223C617.458 118.944 616.834 118.685 616.2 118.447C615.157 118.057 614.363 117.169 614.18 116.07L613.822 113.923C613.233 110.388 610.174 107.797 606.591 107.797H605.246ZM605.918 160.58C614.016 160.58 620.58 154.016 620.58 145.918C620.58 137.821 614.016 131.256 605.918 131.256C597.821 131.256 591.256 137.821 591.256 145.918C591.256 154.016 597.821 160.58 605.918 160.58Z" fill="#F3F4F6"/>
<path fill-rule="evenodd" clip-rule="evenodd" d="M548.523 27.1519C543.684 25.9682 538.7 28.4557 536.737 33.0333L535.544 35.8143C534.934 37.2367 533.569 38.1733 532.032 38.356C531.097 38.4671 530.169 38.6105 529.25 38.7853C527.729 39.0744 526.144 38.592 525.134 37.4183L523.159 35.1235C519.911 31.3482 514.408 30.4751 510.15 33.0591L508.553 34.0288C504.295 36.6128 502.529 41.8964 504.378 46.5214L505.501 49.3326C506.076 50.7703 505.772 52.3988 504.814 53.6146C504.234 54.3494 503.679 55.1062 503.148 55.8841C502.277 57.163 500.816 57.9417 499.272 57.8261L496.255 57.5999C491.288 57.2277 486.78 60.5008 485.596 65.3389L485.152 67.1545C483.968 71.9925 486.456 76.9772 491.033 78.9402L493.814 80.1328C495.237 80.7427 496.173 82.1081 496.356 83.6449C496.467 84.5798 496.611 85.5076 496.785 86.4269C497.075 87.948 496.592 89.5327 495.418 90.5427L493.123 92.5176C489.348 95.7665 488.475 101.269 491.059 105.527L492.029 107.125C494.613 111.383 499.896 113.148 504.521 111.3L507.333 110.176C508.77 109.601 510.399 109.905 511.615 110.863C512.35 111.443 513.106 111.998 513.884 112.529C515.163 113.4 515.942 114.861 515.826 116.405L515.6 119.422C515.228 124.389 518.501 128.897 523.339 130.081L525.155 130.525C529.993 131.709 534.977 129.221 536.94 124.644L538.133 121.863C538.743 120.44 540.108 119.504 541.645 119.321C542.58 119.21 543.508 119.066 544.427 118.892C545.948 118.602 547.533 119.085 548.543 120.259L550.518 122.553C553.767 126.329 559.269 127.202 563.527 124.618L565.125 123.648C569.383 121.064 571.148 115.78 569.3 111.156L568.176 108.344C567.601 106.907 567.905 105.278 568.864 104.062C569.443 103.327 569.999 102.571 570.529 101.793C571.4 100.514 572.862 99.7351 574.405 99.8508L577.422 100.077C582.389 100.449 586.897 97.176 588.081 92.338L588.525 90.5224C589.709 85.6843 587.221 80.6996 582.644 78.7366L579.863 77.5441C578.44 76.9341 577.504 75.5688 577.321 74.0319C577.21 73.0971 577.066 72.1693 576.892 71.25C576.603 69.7289 577.085 68.1441 578.259 67.1342L580.554 65.1592C584.329 61.9104 585.202 56.4083 582.618 52.1503L581.648 50.5523C579.064 46.2943 573.781 44.5285 569.156 46.3773L566.344 47.5012C564.907 48.076 563.278 47.7722 562.062 46.8134C561.328 46.234 560.571 45.6784 559.793 45.1482C558.514 44.2766 557.735 42.8154 557.851 41.2721L558.077 38.2546C558.449 33.2878 555.176 28.7798 550.338 27.5961L548.523 27.1519ZM531.996 98.6324C542.928 101.307 553.958 94.6133 556.633 83.6814C559.307 72.7495 552.613 61.7191 541.682 59.0444C530.75 56.3697 519.719 63.0635 517.045 73.9955C514.37 84.9274 521.064 95.9577 531.996 98.6324Z" fill="#F3F4F6"/>
<g filter="url(#filter0_bd_2518_555)">
<g filter="url(#filter1_dd_2518_555)">
<path d="M325.615 98.4062C325.615 93.6858 329.441 89.8592 334.161 89.8592H588.637C593.357 89.8592 597.183 93.6858 597.183 98.4062V273.012C597.183 273.687 596.637 274.233 595.962 274.233H326.835C326.161 274.233 325.615 273.687 325.615 273.012V98.4062Z" fill="white"/>
<path d="M325.92 98.4062C325.92 93.8544 329.61 90.1645 334.161 90.1645H588.637C593.188 90.1645 596.878 93.8544 596.878 98.4062V273.012C596.878 273.518 596.468 273.928 595.962 273.928H326.835C326.33 273.928 325.92 273.518 325.92 273.012V98.4062Z" stroke="url(#paint0_linear_2518_555)" stroke-width="0.610496" style="mix-blend-mode:overlay"/>
<path d="M325.92 98.4062C325.92 93.8544 329.61 90.1645 334.161 90.1645H588.637C593.188 90.1645 596.878 93.8544 596.878 98.4062V273.012C596.878 273.518 596.468 273.928 595.962 273.928H326.835C326.33 273.928 325.92 273.518 325.92 273.012V98.4062Z" stroke="white" stroke-opacity="0.1" stroke-width="0.610496"/>
</g>
<path d="M327.279 98.2387C327.279 94.5298 330.285 91.5232 333.994 91.5232H588.804C592.513 91.5232 595.519 94.5299 595.519 98.2387V267.244H327.279V98.2387Z" fill="url(#paint1_linear_2518_555)"/>
<path d="M400.949 207.137V199.689L419.624 170.267H426.045V180.577H422.245L410.472 199.208V199.558H437.01V207.137H400.949ZM422.42 215V204.865L422.594 201.567V170.267H431.462V215H422.42ZM460.851 215.983C457.094 215.968 453.862 215.044 451.153 213.209C448.459 211.374 446.384 208.717 444.928 205.237C443.487 201.756 442.773 197.57 442.788 192.677C442.788 187.799 443.508 183.642 444.95 180.205C446.406 176.769 448.481 174.155 451.175 172.364C453.883 170.558 457.109 169.655 460.851 169.655C464.593 169.655 467.812 170.558 470.505 172.364C473.214 174.17 475.296 176.791 476.752 180.227C478.208 183.649 478.929 187.799 478.915 192.677C478.915 197.584 478.187 201.778 476.73 205.258C475.289 208.739 473.221 211.396 470.527 213.231C467.833 215.066 464.608 215.983 460.851 215.983ZM460.851 208.142C463.414 208.142 465.46 206.853 466.989 204.275C468.518 201.698 469.275 197.832 469.26 192.677C469.26 189.284 468.911 186.459 468.212 184.202C467.528 181.945 466.552 180.249 465.285 179.113C464.033 177.977 462.555 177.409 460.851 177.409C458.303 177.409 456.264 178.684 454.735 181.232C453.206 183.78 452.435 187.595 452.42 192.677C452.42 196.114 452.762 198.982 453.447 201.283C454.146 203.569 455.128 205.287 456.395 206.438C457.662 207.574 459.147 208.142 460.851 208.142ZM484.981 207.137V199.689L503.657 170.267H510.078V180.577H506.278L494.505 199.208V199.558H521.043V207.137H484.981ZM506.452 215V204.865L506.627 201.567V170.267H515.495V215H506.452Z" fill="#4B5563"/>
<path d="M293 273.513C293 273.175 293.273 272.902 293.61 272.902H627.857C628.194 272.902 628.468 273.175 628.468 273.513V278.893H293V273.513Z" fill="#F9FAFB"/>
<path d="M293 278.892H628.468C615.379 283.952 601.468 286.547 587.436 286.547H330.505C317.616 286.547 304.859 283.943 293 278.892Z" fill="#E5E7EB"/>
<path fill-rule="evenodd" clip-rule="evenodd" d="M433.122 272.902C433.293 275.504 435.458 277.561 438.103 277.561H483.697C486.342 277.561 488.507 275.504 488.678 272.902H433.122Z" fill="#E5E7EB"/>
<path fill-rule="evenodd" clip-rule="evenodd" d="M242.915 177.537C241.036 177.537 239.512 179.06 239.512 180.939V195.306C239.512 197.185 241.036 198.709 242.915 198.709H263.331C265.21 198.709 266.733 197.185 266.733 195.306V180.939C266.733 179.06 265.21 177.537 263.331 177.537H242.915ZM241.781 186.61V195.306C241.781 195.932 242.289 196.44 242.915 196.44H263.331C263.957 196.44 264.465 195.932 264.465 195.306V186.61H241.781ZM244.049 180.939C243.423 180.939 242.915 181.447 242.915 182.074V182.089C242.915 182.715 243.423 183.223 244.049 183.223H244.064C244.691 183.223 245.198 182.715 245.198 182.089V182.074C245.198 181.447 244.691 180.939 244.064 180.939H244.049ZM247.452 182.074C247.452 181.447 247.96 180.939 248.586 180.939H248.601C249.228 180.939 249.735 181.447 249.735 182.074V182.089C249.735 182.715 249.228 183.223 248.601 183.223H248.586C247.96 183.223 247.452 182.715 247.452 182.089V182.074ZM253.123 180.939C252.496 180.939 251.989 181.447 251.989 182.074V182.089C251.989 182.715 252.496 183.223 253.123 183.223H253.138C253.764 183.223 254.272 182.715 254.272 182.089V182.074C254.272 181.447 253.764 180.939 253.138 180.939H253.123Z" fill="#E5E7EB"/>
</g>
<rect x="0.528055" y="392.307" width="176.089" height="9.71622" rx="4.85811" stroke="#D1D5DB" stroke-width="1.05611"/>
<rect x="206.966" y="363.746" width="9.505" height="9.505" rx="4.7525" stroke="#D1D5DB" stroke-width="1.05611"/>
<rect x="77.4143" y="343.642" width="47.525" height="5.28055" rx="2.64028" fill="#D1D5DB"/>
<rect x="145.93" y="309.829" width="62.3105" height="5.28055" rx="2.64028" fill="#D1D5DB"/>
<rect x="86.3914" y="232.414" width="15.8417" height="2.11222" rx="1.05611" transform="rotate(90 86.3914 232.414)" fill="#D1D5DB"/>
<rect x="93.2561" y="241.391" width="15.8417" height="2.11222" rx="1.05611" transform="rotate(-180 93.2561 241.391)" fill="#D1D5DB"/>
<rect x="170.034" y="155" width="15.8417" height="2.11222" rx="1.05611" transform="rotate(90 170.034 155)" fill="#D1D5DB"/>
<rect x="176.898" y="163.977" width="15.8417" height="2.11222" rx="1.05611" transform="rotate(-180 176.898 163.977)" fill="#D1D5DB"/>
<rect x="138.634" y="250.123" width="10.6778" height="1.42371" rx="0.711855" transform="rotate(90 138.634 250.123)" fill="#D1D5DB"/>
<rect x="143.261" y="256.174" width="10.6778" height="1.42371" rx="0.711855" transform="rotate(-180 143.261 256.174)" fill="#D1D5DB"/>
<rect x="699.528" y="362.528" width="143.944" height="8.94389" rx="4.47194" stroke="#D1D5DB" stroke-width="1.05611"/>
<rect x="895.411" y="364.551" width="9.51325" height="9.51325" rx="4.75662" stroke="#D1D5DB" stroke-width="1.05611"/>
<rect x="688.528" y="305.909" width="9.51325" height="9.51325" rx="4.75662" stroke="#D1D5DB" stroke-width="1.05611"/>
<rect x="735.605" y="387.158" width="46.5052" height="5.28468" rx="2.64234" fill="#D1D5DB"/>
<rect x="744.555" y="228.225" width="15.854" height="2.11387" rx="1.05694" transform="rotate(90 744.555 228.225)" fill="#D1D5DB"/>
<rect x="751.425" y="237.209" width="15.854" height="2.11387" rx="1.05694" transform="rotate(-180 751.425 237.209)" fill="#D1D5DB"/>
<rect x="717.004" y="130" width="15.854" height="2.11387" rx="1.05694" transform="rotate(90 717.004 130)" fill="#D1D5DB"/>
<rect x="723.874" y="138.984" width="15.854" height="2.11387" rx="1.05694" transform="rotate(-180 723.874 138.984)" fill="#D1D5DB"/>
<rect x="828" y="307" width="60.2453" height="5.28468" rx="2.64234" fill="#D1D5DB"/>
<rect x="812.657" y="207.942" width="9.505" height="9.505" rx="4.7525" stroke="#D1D5DB" stroke-width="1.05611"/>
<defs>
<filter id="filter0_bd_2518_555" x="231.849" y="83.7084" width="402.769" height="208.989" filterUnits="userSpaceOnUse" color-interpolation-filters="sRGB">
<feFlood flood-opacity="0" result="BackgroundImageFix"/>
<feGaussianBlur in="BackgroundImageFix" stdDeviation="3.07539"/>
<feComposite in2="SourceAlpha" operator="in" result="effect1_backgroundBlur_2518_555"/>
<feColorMatrix in="SourceAlpha" type="matrix" values="0 0 0 0 0 0 0 0 0 0 0 0 0 0 0 0 0 0 127 0" result="hardAlpha"/>
<feOffset dy="1.02513"/>
<feGaussianBlur stdDeviation="1.02513"/>
<feComposite in2="hardAlpha" operator="out"/>
<feColorMatrix type="matrix" values="0 0 0 0 0 0 0 0 0 0 0 0 0 0 0 0 0 0 0.05 0"/>
<feBlend mode="normal" in2="effect1_backgroundBlur_2518_555" result="effect2_dropShadow_2518_555"/>
<feBlend mode="normal" in="SourceGraphic" in2="effect2_dropShadow_2518_555" result="shape"/>
</filter>
<filter id="filter1_dd_2518_555" x="323.552" y="88.4844" width="275.693" height="188.498" filterUnits="userSpaceOnUse" color-interpolation-filters="sRGB">
<feFlood flood-opacity="0" result="BackgroundImageFix"/>
<feColorMatrix in="SourceAlpha" type="matrix" values="0 0 0 0 0 0 0 0 0 0 0 0 0 0 0 0 0 0 127 0" result="hardAlpha"/>
<feOffset dy="0.687398"/>
<feGaussianBlur stdDeviation="0.687398"/>
<feComposite in2="hardAlpha" operator="out"/>
<feColorMatrix type="matrix" values="0 0 0 0 0 0 0 0 0 0 0 0 0 0 0 0 0 0 0.06 0"/>
<feBlend mode="normal" in2="BackgroundImageFix" result="effect1_dropShadow_2518_555"/>
<feColorMatrix in="SourceAlpha" type="matrix" values="0 0 0 0 0 0 0 0 0 0 0 0 0 0 0 0 0 0 127 0" result="hardAlpha"/>
<feOffset dy="0.687398"/>
<feGaussianBlur stdDeviation="1.0311"/>
<feComposite in2="hardAlpha" operator="out"/>
<feColorMatrix type="matrix" values="0 0 0 0 0 0 0 0 0 0 0 0 0 0 0 0 0 0 0.1 0"/>
<feBlend mode="normal" in2="effect1_dropShadow_2518_555" result="effect2_dropShadow_2518_555"/>
<feBlend mode="normal" in="SourceGraphic" in2="effect2_dropShadow_2518_555" result="shape"/>
</filter>
<linearGradient id="paint0_linear_2518_555" x1="461.399" y1="89.8592" x2="461.399" y2="274.233" gradientUnits="userSpaceOnUse">
<stop stop-color="white"/>
<stop offset="1" stop-color="white" stop-opacity="0"/>
</linearGradient>
<linearGradient id="paint1_linear_2518_555" x1="461.399" y1="91.5232" x2="461.399" y2="267.244" gradientUnits="userSpaceOnUse">
<stop offset="0.380208" stop-color="white"/>
<stop offset="1" stop-color="#F3F4F6"/>
</linearGradient>
</defs>
</svg>
