<svg width="1300" height="644" viewBox="0 0 1300 644" fill="none" xmlns="http://www.w3.org/2000/svg">
<g clip-path="url(#clip0_2443_2547)">
<mask id="mask0_2443_2547" style="mask-type:alpha" maskUnits="userSpaceOnUse" x="-36" y="-263" width="1236" height="961">
<line x1="33.06" y1="-262.999" x2="33.0598" y2="696.779" stroke="#D1D5DB"/>
<line x1="101.616" y1="-262.999" x2="101.616" y2="696.779" stroke="#D1D5DB"/>
<line x1="170.171" y1="-262.999" x2="170.171" y2="696.779" stroke="#D1D5DB"/>
<line x1="238.727" y1="-262.999" x2="238.727" y2="696.779" stroke="#D1D5DB"/>
<line x1="307.282" y1="-262.999" x2="307.282" y2="696.779" stroke="#D1D5DB"/>
<line x1="375.838" y1="-262.999" x2="375.838" y2="696.779" stroke="#D1D5DB"/>
<line x1="444.394" y1="-262.999" x2="444.394" y2="696.779" stroke="#D1D5DB"/>
<line x1="512.949" y1="-262.999" x2="512.949" y2="696.779" stroke="#D1D5DB"/>
<line x1="581.505" y1="-262.999" x2="581.505" y2="696.779" stroke="#D1D5DB"/>
<line x1="650.06" y1="-262.999" x2="650.06" y2="696.779" stroke="#D1D5DB"/>
<line x1="718.615" y1="-262.999" x2="718.614" y2="696.779" stroke="#D1D5DB"/>
<line x1="787.172" y1="-262.999" x2="787.172" y2="696.779" stroke="#D1D5DB"/>
<line x1="855.727" y1="-262.999" x2="855.727" y2="696.779" stroke="#D1D5DB"/>
<line x1="924.282" y1="-262.999" x2="924.281" y2="696.779" stroke="#D1D5DB"/>
<line x1="992.838" y1="-262.999" x2="992.837" y2="696.779" stroke="#D1D5DB"/>
<line x1="1061.39" y1="-262.999" x2="1061.39" y2="696.779" stroke="#D1D5DB"/>
<line x1="1129.95" y1="-262.999" x2="1129.95" y2="696.779" stroke="#D1D5DB"/>
<line x1="1198.5" y1="-219.083" x2="1198.5" y2="651.787" stroke="#D1D5DB"/>
<line x1="1198" y1="11.7227" x2="-35.9985" y2="11.7224" stroke="#D1D5DB"/>
<line x1="1198" y1="80.2783" x2="-35.9985" y2="80.278" stroke="#D1D5DB"/>
<line x1="1198" y1="148.835" x2="-35.9999" y2="148.835" stroke="#D1D5DB"/>
<line x1="1198" y1="217.391" x2="-35.9982" y2="217.39" stroke="#D1D5DB"/>
<line x1="1198" y1="285.943" x2="-35.9982" y2="285.943" stroke="#D1D5DB"/>
<line x1="1198" y1="354.501" x2="-35.9982" y2="354.501" stroke="#D1D5DB"/>
<line x1="1198" y1="423.056" x2="-35.9985" y2="423.055" stroke="#D1D5DB"/>
<line x1="1198" y1="491.612" x2="-35.9999" y2="491.612" stroke="#D1D5DB"/>
<line x1="1198" y1="560.167" x2="-36" y2="560.167" stroke="#D1D5DB"/>
<line x1="1198" y1="628.724" x2="-35.9998" y2="628.723" stroke="#D1D5DB"/>
</mask>
<g mask="url(#mask0_2443_2547)">
<g filter="url(#filter0_f_2443_2547)">
<path d="M372 217H927V380.109H372V217Z" fill="#E5E7EB"/>
</g>
</g>
</g>
<defs>
<filter id="filter0_f_2443_2547" x="130.962" y="-24.0378" width="1037.08" height="645.185" filterUnits="userSpaceOnUse" color-interpolation-filters="sRGB">
<feFlood flood-opacity="0" result="BackgroundImageFix"/>
<feBlend mode="normal" in="SourceGraphic" in2="BackgroundImageFix" result="shape"/>
<feGaussianBlur stdDeviation="120.519" result="effect1_foregroundBlur_2443_2547"/>
</filter>
<clipPath id="clip0_2443_2547">
<rect width="1300" height="644" fill="white"/>
</clipPath>
</defs>
</svg>
