<svg width="116" height="66" viewBox="0 0 116 66" fill="none" xmlns="http://www.w3.org/2000/svg">
<g id="Vector">
<mask id="path-1-outside-1_2248_9042" maskUnits="userSpaceOnUse" x="-17.6569" y="-27.4273" width="133.643" height="133.643" fill="black">
<rect fill="white" x="-17.6569" y="-27.4273" width="133.643" height="133.643"/>
<path d="M15 59.6767L5.99999 50.6767L10.5 46.1768L5.99999 41.6768L10.5 37.1768L5.99999 32.6768L10.5 28.1768L5.99999 23.6768L10.5 19.1768L5.99999 14.6768L15 5.67677L24 14.6768L19.5 19.1768L24 23.6768L19.5 28.1768L24 32.6768L42 14.6768L46.5 19.1768L55.5 10.1768L60 14.6768L64.5 10.1768L73.5 19.1768L78 14.6768L109.5 46.1768L100.5 55.1767L73.5 28.1768L69 32.6768L60 23.6768L51 32.6768L46.5 28.1768L33 41.6768L37.5 46.1768L42 41.6768L46.5 46.1768L51 41.6768L60 50.6767L51 59.6767L46.5 55.1767L42 59.6767L37.5 55.1767L33 59.6767L28.5 55.1767L24 59.6767L19.5 55.1767"/>
</mask>
<path d="M15 59.6767L5.99999 50.6767L10.5 46.1768L5.99999 41.6768L10.5 37.1768L5.99999 32.6768L10.5 28.1768L5.99999 23.6768L10.5 19.1768L5.99999 14.6768L15 5.67677L24 14.6768L19.5 19.1768L24 23.6768L19.5 28.1768L24 32.6768L42 14.6768L46.5 19.1768L55.5 10.1768L60 14.6768L64.5 10.1768L73.5 19.1768L78 14.6768L109.5 46.1768L100.5 55.1767L73.5 28.1768L69 32.6768L60 23.6768L51 32.6768L46.5 28.1768L33 41.6768L37.5 46.1768L42 41.6768L46.5 46.1768L51 41.6768L60 50.6767L51 59.6767L46.5 55.1767L42 59.6767L37.5 55.1767L33 59.6767L28.5 55.1767L24 59.6767L19.5 55.1767" fill="white"/>
<path d="M15 59.6767L5.99999 50.6767L10.5 46.1768L5.99999 41.6768L10.5 37.1768L5.99999 32.6768L10.5 28.1768L5.99999 23.6768L10.5 19.1768L5.99999 14.6768L15 5.67677L24 14.6768L19.5 19.1768L24 23.6768L19.5 28.1768L24 32.6768L42 14.6768L46.5 19.1768L55.5 10.1768L60 14.6768L64.5 10.1768L73.5 19.1768L78 14.6768L109.5 46.1768L100.5 55.1767L73.5 28.1768L69 32.6768L60 23.6768L51 32.6768L46.5 28.1768L33 41.6768L37.5 46.1768L42 41.6768L46.5 46.1768L51 41.6768L60 50.6767L51 59.6767L46.5 55.1767L42 59.6767L37.5 55.1767L33 59.6767L28.5 55.1767L24 59.6767L19.5 55.1767" fill="url(#paint0_linear_2248_9042)" fill-opacity="0.6"/>
<path d="M5.99999 50.6767L3.17157 47.8483L0.343138 50.6767L3.17157 53.5052L5.99999 50.6767ZM10.5 46.1768L13.3284 49.0052L16.1568 46.1768L13.3284 43.3483L10.5 46.1768ZM5.99999 41.6768L3.17157 38.8483L0.343138 41.6768L3.17157 44.5052L5.99999 41.6768ZM10.5 37.1768L13.3284 40.0052L16.1568 37.1768L13.3284 34.3483L10.5 37.1768ZM5.99999 32.6768L3.17157 29.8483L0.343138 32.6768L3.17157 35.5052L5.99999 32.6768ZM10.5 28.1768L13.3284 31.0052L16.1568 28.1768L13.3284 25.3483L10.5 28.1768ZM5.99999 23.6768L3.17157 20.8483L0.343138 23.6768L3.17157 26.5052L5.99999 23.6768ZM10.5 19.1768L13.3284 22.0052L16.1568 19.1768L13.3284 16.3483L10.5 19.1768ZM5.99999 14.6768L3.17157 11.8483L0.343138 14.6768L3.17157 17.5052L5.99999 14.6768ZM15 5.67677L17.8284 2.84834L15 0.0199155L12.1716 2.84834L15 5.67677ZM24 14.6768L26.8284 17.5052L29.6568 14.6768L26.8284 11.8483L24 14.6768ZM19.5 19.1768L16.6716 16.3483L13.8431 19.1768L16.6716 22.0052L19.5 19.1768ZM24 23.6768L26.8284 26.5052L29.6568 23.6768L26.8284 20.8483L24 23.6768ZM19.5 28.1768L16.6716 25.3483L13.8431 28.1768L16.6716 31.0052L19.5 28.1768ZM24 32.6768L21.1716 35.5052L24 38.3336L26.8284 35.5052L24 32.6768ZM42 14.6768L44.8284 11.8483L42 9.01991L39.1715 11.8483L42 14.6768ZM46.5 19.1768L43.6715 22.0052L46.5 24.8336L49.3284 22.0052L46.5 19.1768ZM55.5 10.1768L58.3284 7.34834L55.5 4.51991L52.6715 7.34834L55.5 10.1768ZM60 14.6768L57.1715 17.5052L60 20.3336L62.8284 17.5052L60 14.6768ZM64.5 10.1768L67.3284 7.34834L64.5 4.51991L61.6715 7.34834L64.5 10.1768ZM73.5 19.1768L70.6715 22.0052L73.5 24.8336L76.3284 22.0052L73.5 19.1768ZM78 14.6768L80.8284 11.8483L78 9.01991L75.1715 11.8483L78 14.6768ZM109.5 46.1768L112.328 49.0052L115.157 46.1768L112.328 43.3483L109.5 46.1768ZM100.5 55.1767L97.6715 58.0052L100.5 60.8336L103.328 58.0052L100.5 55.1767ZM73.5 28.1768L76.3284 25.3483L73.5 22.5199L70.6715 25.3483L73.5 28.1768ZM69 32.6768L66.1715 35.5052L69 38.3336L71.8284 35.5052L69 32.6768ZM60 23.6768L62.8284 20.8483L60 18.0199L57.1715 20.8483L60 23.6768ZM51 32.6768L48.1715 35.5052L51 38.3336L53.8284 35.5052L51 32.6768ZM46.5 28.1768L49.3284 25.3483L46.5 22.5199L43.6715 25.3483L46.5 28.1768ZM33 41.6768L30.1716 38.8483L27.3431 41.6768L30.1716 44.5052L33 41.6768ZM37.5 46.1768L34.6715 49.0052L37.5 51.8336L40.3284 49.0052L37.5 46.1768ZM42 41.6768L44.8284 38.8483L42 36.0199L39.1715 38.8483L42 41.6768ZM46.5 46.1768L43.6715 49.0052L46.5 51.8336L49.3284 49.0052L46.5 46.1768ZM51 41.6768L53.8284 38.8483L51 36.0199L48.1715 38.8483L51 41.6768ZM60 50.6767L62.8284 53.5052L65.6568 50.6768L62.8284 47.8483L60 50.6767ZM51 59.6767L48.1715 62.5052L51 65.3336L53.8284 62.5052L51 59.6767ZM46.5 55.1767L49.3284 52.3483L46.5 49.5199L43.6715 52.3483L46.5 55.1767ZM42 59.6767L39.1716 62.5052L42 65.3336L44.8284 62.5052L42 59.6767ZM37.5 55.1767L40.3284 52.3483L37.5 49.5199L34.6716 52.3483L37.5 55.1767ZM33 59.6767L30.1716 62.5052L33 65.3336L35.8284 62.5052L33 59.6767ZM28.5 55.1767L31.3284 52.3483L28.5 49.5199L25.6716 52.3483L28.5 55.1767ZM24 59.6767L21.1716 62.5052L24 65.3336L26.8284 62.5052L24 59.6767ZM17.8284 56.8483L8.82842 47.8483L3.17157 53.5052L12.1716 62.5052L17.8284 56.8483ZM8.82842 53.5052L13.3284 49.0052L7.67156 43.3483L3.17157 47.8483L8.82842 53.5052ZM13.3284 43.3483L8.82842 38.8483L3.17157 44.5052L7.67156 49.0052L13.3284 43.3483ZM8.82842 44.5052L13.3284 40.0052L7.67156 34.3483L3.17157 38.8483L8.82842 44.5052ZM13.3284 34.3483L8.82842 29.8483L3.17157 35.5052L7.67156 40.0052L13.3284 34.3483ZM8.82842 35.5052L13.3284 31.0052L7.67156 25.3483L3.17157 29.8483L8.82842 35.5052ZM13.3284 25.3483L8.82842 20.8483L3.17157 26.5052L7.67156 31.0052L13.3284 25.3483ZM8.82842 26.5052L13.3284 22.0052L7.67156 16.3483L3.17157 20.8483L8.82842 26.5052ZM13.3284 16.3483L8.82842 11.8483L3.17157 17.5052L7.67156 22.0052L13.3284 16.3483ZM8.82842 17.5052L17.8284 8.5052L12.1716 2.84834L3.17157 11.8483L8.82842 17.5052ZM12.1716 8.5052L21.1716 17.5052L26.8284 11.8483L17.8284 2.84834L12.1716 8.5052ZM21.1716 11.8483L16.6716 16.3483L22.3284 22.0052L26.8284 17.5052L21.1716 11.8483ZM16.6716 22.0052L21.1716 26.5052L26.8284 20.8483L22.3284 16.3483L16.6716 22.0052ZM21.1716 20.8483L16.6716 25.3483L22.3284 31.0052L26.8284 26.5052L21.1716 20.8483ZM16.6716 31.0052L21.1716 35.5052L26.8284 29.8483L22.3284 25.3483L16.6716 31.0052ZM26.8284 35.5052L44.8284 17.5052L39.1715 11.8483L21.1716 29.8483L26.8284 35.5052ZM39.1715 17.5052L43.6715 22.0052L49.3284 16.3483L44.8284 11.8483L39.1715 17.5052ZM49.3284 22.0052L58.3284 13.0052L52.6715 7.34834L43.6715 16.3483L49.3284 22.0052ZM52.6715 13.0052L57.1715 17.5052L62.8284 11.8483L58.3284 7.34834L52.6715 13.0052ZM62.8284 17.5052L67.3284 13.0052L61.6715 7.34834L57.1715 11.8483L62.8284 17.5052ZM61.6715 13.0052L70.6715 22.0052L76.3284 16.3483L67.3284 7.34834L61.6715 13.0052ZM76.3284 22.0052L80.8284 17.5052L75.1715 11.8483L70.6715 16.3483L76.3284 22.0052ZM75.1715 17.5052L106.672 49.0052L112.328 43.3483L80.8284 11.8483L75.1715 17.5052ZM106.672 43.3483L97.6715 52.3483L103.328 58.0052L112.328 49.0052L106.672 43.3483ZM103.328 52.3483L76.3284 25.3483L70.6715 31.0052L97.6715 58.0052L103.328 52.3483ZM70.6715 25.3483L66.1715 29.8483L71.8284 35.5052L76.3284 31.0052L70.6715 25.3483ZM71.8284 29.8483L62.8284 20.8483L57.1715 26.5052L66.1715 35.5052L71.8284 29.8483ZM57.1715 20.8483L48.1715 29.8483L53.8284 35.5052L62.8284 26.5052L57.1715 20.8483ZM53.8284 29.8483L49.3284 25.3483L43.6715 31.0052L48.1715 35.5052L53.8284 29.8483ZM43.6715 25.3483L30.1716 38.8483L35.8284 44.5052L49.3284 31.0052L43.6715 25.3483ZM30.1716 44.5052L34.6715 49.0052L40.3284 43.3483L35.8284 38.8483L30.1716 44.5052ZM40.3284 49.0052L44.8284 44.5052L39.1715 38.8483L34.6715 43.3483L40.3284 49.0052ZM39.1715 44.5052L43.6715 49.0052L49.3284 43.3483L44.8284 38.8483L39.1715 44.5052ZM49.3284 49.0052L53.8284 44.5052L48.1715 38.8483L43.6715 43.3483L49.3284 49.0052ZM48.1715 44.5052L57.1715 53.5052L62.8284 47.8483L53.8284 38.8483L48.1715 44.5052ZM57.1715 47.8483L48.1715 56.8483L53.8284 62.5052L62.8284 53.5052L57.1715 47.8483ZM53.8284 56.8483L49.3284 52.3483L43.6715 58.0052L48.1715 62.5052L53.8284 56.8483ZM43.6715 52.3483L39.1716 56.8483L44.8284 62.5052L49.3284 58.0052L43.6715 52.3483ZM44.8284 56.8483L40.3284 52.3483L34.6716 58.0052L39.1716 62.5052L44.8284 56.8483ZM34.6716 52.3483L30.1716 56.8483L35.8284 62.5052L40.3284 58.0052L34.6716 52.3483ZM35.8284 56.8483L31.3284 52.3483L25.6716 58.0052L30.1716 62.5052L35.8284 56.8483ZM25.6716 52.3483L21.1716 56.8483L26.8284 62.5052L31.3284 58.0052L25.6716 52.3483ZM26.8284 56.8483L22.3284 52.3483L16.6716 58.0052L21.1716 62.5052L26.8284 56.8483Z" fill="white" mask="url(#path-1-outside-1_2248_9042)"/>
</g>
<defs>
<linearGradient id="paint0_linear_2248_9042" x1="35.4276" y1="26.1044" x2="70.0658" y2="60.7425" gradientUnits="userSpaceOnUse">
<stop stop-color="#7857FF"/>
<stop offset="0.166667" stop-color="#9076FC"/>
<stop offset="1" stop-color="#C6B8FF"/>
</linearGradient>
</defs>
</svg>
