<svg viewBox="0 0 365 158" fill="none" xmlns="http://www.w3.org/2000/svg">
<g filter="url(#filter0_bdd_2430_2421)">
<path d="M3.00002 5.39461C3.00002 3.8685 4.23718 2.63135 5.76328 2.63135H79.9992L109.032 30.4016V150.08C109.032 151.606 107.795 152.843 106.268 152.843H5.76328C4.23718 152.843 3.00002 151.606 3.00002 150.08V5.39461Z" fill="white"/>
<path d="M3.57265 5.39461C3.57265 4.18475 4.55343 3.20397 5.76328 3.20397H79.7695L108.459 30.6462V150.08C108.459 151.29 107.478 152.27 106.268 152.27H5.76328C4.55343 152.27 3.57265 151.29 3.57265 150.08V5.39461Z" stroke="white" stroke-width="1.14525"/>
</g>
<path d="M81.8416 30.4012C80.8242 30.4012 79.9995 29.5765 79.9995 28.5591L79.9995 2.63073L109.032 30.4012L81.8416 30.4012Z" fill="#E5E7EB"/>
<rect x="18.9049" y="41.2317" width="76.873" height="4.24127" rx="2.12063" fill="#E5E7EB"/>
<rect x="52.8346" y="116.514" width="42.9428" height="4.24127" rx="2.12063" fill="#E5E7EB"/>
<rect x="18.9049" y="49.7146" width="48.7746" height="4.24127" rx="2.12063" fill="#E5E7EB"/>
<rect x="18.9049" y="100.08" width="14.3143" height="4.24127" transform="rotate(-90 18.9049 100.08)" fill="#D1D5DB"/>
<rect x="39.0508" y="100.08" width="9.54285" height="4.24127" transform="rotate(-90 39.0508 100.08)" fill="#D1D5DB"/>
<rect x="59.1966" y="100.08" width="22.2667" height="4.24127" transform="rotate(-90 59.1966 100.08)" fill="#D1D5DB"/>
<rect x="28.9778" y="100.08" width="18.0254" height="4.24127" transform="rotate(-90 28.9778 100.08)" fill="#9CA3AF"/>
<rect x="49.1237" y="100.08" width="15.3746" height="4.24127" transform="rotate(-90 49.1237 100.08)" fill="#9CA3AF"/>
<rect x="69.2696" y="100.08" width="14.3143" height="4.24127" transform="rotate(-90 69.2696 100.08)" fill="#9CA3AF"/>
<rect x="52.8346" y="124.997" width="42.9428" height="4.24127" rx="2.12063" fill="#E5E7EB"/>
<rect x="52.8346" y="133.479" width="20.6762" height="4.24127" rx="2.12063" fill="#E5E7EB"/>
<rect x="18.9049" y="58.1968" width="33.9301" height="7.42222" rx="3.71111" fill="#9177FF"/>
<rect x="26.8568" y="60.3176" width="18.0254" height="3.18095" rx="1.59048" fill="#DDD6FE"/>
<circle cx="31.6285" cy="127.118" r="12.7238" fill="#D1D5DB"/>
<path d="M44.3523 127.118C44.3523 129.634 43.6061 132.094 42.208 134.187C40.8099 136.279 38.8227 137.91 36.4977 138.873C34.1728 139.836 31.6144 140.088 29.1462 139.597C26.6781 139.106 24.4109 137.894 22.6314 136.115C20.852 134.335 19.6402 132.068 19.1492 129.6C18.6583 127.132 18.9102 124.573 19.8733 122.248C20.8363 119.923 22.4672 117.936 24.5596 116.538C26.652 115.14 29.112 114.394 31.6285 114.394V127.118H44.3523Z" fill="#6B7280"/>
<path d="M29.5088 20.1827C29.5088 20.3082 29.4589 20.4286 29.3701 20.5174L23.6389 26.2486C23.5502 26.3373 23.4298 26.3872 23.3043 26.3872L20.9694 26.3872C20.708 26.3872 20.4961 26.1753 20.4961 25.9139L20.4961 23.579C20.4961 23.4535 20.5459 23.3331 20.6347 23.2443L26.3659 17.5131C26.4547 17.4244 26.5751 17.3745 26.7006 17.3745L29.0355 17.3745C29.2969 17.3745 29.5088 17.5864 29.5088 17.8478L29.5088 20.1827Z" fill="#4B5563"/>
<path d="M35.4319 20.1827C35.4319 20.3082 35.382 20.4286 35.2933 20.5174L29.5621 26.2486C29.4733 26.3373 29.3529 26.3872 29.2274 26.3872L26.8925 26.3872C26.6311 26.3872 26.4192 26.1753 26.4192 25.9139L26.4192 23.579C26.4192 23.4535 26.4691 23.3331 26.5578 23.2443L32.289 17.5131C32.3778 17.4244 32.4982 17.3745 32.6237 17.3745L34.9586 17.3745C35.22 17.3745 35.4319 17.5864 35.4319 17.8478L35.4319 20.1827Z" fill="#4B5563"/>
<path d="M35.3959 25.8421C35.3959 26.1035 35.184 26.3154 34.9226 26.3154L32.3665 26.3154C31.9448 26.3154 31.7336 25.8056 32.0318 25.5074L34.5879 22.9513C34.8861 22.6532 35.3959 22.8643 35.3959 23.286L35.3959 25.8421Z" fill="#7A2CFF"/>
<g filter="url(#filter1_bdd_2430_2421)">
<rect x="155" y="38" width="206" height="114.779" rx="6.3876" fill="white" shape-rendering="crispEdges"/>
<rect x="155.658" y="38.6581" width="204.684" height="113.463" rx="5.72945" stroke="white" stroke-width="1.31629" shape-rendering="crispEdges"/>
<path d="M193.072 54.5584C193.025 54.407 192.961 54.2714 192.879 54.1517C192.798 54.0302 192.701 53.9264 192.587 53.8404C192.475 53.7544 192.346 53.6899 192.2 53.6469C192.054 53.602 191.895 53.5796 191.723 53.5796C191.415 53.5796 191.14 53.6572 190.899 53.8124C190.657 53.9676 190.468 54.1957 190.329 54.4967C190.193 54.7959 190.125 55.1605 190.125 55.5905C190.125 56.0243 190.193 56.3917 190.329 56.6927C190.466 56.9937 190.656 57.2228 190.899 57.3798C191.142 57.535 191.424 57.6126 191.746 57.6126C192.037 57.6126 192.29 57.5565 192.503 57.4443C192.718 57.3322 192.883 57.1732 192.999 56.9676C193.115 56.76 193.173 56.5169 193.173 56.2384L193.409 56.2748H191.849V55.4615H194.18V56.1514C194.18 56.6432 194.075 57.0685 193.866 57.4275C193.656 57.7865 193.369 58.0632 193.002 58.2577C192.636 58.4503 192.215 58.5465 191.74 58.5465C191.211 58.5465 190.746 58.4278 190.346 58.1904C189.948 57.951 189.637 57.6117 189.412 57.1723C189.19 56.731 189.078 56.2075 189.078 55.6017C189.078 55.138 189.144 54.7239 189.275 54.3593C189.408 53.9947 189.593 53.6852 189.83 53.4309C190.068 53.1748 190.346 52.9803 190.666 52.8476C190.986 52.713 191.333 52.6457 191.709 52.6457C192.027 52.6457 192.323 52.6924 192.598 52.7859C192.873 52.8775 193.117 53.0084 193.33 53.1785C193.545 53.3487 193.722 53.5506 193.86 53.7843C193.999 54.018 194.089 54.2761 194.132 54.5584H193.072ZM197.02 58.5522C196.6 58.5522 196.235 58.4596 195.927 58.2745C195.618 58.0894 195.379 57.8304 195.209 57.4976C195.04 57.1648 194.956 56.7759 194.956 56.3309C194.956 55.8859 195.04 55.4961 195.209 55.1614C195.379 54.8267 195.618 54.5668 195.927 54.3817C196.235 54.1966 196.6 54.1041 197.02 54.1041C197.441 54.1041 197.806 54.1966 198.114 54.3817C198.423 54.5668 198.661 54.8267 198.829 55.1614C198.999 55.4961 199.085 55.8859 199.085 56.3309C199.085 56.7759 198.999 57.1648 198.829 57.4976C198.661 57.8304 198.423 58.0894 198.114 58.2745C197.806 58.4596 197.441 58.5522 197.02 58.5522ZM197.026 57.7388C197.254 57.7388 197.445 57.6762 197.598 57.5509C197.751 57.4238 197.865 57.2536 197.94 57.0405C198.017 56.8273 198.055 56.5899 198.055 56.3281C198.055 56.0645 198.017 55.8261 197.94 55.6129C197.865 55.3979 197.751 55.2268 197.598 55.0997C197.445 54.9725 197.254 54.909 197.026 54.909C196.792 54.909 196.598 54.9725 196.443 55.0997C196.289 55.2268 196.174 55.3979 196.098 55.6129C196.023 55.8261 195.985 56.0645 195.985 56.3281C195.985 56.5899 196.023 56.8273 196.098 57.0405C196.174 57.2536 196.289 57.4238 196.443 57.5509C196.598 57.6762 196.792 57.7388 197.026 57.7388ZM201.825 58.5522C201.405 58.5522 201.04 58.4596 200.732 58.2745C200.423 58.0894 200.184 57.8304 200.014 57.4976C199.845 57.1648 199.761 56.7759 199.761 56.3309C199.761 55.8859 199.845 55.4961 200.014 55.1614C200.184 54.8267 200.423 54.5668 200.732 54.3817C201.04 54.1966 201.405 54.1041 201.825 54.1041C202.246 54.1041 202.611 54.1966 202.919 54.3817C203.228 54.5668 203.466 54.8267 203.634 55.1614C203.804 55.4961 203.89 55.8859 203.89 56.3309C203.89 56.7759 203.804 57.1648 203.634 57.4976C203.466 57.8304 203.228 58.0894 202.919 58.2745C202.611 58.4596 202.246 58.5522 201.825 58.5522ZM201.831 57.7388C202.059 57.7388 202.25 57.6762 202.403 57.5509C202.556 57.4238 202.67 57.2536 202.745 57.0405C202.822 56.8273 202.86 56.5899 202.86 56.3281C202.86 56.0645 202.822 55.8261 202.745 55.6129C202.67 55.3979 202.556 55.2268 202.403 55.0997C202.25 54.9725 202.059 54.909 201.831 54.909C201.597 54.909 201.403 54.9725 201.248 55.0997C201.094 55.2268 200.979 55.3979 200.903 55.6129C200.828 55.8261 200.79 56.0645 200.79 56.3281C200.79 56.5899 200.828 56.8273 200.903 57.0405C200.979 57.2536 201.094 57.4238 201.248 57.5509C201.403 57.6762 201.597 57.7388 201.831 57.7388ZM206.625 60.1732C206.26 60.1732 205.947 60.1237 205.685 60.0246C205.423 59.9273 205.213 59.7965 205.054 59.6319C204.895 59.4674 204.785 59.2851 204.723 59.085L205.638 58.8635C205.679 58.9476 205.738 59.0308 205.817 59.1131C205.896 59.1972 206.001 59.2664 206.134 59.3206C206.269 59.3767 206.438 59.4048 206.642 59.4048C206.93 59.4048 207.168 59.3346 207.357 59.1944C207.546 59.056 207.64 58.8279 207.64 58.5101V57.6939H207.59C207.537 57.7987 207.461 57.9062 207.36 58.0165C207.26 58.1268 207.129 58.2193 206.964 58.2941C206.801 58.3689 206.597 58.4063 206.35 58.4063C206.019 58.4063 205.719 58.3287 205.45 58.1735C205.182 58.0165 204.969 57.7828 204.81 57.4724C204.653 57.1601 204.575 56.7694 204.575 56.3001C204.575 55.827 204.653 55.4278 204.81 55.1025C204.969 54.7753 205.183 54.5275 205.452 54.3593C205.722 54.1891 206.022 54.1041 206.353 54.1041C206.605 54.1041 206.813 54.1471 206.975 54.2331C207.14 54.3172 207.271 54.4191 207.368 54.5388C207.465 54.6566 207.539 54.7678 207.59 54.8725H207.646V54.1601H208.647V58.5381C208.647 58.9065 208.559 59.2112 208.383 59.4524C208.207 59.6936 207.967 59.8741 207.662 59.9937C207.358 60.1134 207.012 60.1732 206.625 60.1732ZM206.633 57.6098C206.848 57.6098 207.031 57.5575 207.183 57.4528C207.334 57.348 207.449 57.1975 207.528 57.0012C207.606 56.8049 207.646 56.5693 207.646 56.2944C207.646 56.0233 207.606 55.7859 207.528 55.5821C207.451 55.3783 207.337 55.2203 207.186 55.1081C207.036 54.994 206.852 54.937 206.633 54.937C206.407 54.937 206.218 54.9959 206.067 55.1137C205.915 55.2315 205.801 55.3932 205.724 55.5989C205.648 55.8027 205.609 56.0346 205.609 56.2944C205.609 56.5581 205.648 56.789 205.724 56.9872C205.803 57.1835 205.918 57.3368 206.069 57.4471C206.223 57.5556 206.411 57.6098 206.633 57.6098ZM210.703 52.7242V58.468H209.687V52.7242H210.703ZM213.654 58.5522C213.222 58.5522 212.849 58.4624 212.535 58.2829C212.222 58.1015 211.982 57.8454 211.814 57.5145C211.646 57.1816 211.562 56.7899 211.562 56.3393C211.562 55.8962 211.646 55.5073 211.814 55.1726C211.984 54.8361 212.222 54.5743 212.526 54.3873C212.831 54.1985 213.189 54.1041 213.6 54.1041C213.866 54.1041 214.117 54.1471 214.352 54.2331C214.59 54.3172 214.799 54.4481 214.98 54.6257C215.164 54.8033 215.308 55.0296 215.412 55.3044C215.517 55.5774 215.569 55.9027 215.569 56.2804V56.5917H212.038V55.9074H214.596C214.594 55.713 214.552 55.54 214.47 55.3886C214.388 55.2352 214.273 55.1146 214.125 55.0268C213.979 54.9389 213.809 54.895 213.615 54.895C213.407 54.895 213.225 54.9454 213.068 55.0464C212.911 55.1455 212.788 55.2764 212.7 55.439C212.614 55.5998 212.57 55.7765 212.568 55.9691V56.5665C212.568 56.817 212.614 57.0321 212.706 57.2116C212.797 57.3892 212.926 57.5257 213.09 57.621C213.255 57.7145 213.447 57.7613 213.668 57.7613C213.816 57.7613 213.949 57.7407 214.069 57.6996C214.189 57.6566 214.292 57.5939 214.38 57.5116C214.468 57.4294 214.534 57.3275 214.579 57.2059L215.527 57.3125C215.467 57.5631 215.353 57.7818 215.185 57.9688C215.019 58.1539 214.806 58.2979 214.546 58.4007C214.286 58.5017 213.988 58.5522 213.654 58.5522ZM221.554 54.3032C221.527 54.0582 221.417 53.8675 221.223 53.731C221.03 53.5946 220.78 53.5263 220.471 53.5263C220.254 53.5263 220.068 53.559 219.913 53.6245C219.758 53.6899 219.639 53.7787 219.557 53.8909C219.475 54.0031 219.432 54.1312 219.431 54.2751C219.431 54.3948 219.458 54.4986 219.512 54.5864C219.568 54.6743 219.644 54.7491 219.739 54.8108C219.834 54.8706 219.94 54.9211 220.056 54.9623C220.172 55.0034 220.289 55.038 220.407 55.066L220.945 55.2007C221.162 55.2511 221.37 55.3194 221.57 55.4054C221.772 55.4914 221.953 55.5998 222.112 55.7307C222.273 55.8616 222.4 56.0196 222.493 56.2047C222.587 56.3898 222.633 56.6067 222.633 56.8554C222.633 57.1919 222.547 57.4883 222.375 57.7444C222.203 57.9987 221.955 58.1978 221.629 58.3418C221.306 58.4839 220.914 58.555 220.454 58.555C220.007 58.555 219.619 58.4858 219.29 58.3474C218.963 58.2091 218.707 58.0071 218.522 57.7416C218.339 57.4761 218.24 57.1527 218.225 56.7712H219.248C219.263 56.9713 219.325 57.1377 219.433 57.2705C219.542 57.4032 219.683 57.5023 219.857 57.5677C220.033 57.6332 220.229 57.6659 220.446 57.6659C220.672 57.6659 220.87 57.6322 221.04 57.5649C221.212 57.4958 221.347 57.4004 221.444 57.2789C221.541 57.1555 221.591 57.0115 221.593 56.847C221.591 56.6974 221.547 56.574 221.461 56.4767C221.375 56.3777 221.254 56.2954 221.099 56.2299C220.946 56.1626 220.766 56.1028 220.561 56.0504L219.907 55.8822C219.434 55.7606 219.06 55.5765 218.786 55.3297C218.513 55.081 218.376 54.751 218.376 54.3396C218.376 54.0012 218.468 53.7049 218.651 53.4506C218.836 53.1963 219.087 52.999 219.405 52.8588C219.723 52.7167 220.083 52.6457 220.485 52.6457C220.893 52.6457 221.25 52.7167 221.556 52.8588C221.865 52.999 222.107 53.1944 222.283 53.445C222.459 53.6936 222.549 53.9797 222.555 54.3032H221.554ZM224.531 55.9439V58.468H223.516V52.7242H224.509V54.8921H224.559C224.66 54.6491 224.817 54.4574 225.028 54.3172C225.241 54.1751 225.512 54.1041 225.841 54.1041C226.14 54.1041 226.401 54.1667 226.624 54.292C226.846 54.4172 227.018 54.6005 227.14 54.8417C227.263 55.0829 227.325 55.3773 227.325 55.7251V58.468H226.31V55.8822C226.31 55.5924 226.235 55.3671 226.085 55.2063C225.937 55.0436 225.73 54.9623 225.463 54.9623C225.283 54.9623 225.122 55.0015 224.98 55.0801C224.84 55.1567 224.73 55.268 224.649 55.4138C224.571 55.5596 224.531 55.7363 224.531 55.9439ZM230.267 58.5522C229.835 58.5522 229.462 58.4624 229.148 58.2829C228.836 58.1015 228.595 57.8454 228.427 57.5145C228.259 57.1816 228.175 56.7899 228.175 56.3393C228.175 55.8962 228.259 55.5073 228.427 55.1726C228.597 54.8361 228.835 54.5743 229.139 54.3873C229.444 54.1985 229.802 54.1041 230.214 54.1041C230.479 54.1041 230.73 54.1471 230.965 54.2331C231.203 54.3172 231.412 54.4481 231.593 54.6257C231.777 54.8033 231.921 55.0296 232.025 55.3044C232.13 55.5774 232.182 55.9027 232.182 56.2804V56.5917H228.651V55.9074H231.209C231.207 55.713 231.165 55.54 231.083 55.3886C231.001 55.2352 230.886 55.1146 230.738 55.0268C230.592 54.9389 230.422 54.895 230.228 54.895C230.02 54.895 229.838 54.9454 229.681 55.0464C229.524 55.1455 229.401 55.2764 229.313 55.439C229.227 55.5998 229.183 55.7765 229.181 55.9691V56.5665C229.181 56.817 229.227 57.0321 229.319 57.2116C229.411 57.3892 229.539 57.5257 229.703 57.621C229.868 57.7145 230.06 57.7613 230.281 57.7613C230.429 57.7613 230.562 57.7407 230.682 57.6996C230.802 57.6566 230.905 57.5939 230.993 57.5116C231.081 57.4294 231.147 57.3275 231.192 57.2059L232.14 57.3125C232.08 57.5631 231.966 57.7818 231.798 57.9688C231.632 58.1539 231.419 58.2979 231.159 58.4007C230.899 58.5017 230.602 58.5522 230.267 58.5522ZM234.948 58.5522C234.517 58.5522 234.144 58.4624 233.829 58.2829C233.517 58.1015 233.277 57.8454 233.109 57.5145C232.94 57.1816 232.856 56.7899 232.856 56.3393C232.856 55.8962 232.94 55.5073 233.109 55.1726C233.279 54.8361 233.516 54.5743 233.821 54.3873C234.126 54.1985 234.484 54.1041 234.895 54.1041C235.161 54.1041 235.411 54.1471 235.647 54.2331C235.884 54.3172 236.094 54.4481 236.275 54.6257C236.458 54.8033 236.602 55.0296 236.707 55.3044C236.812 55.5774 236.864 55.9027 236.864 56.2804V56.5917H233.333V55.9074H235.891C235.889 55.713 235.847 55.54 235.765 55.3886C235.682 55.2352 235.567 55.1146 235.42 55.0268C235.274 54.9389 235.104 54.895 234.909 54.895C234.702 54.895 234.519 54.9454 234.362 55.0464C234.205 55.1455 234.083 55.2764 233.995 55.439C233.909 55.5998 233.865 55.7765 233.863 55.9691V56.5665C233.863 56.817 233.909 57.0321 234 57.2116C234.092 57.3892 234.22 57.5257 234.385 57.621C234.549 57.7145 234.742 57.7613 234.962 57.7613C235.11 57.7613 235.244 57.7407 235.364 57.6996C235.483 57.6566 235.587 57.5939 235.675 57.5116C235.763 57.4294 235.829 57.3275 235.874 57.2059L236.822 57.3125C236.762 57.5631 236.648 57.7818 236.48 57.9688C236.313 58.1539 236.1 58.2979 235.84 58.4007C235.58 58.5017 235.283 58.5522 234.948 58.5522ZM239.874 54.1601V54.9454H237.398V54.1601H239.874ZM238.009 53.1281H239.024V57.1723C239.024 57.3088 239.045 57.4135 239.086 57.4864C239.129 57.5575 239.185 57.6061 239.254 57.6322C239.323 57.6584 239.4 57.6715 239.484 57.6715C239.548 57.6715 239.606 57.6668 239.658 57.6575C239.712 57.6481 239.753 57.6397 239.781 57.6322L239.953 58.4259C239.898 58.4446 239.821 58.4652 239.72 58.4876C239.621 58.5101 239.499 58.5232 239.355 58.5269C239.101 58.5344 238.872 58.4961 238.668 58.4119C238.464 58.3259 238.303 58.1932 238.183 58.0137C238.065 57.8342 238.007 57.6098 238.009 57.3406V53.1281ZM244.066 55.2988L243.141 55.3998C243.115 55.3063 243.069 55.2184 243.003 55.1361C242.94 55.0539 242.854 54.9875 242.745 54.937C242.637 54.8865 242.504 54.8613 242.347 54.8613C242.136 54.8613 241.958 54.9071 241.814 54.9987C241.672 55.0903 241.602 55.2091 241.604 55.3549C241.602 55.4802 241.648 55.5821 241.741 55.6606C241.837 55.7391 241.994 55.8036 242.212 55.8541L242.947 56.0112C243.355 56.0991 243.658 56.2384 243.856 56.4291C244.056 56.6198 244.157 56.8694 244.159 57.1779C244.157 57.449 244.077 57.6883 243.92 57.8959C243.765 58.1015 243.549 58.2623 243.272 58.3783C242.996 58.4942 242.678 58.5522 242.319 58.5522C241.792 58.5522 241.367 58.4418 241.046 58.2212C240.724 57.9987 240.532 57.6893 240.471 57.2929L241.461 57.1975C241.506 57.392 241.601 57.5388 241.747 57.6379C241.893 57.737 242.082 57.7865 242.316 57.7865C242.557 57.7865 242.751 57.737 242.897 57.6379C243.044 57.5388 243.118 57.4163 243.118 57.2705C243.118 57.147 243.071 57.0451 242.975 56.9648C242.882 56.8844 242.736 56.8227 242.538 56.7796L241.803 56.6254C241.39 56.5394 241.084 56.3945 240.886 56.1907C240.688 55.985 240.589 55.7251 240.591 55.411C240.589 55.1455 240.661 54.9155 240.807 54.7211C240.955 54.5247 241.16 54.3733 241.421 54.2667C241.685 54.1583 241.989 54.1041 242.333 54.1041C242.838 54.1041 243.235 54.2116 243.525 54.4266C243.817 54.6416 243.997 54.9323 244.066 55.2988Z" fill="#4B5563"/>
<rect x="165.695" y="72.6494" width="45.7412" height="10.2013" fill="white" stroke="#D1D5DB" stroke-width="0.329073"/>
<rect x="165.695" y="82.5217" width="45.7412" height="10.2013" fill="white" stroke="#D1D5DB" stroke-width="0.329073"/>
<rect x="165.695" y="92.3938" width="45.7412" height="10.2013" fill="white" stroke="#D1D5DB" stroke-width="0.329073"/>
<rect x="165.695" y="102.266" width="45.7412" height="10.2013" fill="white" stroke="#D1D5DB" stroke-width="0.329073"/>
<rect x="165.695" y="112.138" width="45.7412" height="10.2013" fill="white" stroke="#D1D5DB" stroke-width="0.329073"/>
<rect x="165.695" y="122.01" width="45.7412" height="10.2013" fill="white" stroke="#D1D5DB" stroke-width="0.329073"/>
<rect x="165.695" y="131.883" width="45.7412" height="10.2013" fill="white" stroke="#D1D5DB" stroke-width="0.329073"/>
<rect x="257.835" y="72.6494" width="45.7412" height="10.2013" fill="white" stroke="#D1D5DB" stroke-width="0.329073"/>
<rect x="257.835" y="82.5217" width="45.7412" height="10.2013" fill="white" stroke="#D1D5DB" stroke-width="0.329073"/>
<rect x="257.835" y="92.3938" width="45.7412" height="10.2013" fill="white" stroke="#D1D5DB" stroke-width="0.329073"/>
<rect x="257.835" y="102.266" width="45.7412" height="10.2013" fill="white" stroke="#D1D5DB" stroke-width="0.329073"/>
<rect x="257.835" y="112.138" width="45.7412" height="10.2013" fill="white" stroke="#D1D5DB" stroke-width="0.329073"/>
<rect x="257.835" y="122.01" width="45.7412" height="10.2013" fill="white" stroke="#D1D5DB" stroke-width="0.329073"/>
<rect x="257.835" y="131.883" width="45.7412" height="10.2013" fill="white" stroke="#D1D5DB" stroke-width="0.329073"/>
<rect x="211.107" y="72.6494" width="47.0575" height="10.2013" fill="white" stroke="#D1D5DB" stroke-width="0.329073"/>
<rect x="211.107" y="82.5217" width="47.0575" height="10.2013" fill="white" stroke="#D1D5DB" stroke-width="0.329073"/>
<rect x="211.107" y="92.3938" width="47.0575" height="10.2013" fill="white" stroke="#D1D5DB" stroke-width="0.329073"/>
<rect x="211.107" y="102.266" width="47.0575" height="10.2013" fill="white" stroke="#D1D5DB" stroke-width="0.329073"/>
<rect x="211.107" y="112.138" width="47.0575" height="10.2013" fill="white" stroke="#D1D5DB" stroke-width="0.329073"/>
<rect x="211.107" y="122.01" width="47.0575" height="10.2013" fill="white" stroke="#D1D5DB" stroke-width="0.329073"/>
<rect x="211.107" y="131.883" width="47.0575" height="10.2013" fill="white" stroke="#D1D5DB" stroke-width="0.329073"/>
<rect x="303.248" y="72.6494" width="47.0575" height="10.2013" fill="white" stroke="#D1D5DB" stroke-width="0.329073"/>
<rect x="303.248" y="82.5217" width="47.0575" height="10.2013" fill="white" stroke="#D1D5DB" stroke-width="0.329073"/>
<rect x="303.248" y="92.3938" width="47.0575" height="10.2013" fill="white" stroke="#D1D5DB" stroke-width="0.329073"/>
<rect x="303.248" y="102.266" width="47.0575" height="10.2013" fill="white" stroke="#D1D5DB" stroke-width="0.329073"/>
<rect x="303.248" y="112.138" width="47.0575" height="10.2013" fill="white" stroke="#D1D5DB" stroke-width="0.329073"/>
<rect x="303.248" y="122.01" width="47.0575" height="10.2013" fill="white" stroke="#D1D5DB" stroke-width="0.329073"/>
<rect x="303.248" y="131.883" width="47.0575" height="10.2013" fill="white" stroke="#D1D5DB" stroke-width="0.329073"/>
<rect x="171.454" y="76.4341" width="27.6422" height="2.63259" rx="1.31629" fill="#6B7280"/>
<rect x="171.454" y="86.3064" width="21.0607" height="2.63259" rx="1.31629" fill="#D1D5DB"/>
<rect x="171.454" y="96.1782" width="21.0607" height="2.63259" rx="1.31629" fill="#D1D5DB"/>
<rect x="171.454" y="106.051" width="21.0607" height="2.63259" rx="1.31629" fill="#D1D5DB"/>
<rect x="171.454" y="115.923" width="21.0607" height="2.63259" rx="1.31629" fill="#D1D5DB"/>
<rect x="171.454" y="125.795" width="21.0607" height="2.63259" rx="1.31629" fill="#D1D5DB"/>
<rect x="171.454" y="135.667" width="21.0607" height="2.63259" rx="1.31629" fill="#D1D5DB"/>
<rect x="264.253" y="76.4341" width="27.6422" height="2.63259" rx="1.31629" fill="#6B7280"/>
<rect x="264.253" y="86.3064" width="21.0607" height="2.63259" rx="1.31629" fill="#D1D5DB"/>
<rect x="264.253" y="96.1782" width="21.0607" height="2.63259" rx="1.31629" fill="#D1D5DB"/>
<rect x="264.253" y="106.051" width="21.0607" height="2.63259" rx="1.31629" fill="#D1D5DB"/>
<rect x="264.253" y="115.923" width="21.0607" height="2.63259" rx="1.31629" fill="#D1D5DB"/>
<rect x="264.253" y="125.795" width="21.0607" height="2.63259" rx="1.31629" fill="#D1D5DB"/>
<rect x="264.253" y="135.667" width="21.0607" height="2.63259" rx="1.31629" fill="#D1D5DB"/>
<rect x="216.866" y="76.4341" width="27.6422" height="2.63259" rx="1.31629" fill="#6B7280"/>
<rect x="216.866" y="86.3064" width="21.0607" height="2.63259" rx="1.31629" fill="#D1D5DB"/>
<rect x="216.866" y="96.1782" width="21.0607" height="2.63259" rx="1.31629" fill="#D1D5DB"/>
<rect x="216.866" y="106.051" width="21.0607" height="2.63259" rx="1.31629" fill="#D1D5DB"/>
<rect x="216.866" y="115.923" width="21.0607" height="2.63259" rx="1.31629" fill="#D1D5DB"/>
<rect x="216.866" y="125.795" width="21.0607" height="2.63259" rx="1.31629" fill="#D1D5DB"/>
<rect x="216.866" y="135.667" width="21.0607" height="2.63259" rx="1.31629" fill="#D1D5DB"/>
<rect x="309.007" y="76.4341" width="27.6422" height="2.63259" rx="1.31629" fill="#6B7280"/>
<rect x="309.007" y="86.3064" width="21.0607" height="2.63259" rx="1.31629" fill="#D1D5DB"/>
<rect x="309.007" y="96.1782" width="21.0607" height="2.63259" rx="1.31629" fill="#D1D5DB"/>
<rect x="309.007" y="106.051" width="21.0607" height="2.63259" rx="1.31629" fill="#D1D5DB"/>
<rect x="309.007" y="115.923" width="21.0607" height="2.63259" rx="1.31629" fill="#D1D5DB"/>
<rect x="309.007" y="125.795" width="21.0607" height="2.63259" rx="1.31629" fill="#D1D5DB"/>
<rect x="309.007" y="135.667" width="21.0607" height="2.63259" rx="1.31629" fill="#D1D5DB"/>
<path d="M171.501 49.0934C171.501 48.829 171.715 48.6147 171.98 48.6147L178.681 48.6147L182.032 51.7943L182.032 63.0544C182.032 63.3187 181.817 63.533 181.553 63.533H171.98C171.715 63.533 171.501 63.3187 171.501 63.0544V49.0934Z" fill="#10B981"/>
<path d="M179.399 51.7952C179.003 51.7952 178.681 51.4737 178.681 51.0772L178.681 48.6156L182.032 51.7951L179.399 51.7952Z" fill="#6EE7B7"/>
</g>
<defs>
<filter id="filter0_bdd_2430_2421" x="-4.99998" y="-5.36865" width="122.032" height="166.212" filterUnits="userSpaceOnUse" color-interpolation-filters="sRGB">
<feFlood flood-opacity="0" result="BackgroundImageFix"/>
<feGaussianBlur in="BackgroundImageFix" stdDeviation="4"/>
<feComposite in2="SourceAlpha" operator="in" result="effect1_backgroundBlur_2430_2421"/>
<feColorMatrix in="SourceAlpha" type="matrix" values="0 0 0 0 0 0 0 0 0 0 0 0 0 0 0 0 0 0 127 0" result="hardAlpha"/>
<feOffset dy="1"/>
<feGaussianBlur stdDeviation="1"/>
<feComposite in2="hardAlpha" operator="out"/>
<feColorMatrix type="matrix" values="0 0 0 0 0 0 0 0 0 0 0 0 0 0 0 0 0 0 0.06 0"/>
<feBlend mode="normal" in2="effect1_backgroundBlur_2430_2421" result="effect2_dropShadow_2430_2421"/>
<feColorMatrix in="SourceAlpha" type="matrix" values="0 0 0 0 0 0 0 0 0 0 0 0 0 0 0 0 0 0 127 0" result="hardAlpha"/>
<feOffset dy="1"/>
<feGaussianBlur stdDeviation="1.5"/>
<feComposite in2="hardAlpha" operator="out"/>
<feColorMatrix type="matrix" values="0 0 0 0 0 0 0 0 0 0 0 0 0 0 0 0 0 0 0.1 0"/>
<feBlend mode="normal" in2="effect2_dropShadow_2430_2421" result="effect3_dropShadow_2430_2421"/>
<feBlend mode="normal" in="SourceGraphic" in2="effect3_dropShadow_2430_2421" result="shape"/>
</filter>
<filter id="filter1_bdd_2430_2421" x="146.479" y="29.4792" width="223.042" height="131.821" filterUnits="userSpaceOnUse" color-interpolation-filters="sRGB">
<feFlood flood-opacity="0" result="BackgroundImageFix"/>
<feGaussianBlur in="BackgroundImageFix" stdDeviation="4.2604"/>
<feComposite in2="SourceAlpha" operator="in" result="effect1_backgroundBlur_2430_2421"/>
<feColorMatrix in="SourceAlpha" type="matrix" values="0 0 0 0 0 0 0 0 0 0 0 0 0 0 0 0 0 0 127 0" result="hardAlpha"/>
<feOffset dy="1.0651"/>
<feGaussianBlur stdDeviation="1.0651"/>
<feComposite in2="hardAlpha" operator="out"/>
<feColorMatrix type="matrix" values="0 0 0 0 0 0 0 0 0 0 0 0 0 0 0 0 0 0 0.06 0"/>
<feBlend mode="normal" in2="effect1_backgroundBlur_2430_2421" result="effect2_dropShadow_2430_2421"/>
<feColorMatrix in="SourceAlpha" type="matrix" values="0 0 0 0 0 0 0 0 0 0 0 0 0 0 0 0 0 0 127 0" result="hardAlpha"/>
<feOffset dy="1.0651"/>
<feGaussianBlur stdDeviation="1.59765"/>
<feComposite in2="hardAlpha" operator="out"/>
<feColorMatrix type="matrix" values="0 0 0 0 0 0 0 0 0 0 0 0 0 0 0 0 0 0 0.1 0"/>
<feBlend mode="normal" in2="effect2_dropShadow_2430_2421" result="effect3_dropShadow_2430_2421"/>
<feBlend mode="normal" in="SourceGraphic" in2="effect3_dropShadow_2430_2421" result="shape"/>
</filter>
</defs>
</svg>
