<svg viewBox="0 0 303 124" fill="none" xmlns="http://www.w3.org/2000/svg">
<g opacity="0.8" clip-path="url(#clip0_2441_2332)">
<path d="M277.624 83.877L275.364 83.3728C275.186 83.3331 275.073 83.1559 275.113 82.9782L276.269 77.7962C276.308 77.6185 276.486 77.5059 276.664 77.5456L278.924 78.0498C279.102 78.0895 279.215 78.2668 279.175 78.4445L278.019 83.6265C277.978 83.8039 277.801 83.9164 277.624 83.877ZM279.008 82.9071L279.836 79.1945C280.038 78.2882 280.5 77.4356 281.153 76.7735C281.553 76.369 282.381 75.763 282.837 75.4559C282.939 75.3867 283.295 75.1963 283.326 75.0555C283.366 74.8751 283.452 74.5885 283.58 74.0473C283.661 73.7038 284.004 73.4835 284.349 73.5631L284.364 73.5665C284.965 73.7121 285.034 74.3129 285.034 74.3129C285.034 74.3129 285.323 75.445 284.564 76.5814C283.923 77.5419 283.822 77.6083 283.822 77.6083C283.822 77.6083 283.648 77.769 284.066 77.8536C284.066 77.8536 286.609 78.4095 286.697 78.429C286.885 78.4709 287.445 78.7752 287.241 79.5289C287.09 80.0866 286.696 80.2052 286.502 80.2295C286.464 80.2339 286.449 80.2821 286.477 80.3086C286.637 80.4562 286.952 80.8091 286.852 81.2201C286.729 81.7179 286.487 81.8576 286.042 81.879C286.002 81.8813 285.983 81.9304 286.013 81.9572C286.152 82.0828 286.376 82.3636 286.26 82.8056C286.142 83.2558 285.778 83.3424 285.586 83.3571C285.548 83.3601 285.531 83.405 285.558 83.4339C285.654 83.5372 285.783 83.7511 285.694 84.1115C285.647 84.3019 285.552 84.427 285.449 84.5088C285.286 84.6375 285.068 84.675 284.865 84.6311L279.225 83.3845C279.223 83.3856 278.916 83.3172 279.008 82.9071Z" fill="white"/>
<path d="M279.219 90.078C284.882 91.3411 290.496 87.7751 291.759 82.1131C293.022 76.4511 289.455 70.8373 283.793 69.5742C278.13 68.3111 272.516 71.877 271.253 77.539C269.99 83.201 273.556 88.8149 279.219 90.078Z" fill="#ED5168"/>
<path d="M282.14 76.9822C282.301 74.1023 276.913 72.678 275.984 76.8444C275.16 80.5364 280.295 85.2548 280.295 85.2548C280.295 85.2548 286.958 83.1207 287.772 79.4738C288.701 75.3074 283.218 74.3069 282.14 76.9822Z" fill="white"/>
</g>
<g opacity="0.8" clip-path="url(#clip1_2441_2332)">
<path d="M189.197 61.7965C193.813 61.2894 197.144 57.1351 196.637 52.5178C196.129 47.9004 191.976 44.5684 187.36 45.0755C182.744 45.5827 179.413 49.7369 179.92 54.3543C180.427 58.9716 184.581 62.3036 189.197 61.7965Z" fill="#5E91FF"/>
<path d="M184.028 52.9501L185.866 52.7482C186.011 52.7323 186.142 52.836 186.158 52.9816L186.621 57.1952C186.636 57.3397 186.532 57.4704 186.387 57.4864L184.549 57.6883C184.404 57.7042 184.273 57.6005 184.257 57.4549L183.794 53.2402C183.779 53.0955 183.883 52.966 184.028 52.9501ZM187.183 56.3966L186.851 53.3779C186.771 52.6342 186.899 51.8833 187.223 51.2088C187.42 50.8002 187.889 50.1288 188.155 49.779C188.214 49.7005 188.434 49.4649 188.421 49.3504C188.405 49.2037 188.396 48.9651 188.353 48.5233C188.325 48.2428 188.528 47.9877 188.809 47.9591L188.821 47.9577C189.313 47.9127 189.52 48.3489 189.52 48.3489C189.52 48.3489 190.031 49.1297 189.75 50.1842C189.513 51.0753 189.453 51.1516 189.453 51.1516C189.453 51.1516 189.363 51.3179 189.701 51.274C189.701 51.274 191.766 51.0381 191.837 51.0303C191.99 51.0136 192.491 51.099 192.531 51.7212C192.562 52.1813 192.294 52.3727 192.154 52.4409C192.136 52.4497 192.128 52.4719 192.138 52.4899C192.142 52.4974 192.149 52.5034 192.157 52.507C192.316 52.5773 192.645 52.7628 192.675 53.0992C192.711 53.5069 192.564 53.675 192.233 53.8058C192.215 53.8123 192.205 53.8336 192.212 53.8519C192.216 53.8617 192.223 53.8687 192.231 53.8723C192.369 53.9315 192.61 54.0861 192.636 54.4499C192.663 54.8204 192.411 54.9798 192.27 55.0402C192.251 55.0479 192.242 55.0691 192.25 55.0874C192.253 55.0949 192.26 55.1021 192.267 55.1058C192.366 55.159 192.519 55.2874 192.544 55.5826C192.558 55.7386 192.518 55.8577 192.462 55.9461C192.372 56.0853 192.217 56.1698 192.052 56.189L187.469 56.7016C187.468 56.7006 187.219 56.729 187.183 56.3966Z" fill="white"/>
</g>
<rect opacity="0.6" x="127" y="62" width="32" height="6" rx="3" fill="url(#paint0_linear_2441_2332)"/>
<rect opacity="0.6" width="32" height="6" rx="3" transform="matrix(0.866025 0.5 0.5 -0.866025 120 84.637)" fill="url(#paint1_linear_2441_2332)"/>
<rect opacity="0.6" width="32" height="6" rx="3" transform="matrix(0.866025 -0.5 -0.5 -0.866025 123.875 49.637)" fill="url(#paint2_linear_2441_2332)"/>
<g filter="url(#filter0_bdd_2441_2332)">
<path d="M81.0898 29.4981C70.7432 33.6489 59.6618 36.35 48.0935 37.351C44.7591 37.6395 41.3836 37.7868 37.9729 37.7868H34.2262C19.7419 37.7868 8 49.5618 8 64.087C8 77.1099 17.4387 87.922 29.8301 90.0192C31.4999 96.8772 33.8169 103.481 36.7122 109.761C39.0304 114.789 45.0755 116.374 49.6138 113.746L52.8924 111.848C57.2888 109.303 58.7154 103.869 56.7492 99.4839C55.576 96.867 54.5289 94.1812 53.6158 91.434C63.1941 92.7267 72.401 95.1901 81.0897 98.6758C84.7149 87.8083 86.6787 76.1776 86.6787 64.0869C86.6787 51.9962 84.7149 40.3655 81.0898 29.4981Z" fill="url(#paint3_linear_2441_2332)" shape-rendering="crispEdges"/>
<path d="M87.9807 26.4688C91.9943 38.2697 94.1719 50.9233 94.1719 64.0869C94.1719 77.2505 91.9943 89.9041 87.9806 101.705V101.705C87.705 102.515 87.4217 103.322 87.1289 104.124C86.4177 106.073 87.4163 108.231 89.3594 108.944C91.3025 109.657 93.4543 108.656 94.1655 106.707C94.865 104.791 95.5186 102.853 96.1252 100.894C98.7411 92.4437 100.48 83.6083 101.235 74.4955C103.818 71.7981 105.412 68.1279 105.412 64.087C105.412 60.046 103.818 56.3758 101.235 53.6784C100.48 44.5656 98.7411 35.7302 96.1252 27.2804C95.5186 25.3212 94.865 23.3829 94.1655 21.4667C93.4543 19.5181 91.3025 18.5167 89.3594 19.23C87.4163 19.9432 86.4177 22.1011 87.1289 24.0497C87.4217 24.8518 87.7051 25.6585 87.9807 26.4688V26.4688Z" fill="url(#paint4_linear_2441_2332)" shape-rendering="crispEdges"/>
<path d="M87.9807 26.4688C91.9943 38.2697 94.1719 50.9233 94.1719 64.0869C94.1719 77.2505 91.9943 89.9041 87.9806 101.705M87.9807 26.4688C87.7051 25.6585 87.4217 24.8518 87.1289 24.0497C86.4177 22.1011 87.4163 19.9432 89.3594 19.23C91.3025 18.5167 93.4543 19.5181 94.1655 21.4667C94.865 23.3829 95.5186 25.3212 96.1252 27.2804C98.7411 35.7302 100.48 44.5656 101.235 53.6784C103.818 56.3758 105.412 60.046 105.412 64.087C105.412 68.1279 103.818 71.7981 101.235 74.4955C100.48 83.6083 98.7411 92.4437 96.1252 100.894C95.5186 102.853 94.865 104.791 94.1655 106.707C93.4543 108.656 91.3025 109.657 89.3594 108.944C87.4163 108.231 86.4177 106.073 87.1289 104.124C87.4217 103.322 87.705 102.515 87.9806 101.705M87.9807 26.4688V26.4688ZM87.9806 101.705V101.705ZM48.0935 37.351C59.6618 36.35 70.7432 33.6489 81.0898 29.4981C84.7149 40.3655 86.6787 51.9962 86.6787 64.0869C86.6787 76.1776 84.7149 87.8083 81.0897 98.6758C72.401 95.1901 63.1941 92.7267 53.6158 91.434C54.5289 94.1812 55.576 96.867 56.7492 99.4839C58.7154 103.869 57.2888 109.303 52.8924 111.848L49.6138 113.746C45.0755 116.374 39.0304 114.789 36.7122 109.761C33.8169 103.481 31.4999 96.8772 29.8301 90.0192C17.4387 87.922 8 77.1099 8 64.087C8 49.5618 19.7419 37.7868 34.2262 37.7868H37.9729C41.3836 37.7868 44.7591 37.6395 48.0935 37.351Z" stroke="url(#paint5_linear_2441_2332)" stroke-width="10" style="mix-blend-mode:overlay" shape-rendering="crispEdges"/>
<path d="M87.9807 26.4688C91.9943 38.2697 94.1719 50.9233 94.1719 64.0869C94.1719 77.2505 91.9943 89.9041 87.9806 101.705M87.9807 26.4688C87.7051 25.6585 87.4217 24.8518 87.1289 24.0497C86.4177 22.1011 87.4163 19.9432 89.3594 19.23C91.3025 18.5167 93.4543 19.5181 94.1655 21.4667C94.865 23.3829 95.5186 25.3212 96.1252 27.2804C98.7411 35.7302 100.48 44.5656 101.235 53.6784C103.818 56.3758 105.412 60.046 105.412 64.087C105.412 68.1279 103.818 71.7981 101.235 74.4955C100.48 83.6083 98.7411 92.4437 96.1252 100.894C95.5186 102.853 94.865 104.791 94.1655 106.707C93.4543 108.656 91.3025 109.657 89.3594 108.944C87.4163 108.231 86.4177 106.073 87.1289 104.124C87.4217 103.322 87.705 102.515 87.9806 101.705M87.9807 26.4688V26.4688ZM87.9806 101.705V101.705ZM48.0935 37.351C59.6618 36.35 70.7432 33.6489 81.0898 29.4981C84.7149 40.3655 86.6787 51.9962 86.6787 64.0869C86.6787 76.1776 84.7149 87.8083 81.0897 98.6758C72.401 95.1901 63.1941 92.7267 53.6158 91.434C54.5289 94.1812 55.576 96.867 56.7492 99.4839C58.7154 103.869 57.2888 109.303 52.8924 111.848L49.6138 113.746C45.0755 116.374 39.0304 114.789 36.7122 109.761C33.8169 103.481 31.4999 96.8772 29.8301 90.0192C17.4387 87.922 8 77.1099 8 64.087C8 49.5618 19.7419 37.7868 34.2262 37.7868H37.9729C41.3836 37.7868 44.7591 37.6395 48.0935 37.351Z" stroke="white" stroke-opacity="0.1" stroke-width="10" shape-rendering="crispEdges"/>
</g>
<g filter="url(#filter1_bdd_2441_2332)">
<path d="M81.0898 29.4981C70.7432 33.6489 59.6618 36.35 48.0935 37.351C44.7591 37.6395 41.3836 37.7868 37.9729 37.7868H34.2262C19.7419 37.7868 8 49.5618 8 64.087C8 77.1099 17.4387 87.922 29.8301 90.0192C31.4999 96.8772 33.8169 103.481 36.7122 109.761C39.0304 114.789 45.0755 116.374 49.6138 113.746L52.8924 111.848C57.2888 109.303 58.7154 103.869 56.7492 99.4839C55.576 96.867 54.5289 94.1812 53.6158 91.434C63.1941 92.7267 72.401 95.1901 81.0897 98.6758C84.7149 87.8083 86.6787 76.1776 86.6787 64.0869C86.6787 51.9962 84.7149 40.3655 81.0898 29.4981Z" fill="white"/>
<path d="M87.9807 26.4688C91.9943 38.2697 94.1719 50.9233 94.1719 64.0869C94.1719 77.2505 91.9943 89.9041 87.9806 101.705V101.705C87.705 102.515 87.4217 103.322 87.1289 104.124C86.4177 106.073 87.4163 108.231 89.3594 108.944C91.3025 109.657 93.4543 108.656 94.1655 106.707C94.865 104.791 95.5186 102.853 96.1252 100.894C98.7411 92.4437 100.48 83.6083 101.235 74.4955C103.818 71.7981 105.412 68.1279 105.412 64.087C105.412 60.046 103.818 56.3758 101.235 53.6784C100.48 44.5656 98.7411 35.7302 96.1252 27.2804C95.5186 25.3212 94.865 23.3829 94.1655 21.4667C93.4543 19.5181 91.3025 18.5167 89.3594 19.23C87.4163 19.9432 86.4177 22.1011 87.1289 24.0497C87.4217 24.8518 87.7051 25.6585 87.9807 26.4688V26.4688Z" fill="white"/>
</g>
<g opacity="0.9" filter="url(#filter2_bdd_2441_2332)">
<g clip-path="url(#clip2_2441_2332)">
<path d="M234.284 79.5522L210.857 83.4864C208.703 83.848 207.246 85.8933 207.608 88.0466L211.542 111.474C211.904 113.627 213.949 115.084 216.102 114.722L239.529 110.788C241.683 110.427 243.14 108.381 242.778 106.228L238.844 82.801C238.482 80.6477 236.437 79.1906 234.284 79.5522Z" fill="#1976D2"/>
<path fill-rule="evenodd" clip-rule="evenodd" d="M235.93 95.3341L231.05 96.1538L230.394 92.2493C230.213 91.1716 231.105 91.1262 232.182 90.9453L234.135 90.6174L233.315 85.7368L229.411 86.3925C227.857 86.6533 226.471 87.5206 225.557 88.8034C224.643 90.0862 224.277 91.6795 224.537 93.2328L225.193 97.1373L221.289 97.793L222.108 102.674L226.013 102.018L227.816 112.755L233.673 111.772L231.869 101.034L234.798 100.543L235.93 95.3341Z" fill="#FAFAFA"/>
</g>
</g>
<g opacity="0.9" filter="url(#filter3_bdd_2441_2332)">
<path d="M297.181 30.6457C297.51 28.7666 297.601 27.3692 297.527 25.8905L276.484 22.2002L274.997 30.6812L287.349 32.8473C286.73 34.9113 284.829 37.8496 281.466 39.4584L281.375 39.735L287.106 46.1574L287.559 46.2852C292.491 43.0409 295.96 37.6032 297.181 30.6457Z" fill="#4285F4"/>
<path d="M271.746 49.2178C277.797 50.2791 283.234 49.1385 287.559 46.2852L281.466 39.4584C279.338 40.4723 276.633 40.9663 273.296 40.3811C267.369 39.3417 263.038 34.473 262.211 28.6484L261.945 28.6251L254.069 32.8712L253.934 33.1118C256.31 41.2235 262.981 47.6806 271.746 49.2178Z" fill="#34A853"/>
<path d="M262.212 28.6487C261.988 27.1437 261.981 25.572 262.257 23.9978C262.533 22.4233 263.074 20.9479 263.772 19.6045L263.813 19.2995L257.781 12.5239L257.532 12.5949C255.47 15.4264 253.988 18.7524 253.342 22.4343C252.696 26.1162 252.958 29.7477 253.934 33.1121L262.212 28.6487Z" fill="#FBBC05"/>
<path d="M278.212 12.3478C282.421 13.0859 284.934 15.4374 286.282 17.2703L293.711 12.0822C290.472 7.71901 285.813 4.57249 279.762 3.51127C270.996 1.97399 262.527 5.7756 257.532 12.5946L263.772 19.6043C266.556 14.4129 272.286 11.3084 278.212 12.3478Z" fill="#EB4335"/>
</g>
<defs>
<filter id="filter0_bdd_2441_2332" x="-5" y="5.99829" width="123.412" height="121.995" filterUnits="userSpaceOnUse" color-interpolation-filters="sRGB">
<feFlood flood-opacity="0" result="BackgroundImageFix"/>
<feGaussianBlur in="BackgroundImageFix" stdDeviation="4"/>
<feComposite in2="SourceAlpha" operator="in" result="effect1_backgroundBlur_2441_2332"/>
<feColorMatrix in="SourceAlpha" type="matrix" values="0 0 0 0 0 0 0 0 0 0 0 0 0 0 0 0 0 0 127 0" result="hardAlpha"/>
<feOffset dy="1"/>
<feGaussianBlur stdDeviation="1"/>
<feComposite in2="hardAlpha" operator="out"/>
<feColorMatrix type="matrix" values="0 0 0 0 0 0 0 0 0 0 0 0 0 0 0 0 0 0 0.06 0"/>
<feBlend mode="normal" in2="effect1_backgroundBlur_2441_2332" result="effect2_dropShadow_2441_2332"/>
<feColorMatrix in="SourceAlpha" type="matrix" values="0 0 0 0 0 0 0 0 0 0 0 0 0 0 0 0 0 0 127 0" result="hardAlpha"/>
<feOffset dy="1"/>
<feGaussianBlur stdDeviation="1.5"/>
<feComposite in2="hardAlpha" operator="out"/>
<feColorMatrix type="matrix" values="0 0 0 0 0 0 0 0 0 0 0 0 0 0 0 0 0 0 0.1 0"/>
<feBlend mode="normal" in2="effect2_dropShadow_2441_2332" result="effect3_dropShadow_2441_2332"/>
<feBlend mode="normal" in="SourceGraphic" in2="effect3_dropShadow_2441_2332" result="shape"/>
</filter>
<filter id="filter1_bdd_2441_2332" x="0" y="11" width="113.412" height="112" filterUnits="userSpaceOnUse" color-interpolation-filters="sRGB">
<feFlood flood-opacity="0" result="BackgroundImageFix"/>
<feGaussianBlur in="BackgroundImageFix" stdDeviation="4"/>
<feComposite in2="SourceAlpha" operator="in" result="effect1_backgroundBlur_2441_2332"/>
<feColorMatrix in="SourceAlpha" type="matrix" values="0 0 0 0 0 0 0 0 0 0 0 0 0 0 0 0 0 0 127 0" result="hardAlpha"/>
<feOffset dy="1"/>
<feGaussianBlur stdDeviation="1"/>
<feComposite in2="hardAlpha" operator="out"/>
<feColorMatrix type="matrix" values="0 0 0 0 0 0 0 0 0 0 0 0 0 0 0 0 0 0 0.06 0"/>
<feBlend mode="normal" in2="effect1_backgroundBlur_2441_2332" result="effect2_dropShadow_2441_2332"/>
<feColorMatrix in="SourceAlpha" type="matrix" values="0 0 0 0 0 0 0 0 0 0 0 0 0 0 0 0 0 0 127 0" result="hardAlpha"/>
<feOffset dy="1"/>
<feGaussianBlur stdDeviation="1.5"/>
<feComposite in2="hardAlpha" operator="out"/>
<feColorMatrix type="matrix" values="0 0 0 0 0 0 0 0 0 0 0 0 0 0 0 0 0 0 0.1 0"/>
<feBlend mode="normal" in2="effect2_dropShadow_2441_2332" result="effect3_dropShadow_2441_2332"/>
<feBlend mode="normal" in="SourceGraphic" in2="effect3_dropShadow_2441_2332" result="shape"/>
</filter>
<filter id="filter2_bdd_2441_2332" x="194.952" y="66.8965" width="60.4816" height="60.4817" filterUnits="userSpaceOnUse" color-interpolation-filters="sRGB">
<feFlood flood-opacity="0" result="BackgroundImageFix"/>
<feGaussianBlur in="BackgroundImageFix" stdDeviation="6"/>
<feComposite in2="SourceAlpha" operator="in" result="effect1_backgroundBlur_2441_2332"/>
<feColorMatrix in="SourceAlpha" type="matrix" values="0 0 0 0 0 0 0 0 0 0 0 0 0 0 0 0 0 0 127 0" result="hardAlpha"/>
<feMorphology radius="1" operator="erode" in="SourceAlpha" result="effect2_dropShadow_2441_2332"/>
<feOffset dy="2"/>
<feGaussianBlur stdDeviation="2"/>
<feComposite in2="hardAlpha" operator="out"/>
<feColorMatrix type="matrix" values="0 0 0 0 0.08125 0 0 0 0 0.09 0 0 0 0 0.3 0 0 0 0.06 0"/>
<feBlend mode="normal" in2="effect1_backgroundBlur_2441_2332" result="effect2_dropShadow_2441_2332"/>
<feColorMatrix in="SourceAlpha" type="matrix" values="0 0 0 0 0 0 0 0 0 0 0 0 0 0 0 0 0 0 127 0" result="hardAlpha"/>
<feMorphology radius="1" operator="erode" in="SourceAlpha" result="effect3_dropShadow_2441_2332"/>
<feOffset dy="4"/>
<feGaussianBlur stdDeviation="3"/>
<feComposite in2="hardAlpha" operator="out"/>
<feColorMatrix type="matrix" values="0 0 0 0 0.10625 0 0 0 0 0.137875 0 0 0 0 0.25 0 0 0 0.1 0"/>
<feBlend mode="normal" in2="effect2_dropShadow_2441_2332" result="effect3_dropShadow_2441_2332"/>
<feBlend mode="normal" in="SourceGraphic" in2="effect3_dropShadow_2441_2332" result="shape"/>
</filter>
<filter id="filter3_bdd_2441_2332" x="240.988" y="-8.828" width="68.5629" height="70.4366" filterUnits="userSpaceOnUse" color-interpolation-filters="sRGB">
<feFlood flood-opacity="0" result="BackgroundImageFix"/>
<feGaussianBlur in="BackgroundImageFix" stdDeviation="6"/>
<feComposite in2="SourceAlpha" operator="in" result="effect1_backgroundBlur_2441_2332"/>
<feColorMatrix in="SourceAlpha" type="matrix" values="0 0 0 0 0 0 0 0 0 0 0 0 0 0 0 0 0 0 127 0" result="hardAlpha"/>
<feMorphology radius="1" operator="erode" in="SourceAlpha" result="effect2_dropShadow_2441_2332"/>
<feOffset dy="2"/>
<feGaussianBlur stdDeviation="2"/>
<feComposite in2="hardAlpha" operator="out"/>
<feColorMatrix type="matrix" values="0 0 0 0 0.08125 0 0 0 0 0.09 0 0 0 0 0.3 0 0 0 0.06 0"/>
<feBlend mode="normal" in2="effect1_backgroundBlur_2441_2332" result="effect2_dropShadow_2441_2332"/>
<feColorMatrix in="SourceAlpha" type="matrix" values="0 0 0 0 0 0 0 0 0 0 0 0 0 0 0 0 0 0 127 0" result="hardAlpha"/>
<feMorphology radius="1" operator="erode" in="SourceAlpha" result="effect3_dropShadow_2441_2332"/>
<feOffset dy="4"/>
<feGaussianBlur stdDeviation="3"/>
<feComposite in2="hardAlpha" operator="out"/>
<feColorMatrix type="matrix" values="0 0 0 0 0.10625 0 0 0 0 0.137875 0 0 0 0 0.25 0 0 0 0.1 0"/>
<feBlend mode="normal" in2="effect2_dropShadow_2441_2332" result="effect3_dropShadow_2441_2332"/>
<feBlend mode="normal" in="SourceGraphic" in2="effect3_dropShadow_2441_2332" result="shape"/>
</filter>
<linearGradient id="paint0_linear_2441_2332" x1="127" y1="68.0005" x2="155.812" y2="68.0005" gradientUnits="userSpaceOnUse">
<stop stop-color="#FFCFA3"/>
<stop offset="0.192708" stop-color="#C176FC"/>
<stop offset="0.609375" stop-color="#9076FC"/>
<stop offset="1" stop-color="#C6B8FF"/>
</linearGradient>
<linearGradient id="paint1_linear_2441_2332" x1="-1.08631" y1="5.88109" x2="34.6265" y2="8.02541" gradientUnits="userSpaceOnUse">
<stop stop-color="#FFCFA3"/>
<stop offset="0.192708" stop-color="#C176FC"/>
<stop offset="0.609375" stop-color="#9076FC"/>
<stop offset="1" stop-color="#C6B8FF"/>
</linearGradient>
<linearGradient id="paint2_linear_2441_2332" x1="-1.08631" y1="5.88109" x2="34.6265" y2="8.02541" gradientUnits="userSpaceOnUse">
<stop stop-color="#FFCFA3"/>
<stop offset="0.192708" stop-color="#C176FC"/>
<stop offset="0.609375" stop-color="#9076FC"/>
<stop offset="1" stop-color="#C6B8FF"/>
</linearGradient>
<linearGradient id="paint3_linear_2441_2332" x1="56.7059" y1="19" x2="56.7059" y2="115" gradientUnits="userSpaceOnUse">
<stop stop-color="white"/>
<stop offset="0.315" stop-color="#CCDDFF"/>
<stop offset="1" stop-color="#C1B1FF"/>
</linearGradient>
<linearGradient id="paint4_linear_2441_2332" x1="56.7059" y1="19" x2="56.7059" y2="115" gradientUnits="userSpaceOnUse">
<stop stop-color="white"/>
<stop offset="0.315" stop-color="#CCDDFF"/>
<stop offset="1" stop-color="#C1B1FF"/>
</linearGradient>
<linearGradient id="paint5_linear_2441_2332" x1="56.7059" y1="19" x2="56.7059" y2="115" gradientUnits="userSpaceOnUse">
<stop stop-color="white"/>
<stop offset="1" stop-color="white" stop-opacity="0"/>
</linearGradient>
<clipPath id="clip0_2441_2332">
<rect width="21.0105" height="21.0105" fill="white" transform="translate(273.54 67.2864) rotate(12.5743)"/>
</clipPath>
<clipPath id="clip1_2441_2332">
<rect width="16.8216" height="16.8216" fill="white" transform="translate(179 45.9939) rotate(-6.26945)"/>
</clipPath>
<clipPath id="clip2_2441_2332">
<rect x="206.952" y="84.1421" width="31.6734" height="31.6734" rx="4" transform="rotate(-9.53294 206.952 84.1421)" fill="white"/>
</clipPath>
</defs>
</svg>
