<svg viewBox="0 0 505 158" fill="none" xmlns="http://www.w3.org/2000/svg">
<g opacity="0.9" filter="url(#filter0_bdd_2441_2329)">
<rect x="5" y="1" width="198" height="148" rx="12" fill="url(#paint0_linear_2441_2329)" shape-rendering="crispEdges"/>
<g filter="url(#filter1_bdd_2441_2329)">
<rect x="11" y="7" width="186" height="136" rx="8" fill="url(#paint1_linear_2441_2329)" shape-rendering="crispEdges"/>
<rect x="10.5" y="6.5" width="187" height="137" rx="8.5" stroke="url(#paint2_linear_2441_2329)" style="mix-blend-mode:overlay" shape-rendering="crispEdges"/>
<rect x="10.5" y="6.5" width="187" height="137" rx="8.5" stroke="white" stroke-opacity="0.1" shape-rendering="crispEdges"/>
<circle cx="19" cy="15" r="2" fill="#D1D5DB"/>
<circle cx="26" cy="15" r="2" fill="#D1D5DB"/>
<circle cx="33" cy="15" r="2" fill="#D1D5DB"/>
<rect x="54" y="13" width="100" height="4" fill="#D1D5DB"/>
<rect x="104" y="38" width="38" height="5" rx="2.5" fill="#9CA3AF"/>
<rect x="104" y="47" width="76" height="2" fill="#D1D5DB"/>
<rect x="104" y="53" width="62" height="2" fill="#D1D5DB"/>
<rect x="104" y="59" width="22" height="6" rx="3" fill="#7857FF"/>
<rect x="109" y="61" width="12" height="2" rx="1" fill="#A78BFA"/>
<rect x="28" y="29" width="62" height="50" rx="8" fill="#F3F4F6"/>
<path d="M65.7869 58.2108C66.14 58.6293 66.2838 59.185 66.1923 59.7212L66.0354 60.6497H51.8992L51.7423 59.7147C51.6442 59.185 51.7881 58.6293 52.1411 58.2108C52.4942 57.7924 53.0108 57.5504 53.56 57.5504H58.3134V55.7327C58.1565 55.7654 57.9865 55.7916 57.8165 55.7981C57.7381 55.7981 57.6596 55.8047 57.5811 55.8047C55.8354 55.8047 54.2727 54.7912 53.6842 53.2939C52.9911 51.5285 53.73 49.7174 53.7627 49.6454C53.8542 49.4231 54.0634 49.2662 54.3054 49.2466C54.5408 49.2204 54.7761 49.3316 54.9069 49.5343C55.43 50.3189 56.4042 50.842 56.7965 51.0316C57.2215 51.2343 57.5811 51.45 57.8884 51.692C58.0454 51.8097 58.1827 51.9339 58.3134 52.0581V47.455C57.0188 47.3047 55.9138 46.7031 55.1619 45.7289C54.3119 44.6239 54.0177 43.1397 54.3838 41.7666L55.0377 39.295C55.1619 38.8374 55.5738 38.5235 56.0446 38.5235C56.4108 38.5235 56.7442 38.7066 56.9338 39.027C56.9534 39.0597 56.9731 39.0989 56.9861 39.1381L57.4569 40.4131L57.9996 38.955C58.0131 38.9183 58.0306 38.8832 58.0519 38.8504C58.2481 38.5104 58.5881 38.3077 58.9608 38.3077C59.34 38.3077 59.68 38.5104 59.8761 38.8504C59.8958 38.8831 59.9154 38.9224 59.9284 38.955L60.4646 40.4131L60.9419 39.1316C60.955 39.0924 60.9746 39.0531 60.9942 39.0204C61.1838 38.7066 61.5173 38.517 61.8834 38.517C62.3542 38.517 62.7661 38.8374 62.8904 39.2885L63.5442 41.7666C63.9104 43.1397 63.6161 44.6239 62.7661 45.7289C62.0142 46.7031 60.9092 47.3047 59.6211 47.455V48.6777C59.987 48.3003 60.4028 47.9747 60.8569 47.71C61.2754 47.4616 61.7461 47.2524 62.2954 47.0693C62.825 46.8862 64.1523 46.3631 64.9565 45.4281C65.0328 45.3371 65.1326 45.2687 65.245 45.2305C65.3575 45.1922 65.4782 45.1856 65.5942 45.2112C65.7102 45.2368 65.8169 45.2937 65.9027 45.3758C65.9886 45.4579 66.0503 45.5619 66.0811 45.6766C66.1073 45.7747 66.7415 48.0762 65.6431 50.1227C64.8258 51.6397 63.0865 52.627 61.21 52.627C60.8961 52.627 60.5823 52.5943 60.2684 52.542C60.0396 52.5027 59.8238 52.4439 59.6211 52.3654V57.5504H64.3681C64.9173 57.5504 65.4338 57.7924 65.7869 58.2108Z" fill="#7857FF"/>
<path d="M53.1481 68.1623C53.2184 68.59 53.4385 68.9788 53.7691 69.2591C54.0997 69.5394 54.5193 69.6929 54.9527 69.6923H62.9754C63.8777 69.6923 64.6362 69.045 64.7865 68.1623L65.8196 61.9586H52.117L53.1494 68.1623H53.1481Z" fill="#7857FF"/>
<path d="M32 93C32 88.5817 35.5817 85 40 85H172C176.418 85 180 88.5817 180 93V135H32V93Z" fill="url(#paint3_linear_2441_2329)" fill-opacity="0.6"/>
</g>
</g>
<g filter="url(#filter2_bdd_2441_2329)">
<rect x="284" y="5" width="40" height="40" rx="20" stroke="url(#paint4_linear_2441_2329)" stroke-opacity="0.4" stroke-width="4" shape-rendering="crispEdges"/>
<g filter="url(#filter3_bdd_2441_2329)">
<rect x="286" y="7" width="36" height="36" rx="18" fill="url(#paint5_linear_2441_2329)" shape-rendering="crispEdges"/>
<rect x="285.5" y="6.5" width="37" height="37" rx="18.5" stroke="url(#paint6_linear_2441_2329)" style="mix-blend-mode:overlay" shape-rendering="crispEdges"/>
<rect x="285.5" y="6.5" width="37" height="37" rx="18.5" stroke="white" stroke-opacity="0.1" shape-rendering="crispEdges"/>
<path d="M307.28 22.7803L310.5 19.5607V22.25C310.5 22.6642 310.836 23 311.25 23C311.664 23 312 22.6642 312 22.25V17.75C312 17.3358 311.664 17 311.25 17H306.75C306.336 17 306 17.3358 306 17.75C306 18.1642 306.336 18.5 306.75 18.5H309.439L306.22 21.7197C305.927 22.0126 305.927 22.4874 306.22 22.7803C306.513 23.0732 306.987 23.0732 307.28 22.7803Z" fill="#0F172A"/>
<path d="M296 32.25V27.75C296 27.3358 296.336 27 296.75 27C297.164 27 297.5 27.3358 297.5 27.75V30.4393L300.72 27.2197C301.013 26.9268 301.487 26.9268 301.78 27.2197C302.073 27.5126 302.073 27.9874 301.78 28.2803L298.561 31.5H301.25C301.664 31.5 302 31.8358 302 32.25C302 32.6642 301.664 33 301.25 33H296.75C296.558 33 296.366 32.9268 296.22 32.7803C296.148 32.7084 296.094 32.6255 296.057 32.5371C296.02 32.4487 296 32.3517 296 32.25Z" fill="#0F172A"/>
<path d="M306.22 28.2803L309.439 31.5H306.75C306.336 31.5 306 31.8358 306 32.25C306 32.6642 306.336 33 306.75 33H311.25C311.442 33 311.634 32.9268 311.78 32.7803C311.852 32.7084 311.906 32.6255 311.943 32.5371C311.98 32.4487 312 32.3517 312 32.25V27.75C312 27.3358 311.664 27 311.25 27C310.836 27 310.5 27.3358 310.5 27.75V30.4393L307.28 27.2197C306.987 26.9268 306.513 26.9268 306.22 27.2197C305.927 27.5126 305.927 27.9874 306.22 28.2803Z" fill="#0F172A"/>
<path d="M297.5 19.5607L300.72 22.7803C301.013 23.0732 301.487 23.0732 301.78 22.7803C302.073 22.4874 302.073 22.0126 301.78 21.7197L298.561 18.5H301.25C301.664 18.5 302 18.1642 302 17.75C302 17.3358 301.664 17 301.25 17H296.75C296.336 17 296 17.3358 296 17.75V22.25C296 22.6642 296.336 23 296.75 23C297.164 23 297.5 22.6642 297.5 22.25V19.5607Z" fill="#0F172A"/>
</g>
</g>
<path d="M349.575 23.1293H348.024C347.964 22.7978 347.853 22.5062 347.691 22.2543C347.529 22.0024 347.33 21.7886 347.094 21.6129C346.859 21.4373 346.596 21.3047 346.304 21.2152C346.016 21.1257 345.709 21.081 345.384 21.081C344.798 21.081 344.272 21.2285 343.808 21.5234C343.348 21.8184 342.983 22.2509 342.714 22.821C342.449 23.3911 342.317 24.0871 342.317 24.9091C342.317 25.7377 342.449 26.437 342.714 27.0071C342.983 27.5772 343.349 28.008 343.813 28.2997C344.277 28.5914 344.799 28.7372 345.379 28.7372C345.701 28.7372 346.006 28.6941 346.294 28.608C346.586 28.5185 346.849 28.3875 347.085 28.2152C347.32 28.0429 347.519 27.8324 347.681 27.5838C347.847 27.3319 347.961 27.0436 348.024 26.7188L349.575 26.7237C349.492 27.2242 349.332 27.6849 349.093 28.1058C348.858 28.5234 348.554 28.8847 348.183 29.1896C347.815 29.4912 347.394 29.7249 346.92 29.8906C346.446 30.0563 345.929 30.1392 345.369 30.1392C344.488 30.1392 343.702 29.9304 343.013 29.5128C342.323 29.0919 341.78 28.4903 341.382 27.7081C340.988 26.9259 340.79 25.9929 340.79 24.9091C340.79 23.822 340.989 22.889 341.387 22.1101C341.785 21.3279 342.328 20.728 343.018 20.3104C343.707 19.8894 344.491 19.679 345.369 19.679C345.91 19.679 346.413 19.7569 346.881 19.9126C347.351 20.0651 347.774 20.2905 348.148 20.5888C348.523 20.8838 348.833 21.245 349.078 21.6726C349.323 22.0968 349.489 22.5824 349.575 23.1293ZM354.511 30.1541C353.795 30.1541 353.17 29.9901 352.637 29.6619C352.103 29.3338 351.689 28.8748 351.394 28.2848C351.099 27.6948 350.951 27.0054 350.951 26.2166C350.951 25.4245 351.099 24.7318 351.394 24.1385C351.689 23.5452 352.103 23.0845 352.637 22.7564C353.17 22.4283 353.795 22.2642 354.511 22.2642C355.227 22.2642 355.852 22.4283 356.385 22.7564C356.919 23.0845 357.333 23.5452 357.628 24.1385C357.923 24.7318 358.07 25.4245 358.07 26.2166C358.07 27.0054 357.923 27.6948 357.628 28.2848C357.333 28.8748 356.919 29.3338 356.385 29.6619C355.852 29.9901 355.227 30.1541 354.511 30.1541ZM354.516 28.9062C354.98 28.9062 355.364 28.7836 355.669 28.5384C355.974 28.2931 356.2 27.9666 356.345 27.5589C356.494 27.1513 356.569 26.7022 356.569 26.2116C356.569 25.7244 356.494 25.277 356.345 24.8693C356.2 24.4583 355.974 24.1286 355.669 23.88C355.364 23.6314 354.98 23.5071 354.516 23.5071C354.048 23.5071 353.661 23.6314 353.352 23.88C353.048 24.1286 352.82 24.4583 352.671 24.8693C352.526 25.277 352.453 25.7244 352.453 26.2116C352.453 26.7022 352.526 27.1513 352.671 27.5589C352.82 27.9666 353.048 28.2931 353.352 28.5384C353.661 28.7836 354.048 28.9062 354.516 28.9062ZM361.216 25.4659V30H359.73V22.3636H361.157V23.6065H361.251C361.427 23.2022 361.702 22.8774 362.076 22.6321C362.454 22.3868 362.93 22.2642 363.503 22.2642C364.024 22.2642 364.479 22.3736 364.87 22.5923C365.261 22.8078 365.565 23.1293 365.78 23.5568C365.996 23.9844 366.103 24.513 366.103 25.1428V30H364.617V25.3217C364.617 24.7682 364.473 24.3357 364.184 24.0241C363.896 23.7093 363.5 23.5518 362.996 23.5518C362.651 23.5518 362.345 23.6264 362.076 23.7756C361.811 23.9247 361.601 24.1435 361.445 24.4318C361.292 24.7169 361.216 25.0616 361.216 25.4659ZM374.356 22.3636L371.587 30H369.996L367.222 22.3636H368.818L370.752 28.2401H370.831L372.76 22.3636H374.356ZM378.785 30.1541C378.032 30.1541 377.384 29.9934 376.841 29.6719C376.3 29.3471 375.883 28.8913 375.588 28.3047C375.296 27.7147 375.15 27.0237 375.15 26.2315C375.15 25.4493 375.296 24.7599 375.588 24.1634C375.883 23.5668 376.294 23.1011 376.821 22.7663C377.351 22.4316 377.971 22.2642 378.68 22.2642C379.111 22.2642 379.529 22.3355 379.933 22.478C380.337 22.6205 380.7 22.8442 381.022 23.1491C381.343 23.4541 381.597 23.8501 381.782 24.3374C381.968 24.8213 382.061 25.4096 382.061 26.1023V26.6293H375.991V25.5156H380.604C380.604 25.1245 380.525 24.7782 380.366 24.4766C380.206 24.1716 379.983 23.9313 379.694 23.7557C379.409 23.58 379.075 23.4922 378.69 23.4922C378.273 23.4922 377.908 23.5949 377.596 23.8004C377.288 24.0026 377.05 24.2678 376.881 24.5959C376.715 24.9207 376.632 25.2737 376.632 25.6548V26.5249C376.632 27.0353 376.721 27.4695 376.9 27.8274C377.083 28.1854 377.336 28.4588 377.661 28.6477C377.986 28.8333 378.365 28.9261 378.8 28.9261C379.081 28.9261 379.338 28.8864 379.57 28.8068C379.802 28.724 380.003 28.6013 380.172 28.4389C380.341 28.2765 380.47 28.076 380.559 27.8374L381.966 28.0909C381.854 28.5052 381.652 28.8681 381.36 29.1797C381.072 29.4879 380.709 29.7282 380.271 29.9006C379.837 30.0696 379.341 30.1541 378.785 30.1541ZM383.71 30V22.3636H385.147V23.5767H385.227C385.366 23.1657 385.611 22.8426 385.962 22.6072C386.317 22.3686 386.718 22.2493 387.165 22.2493C387.258 22.2493 387.368 22.2526 387.494 22.2592C387.623 22.2659 387.724 22.2741 387.797 22.2841V23.706C387.737 23.6894 387.631 23.6712 387.479 23.6513C387.326 23.6281 387.174 23.6165 387.021 23.6165C386.67 23.6165 386.357 23.6911 386.082 23.8402C385.81 23.986 385.594 24.1899 385.435 24.4517C385.276 24.7102 385.197 25.0052 385.197 25.3366V30H383.71ZM394.806 24.228L393.458 24.4666C393.402 24.2943 393.312 24.1302 393.19 23.9744C393.07 23.8187 392.908 23.6911 392.703 23.5916C392.497 23.4922 392.24 23.4425 391.932 23.4425C391.511 23.4425 391.16 23.5369 390.878 23.7259C390.596 23.9115 390.455 24.1518 390.455 24.4467C390.455 24.7019 390.55 24.9074 390.739 25.0632C390.928 25.219 391.233 25.3466 391.654 25.446L392.867 25.7244C393.569 25.8868 394.093 26.1371 394.438 26.4751C394.782 26.8132 394.955 27.2524 394.955 27.7926C394.955 28.25 394.822 28.6577 394.557 29.0156C394.295 29.3703 393.929 29.6487 393.458 29.8509C392.991 30.053 392.449 30.1541 391.833 30.1541C390.977 30.1541 390.28 29.9718 389.74 29.6072C389.199 29.2393 388.868 28.7173 388.745 28.0412L390.182 27.8224C390.271 28.197 390.455 28.4804 390.734 28.6726C391.012 28.8615 391.375 28.956 391.823 28.956C392.31 28.956 392.699 28.8549 392.991 28.6527C393.283 28.4472 393.428 28.197 393.428 27.902C393.428 27.6634 393.339 27.4628 393.16 27.3004C392.984 27.138 392.714 27.0154 392.35 26.9325L391.057 26.6491C390.344 26.4867 389.817 26.2282 389.476 25.8736C389.138 25.5189 388.969 25.0698 388.969 24.5263C388.969 24.0755 389.095 23.6811 389.347 23.343C389.599 23.005 389.947 22.7415 390.391 22.5526C390.835 22.3603 391.344 22.2642 391.917 22.2642C392.742 22.2642 393.392 22.4432 393.866 22.8011C394.34 23.1558 394.653 23.6314 394.806 24.228ZM396.589 30V22.3636H398.076V30H396.589ZM397.34 21.1854C397.081 21.1854 396.859 21.0992 396.674 20.9268C396.491 20.7512 396.4 20.5424 396.4 20.3004C396.4 20.0552 396.491 19.8464 396.674 19.674C396.859 19.4983 397.081 19.4105 397.34 19.4105C397.598 19.4105 397.819 19.4983 398.001 19.674C398.187 19.8464 398.279 20.0552 398.279 20.3004C398.279 20.5424 398.187 20.7512 398.001 20.9268C397.819 21.0992 397.598 21.1854 397.34 21.1854ZM403.367 30.1541C402.614 30.1541 401.966 29.9934 401.423 29.6719C400.883 29.3471 400.465 28.8913 400.17 28.3047C399.878 27.7147 399.732 27.0237 399.732 26.2315C399.732 25.4493 399.878 24.7599 400.17 24.1634C400.465 23.5668 400.876 23.1011 401.403 22.7663C401.933 22.4316 402.553 22.2642 403.262 22.2642C403.693 22.2642 404.111 22.3355 404.515 22.478C404.919 22.6205 405.282 22.8442 405.604 23.1491C405.925 23.4541 406.179 23.8501 406.365 24.3374C406.55 24.8213 406.643 25.4096 406.643 26.1023V26.6293H400.573V25.5156H405.186C405.186 25.1245 405.107 24.7782 404.948 24.4766C404.789 24.1716 404.565 23.9313 404.276 23.7557C403.991 23.58 403.657 23.4922 403.272 23.4922C402.855 23.4922 402.49 23.5949 402.178 23.8004C401.87 24.0026 401.632 24.2678 401.463 24.5959C401.297 24.9207 401.214 25.2737 401.214 25.6548V26.5249C401.214 27.0353 401.303 27.4695 401.482 27.8274C401.665 28.1854 401.918 28.4588 402.243 28.6477C402.568 28.8333 402.947 28.9261 403.382 28.9261C403.663 28.9261 403.92 28.8864 404.152 28.8068C404.384 28.724 404.585 28.6013 404.754 28.4389C404.923 28.2765 405.052 28.076 405.142 27.8374L406.548 28.0909C406.436 28.5052 406.234 28.8681 405.942 29.1797C405.654 29.4879 405.291 29.7282 404.853 29.9006C404.419 30.0696 403.923 30.1541 403.367 30.1541ZM415.214 30.1541C414.498 30.1541 413.873 29.9901 413.34 29.6619C412.806 29.3338 412.392 28.8748 412.097 28.2848C411.802 27.6948 411.654 27.0054 411.654 26.2166C411.654 25.4245 411.802 24.7318 412.097 24.1385C412.392 23.5452 412.806 23.0845 413.34 22.7564C413.873 22.4283 414.498 22.2642 415.214 22.2642C415.93 22.2642 416.555 22.4283 417.088 22.7564C417.622 23.0845 418.036 23.5452 418.331 24.1385C418.626 24.7318 418.774 25.4245 418.774 26.2166C418.774 27.0054 418.626 27.6948 418.331 28.2848C418.036 28.8748 417.622 29.3338 417.088 29.6619C416.555 29.9901 415.93 30.1541 415.214 30.1541ZM415.219 28.9062C415.683 28.9062 416.067 28.7836 416.372 28.5384C416.677 28.2931 416.903 27.9666 417.048 27.5589C417.198 27.1513 417.272 26.7022 417.272 26.2116C417.272 25.7244 417.198 25.277 417.048 24.8693C416.903 24.4583 416.677 24.1286 416.372 23.88C416.067 23.6314 415.683 23.5071 415.219 23.5071C414.752 23.5071 414.364 23.6314 414.056 23.88C413.751 24.1286 413.524 24.4583 413.374 24.8693C413.229 25.277 413.156 25.7244 413.156 26.2116C413.156 26.7022 413.229 27.1513 413.374 27.5589C413.524 27.9666 413.751 28.2931 414.056 28.5384C414.364 28.7836 414.752 28.9062 415.219 28.9062ZM420.433 32.8636V22.3636H421.885V23.6016H422.009C422.095 23.4425 422.219 23.2585 422.382 23.0497C422.544 22.8409 422.77 22.6586 423.058 22.5028C423.346 22.3438 423.727 22.2642 424.201 22.2642C424.818 22.2642 425.368 22.42 425.852 22.7315C426.336 23.0431 426.715 23.4922 426.99 24.0788C427.269 24.6655 427.408 25.3714 427.408 26.1967C427.408 27.022 427.27 27.7296 426.995 28.3196C426.72 28.9062 426.342 29.3587 425.862 29.6768C425.381 29.9917 424.833 30.1491 424.216 30.1491C423.752 30.1491 423.373 30.0713 423.078 29.9155C422.786 29.7597 422.557 29.5774 422.392 29.3686C422.226 29.1598 422.098 28.9742 422.009 28.8118H421.919V32.8636H420.433ZM421.89 26.1818C421.89 26.7187 421.967 27.1894 422.123 27.5938C422.279 27.9981 422.504 28.3146 422.799 28.5433C423.094 28.7687 423.456 28.8814 423.883 28.8814C424.327 28.8814 424.699 28.7637 424.997 28.5284C425.295 28.2898 425.52 27.9666 425.673 27.5589C425.829 27.1513 425.907 26.6922 425.907 26.1818C425.907 25.678 425.83 25.2256 425.678 24.8246C425.529 24.4235 425.303 24.107 425.002 23.875C424.703 23.643 424.331 23.527 423.883 23.527C423.452 23.527 423.088 23.638 422.789 23.8601C422.494 24.0821 422.271 24.392 422.118 24.7898C421.966 25.1875 421.89 25.6515 421.89 26.1818ZM432.638 22.3636V23.5568H428.467V22.3636H432.638ZM429.586 20.5341H431.072V27.7578C431.072 28.0462 431.115 28.2633 431.201 28.4091C431.288 28.5516 431.399 28.6494 431.534 28.7024C431.674 28.7521 431.824 28.777 431.987 28.777C432.106 28.777 432.211 28.7687 432.3 28.7521C432.39 28.7356 432.459 28.7223 432.509 28.7124L432.777 29.9403C432.691 29.9735 432.569 30.0066 432.409 30.0398C432.25 30.0762 432.051 30.0961 431.813 30.0994C431.422 30.1061 431.057 30.0365 430.719 29.8906C430.381 29.7448 430.108 29.5194 429.899 29.2145C429.69 28.9096 429.586 28.5268 429.586 28.0661V20.5341ZM434.282 30V22.3636H435.769V30H434.282ZM435.033 21.1854C434.775 21.1854 434.553 21.0992 434.367 20.9268C434.185 20.7512 434.094 20.5424 434.094 20.3004C434.094 20.0552 434.185 19.8464 434.367 19.674C434.553 19.4983 434.775 19.4105 435.033 19.4105C435.292 19.4105 435.512 19.4983 435.694 19.674C435.88 19.8464 435.973 20.0552 435.973 20.3004C435.973 20.5424 435.88 20.7512 435.694 20.9268C435.512 21.0992 435.292 21.1854 435.033 21.1854ZM437.769 30V22.3636H439.196V23.6065H439.29C439.449 23.1856 439.709 22.8575 440.071 22.6222C440.432 22.3835 440.864 22.2642 441.368 22.2642C441.879 22.2642 442.306 22.3835 442.651 22.6222C442.999 22.8608 443.256 23.1889 443.422 23.6065H443.501C443.683 23.1989 443.973 22.8741 444.371 22.6321C444.769 22.3868 445.243 22.2642 445.793 22.2642C446.486 22.2642 447.051 22.4813 447.488 22.9155C447.929 23.3497 448.15 24.0043 448.15 24.8793V30H446.663V25.0185C446.663 24.5014 446.522 24.1269 446.24 23.8949C445.959 23.6629 445.622 23.5469 445.231 23.5469C444.747 23.5469 444.371 23.696 444.103 23.9943C443.834 24.2893 443.7 24.6688 443.7 25.1328V30H442.218V24.924C442.218 24.5097 442.089 24.1766 441.831 23.9247C441.572 23.6728 441.236 23.5469 440.821 23.5469C440.54 23.5469 440.279 23.6214 440.041 23.7706C439.806 23.9164 439.615 24.1203 439.469 24.3821C439.327 24.6439 439.255 24.9472 439.255 25.2919V30H437.769ZM452.364 30.169C451.88 30.169 451.443 30.0795 451.052 29.9006C450.661 29.7183 450.351 29.4548 450.122 29.1101C449.897 28.7654 449.784 28.3428 449.784 27.8423C449.784 27.4115 449.867 27.0568 450.032 26.7784C450.198 26.5 450.422 26.2796 450.704 26.1172C450.985 25.9548 451.3 25.8321 451.648 25.7493C451.996 25.6664 452.351 25.6035 452.712 25.5604C453.17 25.5073 453.541 25.4643 453.826 25.4311C454.111 25.3946 454.318 25.3366 454.447 25.2571C454.577 25.1776 454.641 25.0483 454.641 24.8693V24.8345C454.641 24.4003 454.519 24.0639 454.273 23.8253C454.031 23.5866 453.67 23.4673 453.189 23.4673C452.689 23.4673 452.295 23.5784 452.006 23.8004C451.721 24.0192 451.524 24.2628 451.415 24.5312L450.018 24.2131C450.183 23.7491 450.425 23.3745 450.743 23.0895C451.065 22.8011 451.434 22.5923 451.852 22.4631C452.27 22.3305 452.709 22.2642 453.17 22.2642C453.474 22.2642 453.798 22.3007 454.139 22.3736C454.484 22.4432 454.805 22.5724 455.104 22.7614C455.405 22.9503 455.652 23.2204 455.844 23.5717C456.037 23.9197 456.133 24.3722 456.133 24.929V30H454.681V28.956H454.621C454.525 29.1482 454.381 29.3371 454.189 29.5227C453.997 29.7083 453.75 29.8625 453.448 29.9851C453.146 30.1077 452.785 30.169 452.364 30.169ZM452.687 28.9759C453.098 28.9759 453.45 28.8946 453.741 28.7322C454.036 28.5698 454.26 28.3577 454.412 28.0959C454.568 27.8307 454.646 27.5473 454.646 27.2457V26.2614C454.593 26.3144 454.49 26.3641 454.338 26.4105C454.189 26.4536 454.018 26.4917 453.826 26.5249C453.634 26.5547 453.446 26.5829 453.264 26.6094C453.082 26.6326 452.929 26.6525 452.807 26.669C452.518 26.7055 452.255 26.7668 452.016 26.853C451.781 26.9392 451.592 27.0634 451.449 27.2259C451.31 27.3849 451.241 27.5971 451.241 27.8622C451.241 28.2301 451.376 28.5085 451.648 28.6974C451.92 28.883 452.266 28.9759 452.687 28.9759ZM459.599 19.8182V30H458.113V19.8182H459.599ZM461.599 30V22.3636H463.085V30H461.599ZM462.35 21.1854C462.091 21.1854 461.869 21.0992 461.683 20.9268C461.501 20.7512 461.41 20.5424 461.41 20.3004C461.41 20.0552 461.501 19.8464 461.683 19.674C461.869 19.4983 462.091 19.4105 462.35 19.4105C462.608 19.4105 462.829 19.4983 463.011 19.674C463.196 19.8464 463.289 20.0552 463.289 20.3004C463.289 20.5424 463.196 20.7512 463.011 20.9268C462.829 21.0992 462.608 21.1854 462.35 21.1854ZM464.926 30V28.9808L469.062 23.7259V23.6562H465.06V22.3636H470.917V23.4474L466.94 28.6378V28.7074H471.056V30H464.926ZM475.032 30.169C474.548 30.169 474.111 30.0795 473.72 29.9006C473.329 29.7183 473.019 29.4548 472.79 29.1101C472.565 28.7654 472.452 28.3428 472.452 27.8423C472.452 27.4115 472.535 27.0568 472.7 26.7784C472.866 26.5 473.09 26.2796 473.372 26.1172C473.653 25.9548 473.968 25.8321 474.316 25.7493C474.664 25.6664 475.019 25.6035 475.38 25.5604C475.838 25.5073 476.209 25.4643 476.494 25.4311C476.779 25.3946 476.986 25.3366 477.115 25.2571C477.244 25.1776 477.309 25.0483 477.309 24.8693V24.8345C477.309 24.4003 477.186 24.0639 476.941 23.8253C476.699 23.5866 476.338 23.4673 475.857 23.4673C475.357 23.4673 474.963 23.5784 474.674 23.8004C474.389 24.0192 474.192 24.2628 474.083 24.5312L472.686 24.2131C472.851 23.7491 473.093 23.3745 473.411 23.0895C473.733 22.8011 474.102 22.5923 474.52 22.4631C474.938 22.3305 475.377 22.2642 475.838 22.2642C476.142 22.2642 476.466 22.3007 476.807 22.3736C477.152 22.4432 477.473 22.5724 477.771 22.7614C478.073 22.9503 478.32 23.2204 478.512 23.5717C478.704 23.9197 478.801 24.3722 478.801 24.929V30H477.349V28.956H477.289C477.193 29.1482 477.049 29.3371 476.857 29.5227C476.664 29.7083 476.418 29.8625 476.116 29.9851C475.814 30.1077 475.453 30.169 475.032 30.169ZM475.355 28.9759C475.766 28.9759 476.118 28.8946 476.409 28.7322C476.704 28.5698 476.928 28.3577 477.08 28.0959C477.236 27.8307 477.314 27.5473 477.314 27.2457V26.2614C477.261 26.3144 477.158 26.3641 477.006 26.4105C476.857 26.4536 476.686 26.4917 476.494 26.5249C476.302 26.5547 476.114 26.5829 475.932 26.6094C475.75 26.6326 475.597 26.6525 475.475 26.669C475.186 26.7055 474.923 26.7668 474.684 26.853C474.449 26.9392 474.26 27.0634 474.117 27.2259C473.978 27.3849 473.909 27.5971 473.909 27.8622C473.909 28.2301 474.044 28.5085 474.316 28.6974C474.588 28.883 474.934 28.9759 475.355 28.9759ZM484.345 22.3636V23.5568H480.174V22.3636H484.345ZM481.293 20.5341H482.779V27.7578C482.779 28.0462 482.822 28.2633 482.908 28.4091C482.995 28.5516 483.106 28.6494 483.241 28.7024C483.381 28.7521 483.531 28.777 483.694 28.777C483.813 28.777 483.918 28.7687 484.007 28.7521C484.097 28.7356 484.166 28.7223 484.216 28.7124L484.484 29.9403C484.398 29.9735 484.276 30.0066 484.116 30.0398C483.957 30.0762 483.759 30.0961 483.52 30.0994C483.129 30.1061 482.764 30.0365 482.426 29.8906C482.088 29.7448 481.815 29.5194 481.606 29.2145C481.397 28.9096 481.293 28.5268 481.293 28.0661V20.5341ZM485.99 30V22.3636H487.476V30H485.99ZM486.74 21.1854C486.482 21.1854 486.26 21.0992 486.074 20.9268C485.892 20.7512 485.801 20.5424 485.801 20.3004C485.801 20.0552 485.892 19.8464 486.074 19.674C486.26 19.4983 486.482 19.4105 486.74 19.4105C486.999 19.4105 487.219 19.4983 487.401 19.674C487.587 19.8464 487.68 20.0552 487.68 20.3004C487.68 20.5424 487.587 20.7512 487.401 20.9268C487.219 21.0992 486.999 21.1854 486.74 21.1854ZM492.767 30.1541C492.015 30.1541 491.367 29.9934 490.823 29.6719C490.283 29.3471 489.865 28.8913 489.57 28.3047C489.279 27.7147 489.133 27.0237 489.133 26.2315C489.133 25.4493 489.279 24.7599 489.57 24.1634C489.865 23.5668 490.276 23.1011 490.803 22.7663C491.334 22.4316 491.953 22.2642 492.663 22.2642C493.094 22.2642 493.511 22.3355 493.915 22.478C494.32 22.6205 494.683 22.8442 495.004 23.1491C495.326 23.4541 495.579 23.8501 495.765 24.3374C495.951 24.8213 496.043 25.4096 496.043 26.1023V26.6293H489.973V25.5156H494.587C494.587 25.1245 494.507 24.7782 494.348 24.4766C494.189 24.1716 493.965 23.9313 493.677 23.7557C493.392 23.58 493.057 23.4922 492.673 23.4922C492.255 23.4922 491.89 23.5949 491.579 23.8004C491.271 24.0026 491.032 24.2678 490.863 24.5959C490.697 24.9207 490.614 25.2737 490.614 25.6548V26.5249C490.614 27.0353 490.704 27.4695 490.883 27.8274C491.065 28.1854 491.319 28.4588 491.643 28.6477C491.968 28.8333 492.348 28.9261 492.782 28.9261C493.064 28.9261 493.321 28.8864 493.553 28.8068C493.785 28.724 493.985 28.6013 494.154 28.4389C494.323 28.2765 494.452 28.076 494.542 27.8374L495.949 28.0909C495.836 28.5052 495.634 28.8681 495.342 29.1797C495.054 29.4879 494.691 29.7282 494.254 29.9006C493.819 30.0696 493.324 30.1541 492.767 30.1541Z" fill="#1F2937"/>
<g filter="url(#filter4_bdd_2441_2329)">
<rect x="284" y="55" width="40" height="40" rx="20" stroke="url(#paint7_linear_2441_2329)" stroke-opacity="0.4" stroke-width="4" shape-rendering="crispEdges"/>
<g filter="url(#filter5_bdd_2441_2329)">
<rect x="286" y="57" width="36" height="36" rx="18" fill="url(#paint8_linear_2441_2329)" shape-rendering="crispEdges"/>
<rect x="285.5" y="56.5" width="37" height="37" rx="18.5" stroke="url(#paint9_linear_2441_2329)" style="mix-blend-mode:overlay" shape-rendering="crispEdges"/>
<rect x="285.5" y="56.5" width="37" height="37" rx="18.5" stroke="white" stroke-opacity="0.1" shape-rendering="crispEdges"/>
<path fill-rule="evenodd" clip-rule="evenodd" d="M306.577 69.8783C306.684 69.4782 307.095 69.2408 307.496 69.348L312.277 70.6291C312.469 70.6806 312.633 70.8063 312.732 70.9785C312.832 71.1508 312.858 71.3555 312.807 71.5477L311.526 76.3287C311.419 76.7288 311.007 76.9663 310.607 76.8591C310.207 76.7519 309.97 76.3406 310.077 75.9405L310.886 72.9195C308.63 74.3097 306.754 76.0901 305.293 78.1222C305.165 78.3009 304.965 78.4142 304.745 78.432C304.526 78.4499 304.31 78.3704 304.154 78.2148L301 75.0607L296.28 79.7803C295.987 80.0732 295.513 80.0732 295.22 79.7803C294.927 79.4874 294.927 79.0126 295.22 78.7197L300.47 73.4697C300.763 73.1768 301.237 73.1768 301.53 73.4697L304.604 76.5433C306.105 74.6305 307.963 72.9506 310.149 71.612L307.107 70.7969C306.707 70.6897 306.47 70.2784 306.577 69.8783Z" fill="#0F172A"/>
</g>
</g>
<path d="M340.119 69.8182H341.983L345.224 77.733H345.344L348.585 69.8182H350.45V80H348.988V72.6321H348.893L345.891 79.9851H344.678L341.675 72.6271H341.58V80H340.119V69.8182ZM355.855 80.1541C355.103 80.1541 354.455 79.9934 353.911 79.6719C353.371 79.3471 352.953 78.8913 352.658 78.3047C352.367 77.7147 352.221 77.0237 352.221 76.2315C352.221 75.4493 352.367 74.7599 352.658 74.1634C352.953 73.5668 353.364 73.1011 353.891 72.7663C354.421 72.4316 355.041 72.2642 355.751 72.2642C356.181 72.2642 356.599 72.3355 357.003 72.478C357.408 72.6205 357.771 72.8442 358.092 73.1491C358.414 73.4541 358.667 73.8501 358.853 74.3374C359.038 74.8213 359.131 75.4096 359.131 76.1023V76.6293H353.061V75.5156H357.675C357.675 75.1245 357.595 74.7782 357.436 74.4766C357.277 74.1716 357.053 73.9313 356.765 73.7557C356.48 73.58 356.145 73.4922 355.76 73.4922C355.343 73.4922 354.978 73.5949 354.667 73.8004C354.358 74.0026 354.12 74.2678 353.951 74.5959C353.785 74.9207 353.702 75.2737 353.702 75.6548V76.5249C353.702 77.0353 353.792 77.4695 353.971 77.8274C354.153 78.1854 354.407 78.4588 354.731 78.6477C355.056 78.8333 355.436 78.9261 355.87 78.9261C356.152 78.9261 356.408 78.8864 356.64 78.8068C356.872 78.724 357.073 78.6013 357.242 78.4389C357.411 78.2765 357.54 78.076 357.63 77.8374L359.037 78.0909C358.924 78.5052 358.722 78.8681 358.43 79.1797C358.142 79.4879 357.779 79.7282 357.341 79.9006C356.907 80.0696 356.412 80.1541 355.855 80.1541ZM364.072 80.1541C363.319 80.1541 362.671 79.9934 362.128 79.6719C361.588 79.3471 361.17 78.8913 360.875 78.3047C360.583 77.7147 360.438 77.0237 360.438 76.2315C360.438 75.4493 360.583 74.7599 360.875 74.1634C361.17 73.5668 361.581 73.1011 362.108 72.7663C362.638 72.4316 363.258 72.2642 363.967 72.2642C364.398 72.2642 364.816 72.3355 365.22 72.478C365.625 72.6205 365.987 72.8442 366.309 73.1491C366.63 73.4541 366.884 73.8501 367.07 74.3374C367.255 74.8213 367.348 75.4096 367.348 76.1023V76.6293H361.278V75.5156H365.891C365.891 75.1245 365.812 74.7782 365.653 74.4766C365.494 74.1716 365.27 73.9313 364.982 73.7557C364.696 73.58 364.362 73.4922 363.977 73.4922C363.56 73.4922 363.195 73.5949 362.884 73.8004C362.575 74.0026 362.337 74.2678 362.168 74.5959C362.002 74.9207 361.919 75.2737 361.919 75.6548V76.5249C361.919 77.0353 362.009 77.4695 362.188 77.8274C362.37 78.1854 362.623 78.4588 362.948 78.6477C363.273 78.8333 363.652 78.9261 364.087 78.9261C364.368 78.9261 364.625 78.8864 364.857 78.8068C365.089 78.724 365.29 78.6013 365.459 78.4389C365.628 78.2765 365.757 78.076 365.847 77.8374L367.254 78.0909C367.141 78.5052 366.939 78.8681 366.647 79.1797C366.359 79.4879 365.996 79.7282 365.558 79.9006C365.124 80.0696 364.629 80.1541 364.072 80.1541ZM368.997 80V72.3636H370.434V73.5767H370.514C370.653 73.1657 370.898 72.8426 371.249 72.6072C371.604 72.3686 372.005 72.2493 372.453 72.2493C372.545 72.2493 372.655 72.2526 372.781 72.2592C372.91 72.2659 373.011 72.2741 373.084 72.2841V73.706C373.024 73.6894 372.918 73.6712 372.766 73.6513C372.613 73.6281 372.461 73.6165 372.308 73.6165C371.957 73.6165 371.644 73.6911 371.369 73.8402C371.097 73.986 370.882 74.1899 370.722 74.4517C370.563 74.7102 370.484 75.0052 370.484 75.3366V80H368.997ZM378.195 80V69.8182H381.923C382.646 69.8182 383.244 69.9375 383.718 70.1761C384.192 70.4115 384.547 70.7313 384.782 71.1357C385.017 71.5367 385.135 71.9891 385.135 72.4929C385.135 72.9171 385.057 73.2751 384.901 73.5668C384.746 73.8551 384.537 74.0871 384.275 74.2628C384.017 74.4351 383.731 74.5611 383.42 74.6406V74.7401C383.758 74.7566 384.088 74.866 384.409 75.0682C384.734 75.267 385.003 75.5504 385.215 75.9183C385.427 76.2862 385.533 76.7337 385.533 77.2607C385.533 77.781 385.41 78.2483 385.165 78.6626C384.923 79.0736 384.548 79.4001 384.041 79.642C383.534 79.8807 382.886 80 382.097 80H378.195ZM379.731 78.6825H381.948C382.684 78.6825 383.211 78.54 383.529 78.255C383.847 77.9699 384.007 77.6136 384.007 77.1861C384.007 76.8646 383.925 76.5696 383.763 76.3011C383.601 76.0327 383.369 75.8189 383.067 75.6598C382.769 75.5007 382.414 75.4212 382.003 75.4212H379.731V78.6825ZM379.731 74.223H381.789C382.134 74.223 382.444 74.1567 382.719 74.0241C382.997 73.8916 383.218 73.706 383.38 73.4673C383.546 73.2254 383.629 72.9403 383.629 72.6122C383.629 72.1913 383.481 71.8383 383.186 71.5533C382.891 71.2682 382.439 71.1257 381.829 71.1257H379.731V74.223ZM390.527 80.1541C389.774 80.1541 389.126 79.9934 388.583 79.6719C388.043 79.3471 387.625 78.8913 387.33 78.3047C387.038 77.7147 386.893 77.0237 386.893 76.2315C386.893 75.4493 387.038 74.7599 387.33 74.1634C387.625 73.5668 388.036 73.1011 388.563 72.7663C389.093 72.4316 389.713 72.2642 390.422 72.2642C390.853 72.2642 391.271 72.3355 391.675 72.478C392.08 72.6205 392.443 72.8442 392.764 73.1491C393.086 73.4541 393.339 73.8501 393.525 74.3374C393.71 74.8213 393.803 75.4096 393.803 76.1023V76.6293H387.733V75.5156H392.346C392.346 75.1245 392.267 74.7782 392.108 74.4766C391.949 74.1716 391.725 73.9313 391.437 73.7557C391.152 73.58 390.817 73.4922 390.432 73.4922C390.015 73.4922 389.65 73.5949 389.339 73.8004C389.03 74.0026 388.792 74.2678 388.623 74.5959C388.457 74.9207 388.374 75.2737 388.374 75.6548V76.5249C388.374 77.0353 388.464 77.4695 388.643 77.8274C388.825 78.1854 389.078 78.4588 389.403 78.6477C389.728 78.8333 390.108 78.9261 390.542 78.9261C390.823 78.9261 391.08 78.8864 391.312 78.8068C391.544 78.724 391.745 78.6013 391.914 78.4389C392.083 78.2765 392.212 78.076 392.302 77.8374L393.709 78.0909C393.596 78.5052 393.394 78.8681 393.102 79.1797C392.814 79.4879 392.451 79.7282 392.013 79.9006C391.579 80.0696 391.084 80.1541 390.527 80.1541ZM395.452 80V72.3636H396.889V73.5767H396.969C397.108 73.1657 397.353 72.8426 397.705 72.6072C398.059 72.3686 398.46 72.2493 398.908 72.2493C399 72.2493 399.11 72.2526 399.236 72.2592C399.365 72.2659 399.466 72.2741 399.539 72.2841V73.706C399.479 73.6894 399.373 73.6712 399.221 73.6513C399.068 73.6281 398.916 73.6165 398.763 73.6165C398.412 73.6165 398.099 73.6911 397.824 73.8402C397.552 73.986 397.337 74.1899 397.178 74.4517C397.018 74.7102 396.939 75.0052 396.939 75.3366V80H395.452ZM403.843 80.1541C403.091 80.1541 402.443 79.9934 401.899 79.6719C401.359 79.3471 400.941 78.8913 400.646 78.3047C400.355 77.7147 400.209 77.0237 400.209 76.2315C400.209 75.4493 400.355 74.7599 400.646 74.1634C400.941 73.5668 401.352 73.1011 401.879 72.7663C402.41 72.4316 403.03 72.2642 403.739 72.2642C404.17 72.2642 404.587 72.3355 404.992 72.478C405.396 72.6205 405.759 72.8442 406.08 73.1491C406.402 73.4541 406.655 73.8501 406.841 74.3374C407.027 74.8213 407.119 75.4096 407.119 76.1023V76.6293H401.049V75.5156H405.663C405.663 75.1245 405.583 74.7782 405.424 74.4766C405.265 74.1716 405.041 73.9313 404.753 73.7557C404.468 73.58 404.133 73.4922 403.749 73.4922C403.331 73.4922 402.967 73.5949 402.655 73.8004C402.347 74.0026 402.108 74.2678 401.939 74.5959C401.773 74.9207 401.691 75.2737 401.691 75.6548V76.5249C401.691 77.0353 401.78 77.4695 401.959 77.8274C402.141 78.1854 402.395 78.4588 402.72 78.6477C403.044 78.8333 403.424 78.9261 403.858 78.9261C404.14 78.9261 404.397 78.8864 404.629 78.8068C404.861 78.724 405.061 78.6013 405.23 78.4389C405.399 78.2765 405.529 78.076 405.618 77.8374L407.025 78.0909C406.912 78.5052 406.71 78.8681 406.419 79.1797C406.13 79.4879 405.767 79.7282 405.33 79.9006C404.896 80.0696 404.4 80.1541 403.843 80.1541ZM408.769 80V72.3636H410.255V80H408.769ZM409.52 71.1854C409.261 71.1854 409.039 71.0992 408.853 70.9268C408.671 70.7512 408.58 70.5424 408.58 70.3004C408.58 70.0552 408.671 69.8464 408.853 69.674C409.039 69.4983 409.261 69.4105 409.52 69.4105C409.778 69.4105 409.998 69.4983 410.181 69.674C410.366 69.8464 410.459 70.0552 410.459 70.3004C410.459 70.5424 410.366 70.7512 410.181 70.9268C409.998 71.0992 409.778 71.1854 409.52 71.1854ZM413.622 77.4098L413.612 75.5952H413.871L416.914 72.3636H418.693L415.223 76.0426H414.99L413.622 77.4098ZM412.255 80V69.8182H413.742V80H412.255ZM417.078 80L414.343 76.3707L415.367 75.3317L418.902 80H417.078Z" fill="#1F2937"/>
<g filter="url(#filter6_bdd_2441_2329)">
<rect x="284" y="105" width="40" height="40" rx="20" stroke="url(#paint10_linear_2441_2329)" stroke-opacity="0.4" stroke-width="4" shape-rendering="crispEdges"/>
<g filter="url(#filter7_bdd_2441_2329)">
<rect x="286" y="107" width="36" height="36" rx="18" fill="url(#paint11_linear_2441_2329)" shape-rendering="crispEdges"/>
<rect x="285.5" y="106.5" width="37" height="37" rx="18.5" stroke="url(#paint12_linear_2441_2329)" style="mix-blend-mode:overlay" shape-rendering="crispEdges"/>
<rect x="285.5" y="106.5" width="37" height="37" rx="18.5" stroke="white" stroke-opacity="0.1" shape-rendering="crispEdges"/>
<path fill-rule="evenodd" clip-rule="evenodd" d="M295 119C295 118.448 295.448 118 296 118H312C312.552 118 313 118.448 313 119V127C313 127.552 312.552 128 312 128H296C295.448 128 295 127.552 295 127V119ZM307 123C307 124.657 305.657 126 304 126C302.343 126 301 124.657 301 123C301 121.343 302.343 120 304 120C305.657 120 307 121.343 307 123ZM298 124C298.552 124 299 123.552 299 123C299 122.448 298.552 122 298 122C297.448 122 297 122.448 297 123C297 123.552 297.448 124 298 124ZM311 123C311 123.552 310.552 124 310 124C309.448 124 309 123.552 309 123C309 122.448 309.448 122 310 122C310.552 122 311 122.448 311 123ZM295.75 129.5C295.336 129.5 295 129.836 295 130.25C295 130.664 295.336 131 295.75 131C300.167 131 304.443 131.603 308.499 132.73C309.61 133.039 310.75 132.218 310.75 131.034V130.25C310.75 129.836 310.414 129.5 310 129.5C309.586 129.5 309.25 129.836 309.25 130.25V131.034C309.25 131.195 309.086 131.337 308.9 131.285C304.715 130.122 300.304 129.5 295.75 129.5Z" fill="#0F172A"/>
</g>
</g>
<path d="M348.963 124.909C348.963 125.996 348.764 126.931 348.366 127.713C347.969 128.492 347.424 129.092 346.731 129.513C346.041 129.93 345.258 130.139 344.379 130.139C343.498 130.139 342.71 129.93 342.018 129.513C341.328 129.092 340.785 128.49 340.387 127.708C339.989 126.926 339.79 125.993 339.79 124.909C339.79 123.822 339.989 122.889 340.387 122.11C340.785 121.328 341.328 120.728 342.018 120.31C342.71 119.889 343.498 119.679 344.379 119.679C345.258 119.679 346.041 119.889 346.731 120.31C347.424 120.728 347.969 121.328 348.366 122.11C348.764 122.889 348.963 123.822 348.963 124.909ZM347.442 124.909C347.442 124.08 347.308 123.383 347.039 122.816C346.774 122.246 346.409 121.815 345.945 121.523C345.485 121.228 344.963 121.081 344.379 121.081C343.793 121.081 343.269 121.228 342.808 121.523C342.348 121.815 341.983 122.246 341.714 122.816C341.449 123.383 341.317 124.08 341.317 124.909C341.317 125.738 341.449 126.437 341.714 127.007C341.983 127.574 342.348 128.005 342.808 128.3C343.269 128.591 343.793 128.737 344.379 128.737C344.963 128.737 345.485 128.591 345.945 128.3C346.409 128.005 346.774 127.574 347.039 127.007C347.308 126.437 347.442 125.738 347.442 124.909ZM357.292 122.364L354.523 130H352.932L350.157 122.364H351.753L353.687 128.24H353.767L355.696 122.364H357.292ZM361.72 130.154C360.968 130.154 360.32 129.993 359.776 129.672C359.236 129.347 358.818 128.891 358.523 128.305C358.232 127.715 358.086 127.024 358.086 126.232C358.086 125.449 358.232 124.76 358.523 124.163C358.818 123.567 359.229 123.101 359.756 122.766C360.287 122.432 360.906 122.264 361.616 122.264C362.047 122.264 362.464 122.335 362.869 122.478C363.273 122.621 363.636 122.844 363.957 123.149C364.279 123.454 364.532 123.85 364.718 124.337C364.904 124.821 364.996 125.41 364.996 126.102V126.629H358.926V125.516H363.54C363.54 125.125 363.46 124.778 363.301 124.477C363.142 124.172 362.918 123.931 362.63 123.756C362.345 123.58 362.01 123.492 361.626 123.492C361.208 123.492 360.844 123.595 360.532 123.8C360.224 124.003 359.985 124.268 359.816 124.596C359.65 124.921 359.567 125.274 359.567 125.655V126.525C359.567 127.035 359.657 127.469 359.836 127.827C360.018 128.185 360.272 128.459 360.597 128.648C360.921 128.833 361.301 128.926 361.735 128.926C362.017 128.926 362.274 128.886 362.506 128.807C362.738 128.724 362.938 128.601 363.107 128.439C363.276 128.277 363.406 128.076 363.495 127.837L364.902 128.091C364.789 128.505 364.587 128.868 364.295 129.18C364.007 129.488 363.644 129.728 363.207 129.901C362.772 130.07 362.277 130.154 361.72 130.154ZM366.646 130V122.364H368.083V123.577H368.162C368.301 123.166 368.547 122.843 368.898 122.607C369.253 122.369 369.654 122.249 370.101 122.249C370.194 122.249 370.303 122.253 370.429 122.259C370.558 122.266 370.66 122.274 370.732 122.284V123.706C370.673 123.689 370.567 123.671 370.414 123.651C370.262 123.628 370.109 123.616 369.957 123.616C369.606 123.616 369.292 123.691 369.017 123.84C368.745 123.986 368.53 124.19 368.371 124.452C368.212 124.71 368.132 125.005 368.132 125.337V130H366.646ZM371.86 130V128.981L375.996 123.726V123.656H371.994V122.364H377.85V123.447L373.873 128.638V128.707H377.99V130H371.86ZM379.743 130V122.364H381.23V130H379.743ZM380.494 121.185C380.236 121.185 380.014 121.099 379.828 120.927C379.646 120.751 379.555 120.542 379.555 120.3C379.555 120.055 379.646 119.846 379.828 119.674C380.014 119.498 380.236 119.411 380.494 119.411C380.753 119.411 380.973 119.498 381.155 119.674C381.341 119.846 381.434 120.055 381.434 120.3C381.434 120.542 381.341 120.751 381.155 120.927C380.973 121.099 380.753 121.185 380.494 121.185ZM386.446 130.154C385.707 130.154 385.071 129.987 384.537 129.652C384.007 129.314 383.599 128.848 383.314 128.255C383.029 127.662 382.887 126.982 382.887 126.217C382.887 125.441 383.033 124.757 383.324 124.163C383.616 123.567 384.027 123.101 384.557 122.766C385.087 122.432 385.712 122.264 386.431 122.264C387.011 122.264 387.529 122.372 387.983 122.587C388.437 122.799 388.803 123.098 389.081 123.482C389.363 123.867 389.53 124.316 389.583 124.83H388.137C388.057 124.472 387.875 124.163 387.59 123.905C387.308 123.646 386.93 123.517 386.456 123.517C386.042 123.517 385.679 123.626 385.368 123.845C385.059 124.061 384.819 124.369 384.647 124.77C384.474 125.168 384.388 125.638 384.388 126.182C384.388 126.739 384.473 127.219 384.642 127.624C384.811 128.028 385.049 128.341 385.358 128.563C385.669 128.785 386.035 128.896 386.456 128.896C386.738 128.896 386.993 128.845 387.222 128.742C387.454 128.636 387.648 128.485 387.804 128.29C387.963 128.094 388.074 127.859 388.137 127.584H389.583C389.53 128.078 389.37 128.518 389.101 128.906C388.833 129.294 388.473 129.599 388.022 129.821C387.575 130.043 387.05 130.154 386.446 130.154ZM392.66 125.466V130H391.173V119.818H392.64V123.607H392.734C392.913 123.196 393.187 122.869 393.555 122.627C393.922 122.385 394.403 122.264 394.996 122.264C395.52 122.264 395.977 122.372 396.368 122.587C396.763 122.803 397.068 123.124 397.283 123.552C397.502 123.976 397.611 124.506 397.611 125.143V130H396.125V125.322C396.125 124.762 395.981 124.327 395.692 124.019C395.404 123.708 395.003 123.552 394.489 123.552C394.138 123.552 393.823 123.626 393.545 123.776C393.269 123.925 393.052 124.143 392.893 124.432C392.738 124.717 392.66 125.062 392.66 125.466ZM403.16 122.364V123.557H398.988V122.364H403.16ZM400.107 120.534H401.594V127.758C401.594 128.046 401.637 128.263 401.723 128.409C401.809 128.552 401.92 128.649 402.056 128.702C402.195 128.752 402.346 128.777 402.508 128.777C402.628 128.777 402.732 128.769 402.822 128.752C402.911 128.736 402.981 128.722 403.03 128.712L403.299 129.94C403.213 129.973 403.09 130.007 402.931 130.04C402.772 130.076 402.573 130.096 402.334 130.099C401.943 130.106 401.579 130.036 401.241 129.891C400.903 129.745 400.629 129.519 400.42 129.214C400.211 128.91 400.107 128.527 400.107 128.066V120.534ZM408.628 130V119.818H412.357C413.08 119.818 413.678 119.937 414.152 120.176C414.626 120.411 414.98 120.731 415.216 121.136C415.451 121.537 415.569 121.989 415.569 122.493C415.569 122.917 415.491 123.275 415.335 123.567C415.179 123.855 414.97 124.087 414.709 124.263C414.45 124.435 414.165 124.561 413.854 124.641V124.74C414.192 124.757 414.521 124.866 414.843 125.068C415.168 125.267 415.436 125.55 415.648 125.918C415.86 126.286 415.966 126.734 415.966 127.261C415.966 127.781 415.844 128.248 415.599 128.663C415.357 129.074 414.982 129.4 414.475 129.642C413.968 129.881 413.32 130 412.531 130H408.628ZM410.165 128.683H412.382C413.118 128.683 413.645 128.54 413.963 128.255C414.281 127.97 414.44 127.614 414.44 127.186C414.44 126.865 414.359 126.57 414.197 126.301C414.034 126.033 413.802 125.819 413.501 125.66C413.202 125.501 412.848 125.421 412.437 125.421H410.165V128.683ZM410.165 124.223H412.223C412.568 124.223 412.877 124.157 413.153 124.024C413.431 123.892 413.651 123.706 413.814 123.467C413.979 123.225 414.062 122.94 414.062 122.612C414.062 122.191 413.915 121.838 413.62 121.553C413.325 121.268 412.872 121.126 412.263 121.126H410.165V124.223ZM419.892 130.169C419.408 130.169 418.97 130.08 418.579 129.901C418.188 129.718 417.878 129.455 417.649 129.11C417.424 128.765 417.311 128.343 417.311 127.842C417.311 127.411 417.394 127.057 417.56 126.778C417.726 126.5 417.949 126.28 418.231 126.117C418.513 125.955 418.828 125.832 419.176 125.749C419.524 125.666 419.878 125.603 420.24 125.56C420.697 125.507 421.068 125.464 421.353 125.431C421.638 125.395 421.845 125.337 421.975 125.257C422.104 125.178 422.169 125.048 422.169 124.869V124.835C422.169 124.4 422.046 124.064 421.801 123.825C421.559 123.587 421.197 123.467 420.717 123.467C420.216 123.467 419.822 123.578 419.534 123.8C419.249 124.019 419.051 124.263 418.942 124.531L417.545 124.213C417.711 123.749 417.953 123.375 418.271 123.089C418.592 122.801 418.962 122.592 419.379 122.463C419.797 122.33 420.236 122.264 420.697 122.264C421.002 122.264 421.325 122.301 421.666 122.374C422.011 122.443 422.333 122.572 422.631 122.761C422.932 122.95 423.179 123.22 423.372 123.572C423.564 123.92 423.66 124.372 423.66 124.929V130H422.208V128.956H422.149C422.052 129.148 421.908 129.337 421.716 129.523C421.524 129.708 421.277 129.862 420.975 129.985C420.674 130.108 420.312 130.169 419.892 130.169ZM420.215 128.976C420.626 128.976 420.977 128.895 421.269 128.732C421.564 128.57 421.787 128.358 421.94 128.096C422.096 127.831 422.173 127.547 422.173 127.246V126.261C422.12 126.314 422.018 126.364 421.865 126.411C421.716 126.454 421.545 126.492 421.353 126.525C421.161 126.555 420.974 126.583 420.791 126.609C420.609 126.633 420.457 126.652 420.334 126.669C420.046 126.705 419.782 126.767 419.544 126.853C419.308 126.939 419.119 127.063 418.977 127.226C418.838 127.385 418.768 127.597 418.768 127.862C418.768 128.23 418.904 128.509 419.176 128.697C419.447 128.883 419.794 128.976 420.215 128.976ZM427.126 119.818V130H425.64V119.818H427.126ZM431.349 130.169C430.865 130.169 430.427 130.08 430.036 129.901C429.645 129.718 429.335 129.455 429.106 129.11C428.881 128.765 428.768 128.343 428.768 127.842C428.768 127.411 428.851 127.057 429.017 126.778C429.183 126.5 429.406 126.28 429.688 126.117C429.97 125.955 430.285 125.832 430.633 125.749C430.981 125.666 431.335 125.603 431.697 125.56C432.154 125.507 432.525 125.464 432.81 125.431C433.095 125.395 433.302 125.337 433.432 125.257C433.561 125.178 433.626 125.048 433.626 124.869V124.835C433.626 124.4 433.503 124.064 433.258 123.825C433.016 123.587 432.654 123.467 432.174 123.467C431.673 123.467 431.279 123.578 430.991 123.8C430.706 124.019 430.508 124.263 430.399 124.531L429.002 124.213C429.168 123.749 429.41 123.375 429.728 123.089C430.049 122.801 430.419 122.592 430.836 122.463C431.254 122.33 431.693 122.264 432.154 122.264C432.459 122.264 432.782 122.301 433.123 122.374C433.468 122.443 433.79 122.572 434.088 122.761C434.39 122.95 434.636 123.22 434.829 123.572C435.021 123.92 435.117 124.372 435.117 124.929V130H433.665V128.956H433.606C433.51 129.148 433.365 129.337 433.173 129.523C432.981 129.708 432.734 129.862 432.432 129.985C432.131 130.108 431.769 130.169 431.349 130.169ZM431.672 128.976C432.083 128.976 432.434 128.895 432.726 128.732C433.021 128.57 433.244 128.358 433.397 128.096C433.553 127.831 433.631 127.547 433.631 127.246V126.261C433.577 126.314 433.475 126.364 433.322 126.411C433.173 126.454 433.002 126.492 432.81 126.525C432.618 126.555 432.431 126.583 432.248 126.609C432.066 126.633 431.914 126.652 431.791 126.669C431.503 126.705 431.239 126.767 431.001 126.853C430.765 126.939 430.576 127.063 430.434 127.226C430.295 127.385 430.225 127.597 430.225 127.862C430.225 128.23 430.361 128.509 430.633 128.697C430.904 128.883 431.251 128.976 431.672 128.976ZM438.583 125.466V130H437.097V122.364H438.524V123.607H438.618C438.794 123.202 439.069 122.877 439.444 122.632C439.821 122.387 440.297 122.264 440.87 122.264C441.391 122.264 441.846 122.374 442.238 122.592C442.629 122.808 442.932 123.129 443.147 123.557C443.363 123.984 443.471 124.513 443.471 125.143V130H441.984V125.322C441.984 124.768 441.84 124.336 441.551 124.024C441.263 123.709 440.867 123.552 440.363 123.552C440.019 123.552 439.712 123.626 439.444 123.776C439.178 123.925 438.968 124.143 438.812 124.432C438.66 124.717 438.583 125.062 438.583 125.466ZM451.186 124.228L449.839 124.467C449.783 124.294 449.693 124.13 449.571 123.974C449.451 123.819 449.289 123.691 449.083 123.592C448.878 123.492 448.621 123.442 448.313 123.442C447.892 123.442 447.541 123.537 447.259 123.726C446.977 123.911 446.836 124.152 446.836 124.447C446.836 124.702 446.931 124.907 447.12 125.063C447.309 125.219 447.614 125.347 448.034 125.446L449.248 125.724C449.95 125.887 450.474 126.137 450.819 126.475C451.163 126.813 451.336 127.252 451.336 127.793C451.336 128.25 451.203 128.658 450.938 129.016C450.676 129.37 450.31 129.649 449.839 129.851C449.372 130.053 448.83 130.154 448.213 130.154C447.358 130.154 446.661 129.972 446.12 129.607C445.58 129.239 445.249 128.717 445.126 128.041L446.563 127.822C446.652 128.197 446.836 128.48 447.115 128.673C447.393 128.862 447.756 128.956 448.203 128.956C448.691 128.956 449.08 128.855 449.372 128.653C449.663 128.447 449.809 128.197 449.809 127.902C449.809 127.663 449.72 127.463 449.541 127.3C449.365 127.138 449.095 127.015 448.73 126.933L447.438 126.649C446.725 126.487 446.198 126.228 445.857 125.874C445.519 125.519 445.35 125.07 445.35 124.526C445.35 124.076 445.476 123.681 445.728 123.343C445.98 123.005 446.328 122.741 446.772 122.553C447.216 122.36 447.725 122.264 448.298 122.264C449.123 122.264 449.773 122.443 450.247 122.801C450.721 123.156 451.034 123.631 451.186 124.228Z" fill="#1F2937"/>
<defs>
<filter id="filter0_bdd_2441_2329" x="-7" y="-11" width="222" height="172" filterUnits="userSpaceOnUse" color-interpolation-filters="sRGB">
<feFlood flood-opacity="0" result="BackgroundImageFix"/>
<feGaussianBlur in="BackgroundImageFix" stdDeviation="6"/>
<feComposite in2="SourceAlpha" operator="in" result="effect1_backgroundBlur_2441_2329"/>
<feColorMatrix in="SourceAlpha" type="matrix" values="0 0 0 0 0 0 0 0 0 0 0 0 0 0 0 0 0 0 127 0" result="hardAlpha"/>
<feMorphology radius="1" operator="erode" in="SourceAlpha" result="effect2_dropShadow_2441_2329"/>
<feOffset dy="2"/>
<feGaussianBlur stdDeviation="2"/>
<feComposite in2="hardAlpha" operator="out"/>
<feColorMatrix type="matrix" values="0 0 0 0 0.08125 0 0 0 0 0.09 0 0 0 0 0.3 0 0 0 0.06 0"/>
<feBlend mode="normal" in2="effect1_backgroundBlur_2441_2329" result="effect2_dropShadow_2441_2329"/>
<feColorMatrix in="SourceAlpha" type="matrix" values="0 0 0 0 0 0 0 0 0 0 0 0 0 0 0 0 0 0 127 0" result="hardAlpha"/>
<feMorphology radius="1" operator="erode" in="SourceAlpha" result="effect3_dropShadow_2441_2329"/>
<feOffset dy="4"/>
<feGaussianBlur stdDeviation="3"/>
<feComposite in2="hardAlpha" operator="out"/>
<feColorMatrix type="matrix" values="0 0 0 0 0.10625 0 0 0 0 0.137875 0 0 0 0 0.25 0 0 0 0.1 0"/>
<feBlend mode="normal" in2="effect2_dropShadow_2441_2329" result="effect3_dropShadow_2441_2329"/>
<feBlend mode="normal" in="SourceGraphic" in2="effect3_dropShadow_2441_2329" result="shape"/>
</filter>
<filter id="filter1_bdd_2441_2329" x="2" y="-2" width="204" height="154" filterUnits="userSpaceOnUse" color-interpolation-filters="sRGB">
<feFlood flood-opacity="0" result="BackgroundImageFix"/>
<feGaussianBlur in="BackgroundImageFix" stdDeviation="4"/>
<feComposite in2="SourceAlpha" operator="in" result="effect1_backgroundBlur_2441_2329"/>
<feColorMatrix in="SourceAlpha" type="matrix" values="0 0 0 0 0 0 0 0 0 0 0 0 0 0 0 0 0 0 127 0" result="hardAlpha"/>
<feOffset dy="1"/>
<feGaussianBlur stdDeviation="1"/>
<feComposite in2="hardAlpha" operator="out"/>
<feColorMatrix type="matrix" values="0 0 0 0 0 0 0 0 0 0 0 0 0 0 0 0 0 0 0.06 0"/>
<feBlend mode="normal" in2="effect1_backgroundBlur_2441_2329" result="effect2_dropShadow_2441_2329"/>
<feColorMatrix in="SourceAlpha" type="matrix" values="0 0 0 0 0 0 0 0 0 0 0 0 0 0 0 0 0 0 127 0" result="hardAlpha"/>
<feOffset dy="1"/>
<feGaussianBlur stdDeviation="1.5"/>
<feComposite in2="hardAlpha" operator="out"/>
<feColorMatrix type="matrix" values="0 0 0 0 0 0 0 0 0 0 0 0 0 0 0 0 0 0 0.1 0"/>
<feBlend mode="normal" in2="effect2_dropShadow_2441_2329" result="effect3_dropShadow_2441_2329"/>
<feBlend mode="normal" in="SourceGraphic" in2="effect3_dropShadow_2441_2329" result="shape"/>
</filter>
<filter id="filter2_bdd_2441_2329" x="274" y="-5" width="60" height="60" filterUnits="userSpaceOnUse" color-interpolation-filters="sRGB">
<feFlood flood-opacity="0" result="BackgroundImageFix"/>
<feGaussianBlur in="BackgroundImageFix" stdDeviation="4"/>
<feComposite in2="SourceAlpha" operator="in" result="effect1_backgroundBlur_2441_2329"/>
<feColorMatrix in="SourceAlpha" type="matrix" values="0 0 0 0 0 0 0 0 0 0 0 0 0 0 0 0 0 0 127 0" result="hardAlpha"/>
<feOffset dy="1"/>
<feGaussianBlur stdDeviation="1"/>
<feComposite in2="hardAlpha" operator="out"/>
<feColorMatrix type="matrix" values="0 0 0 0 0 0 0 0 0 0 0 0 0 0 0 0 0 0 0.06 0"/>
<feBlend mode="normal" in2="effect1_backgroundBlur_2441_2329" result="effect2_dropShadow_2441_2329"/>
<feColorMatrix in="SourceAlpha" type="matrix" values="0 0 0 0 0 0 0 0 0 0 0 0 0 0 0 0 0 0 127 0" result="hardAlpha"/>
<feOffset dy="1"/>
<feGaussianBlur stdDeviation="1.5"/>
<feComposite in2="hardAlpha" operator="out"/>
<feColorMatrix type="matrix" values="0 0 0 0 0 0 0 0 0 0 0 0 0 0 0 0 0 0 0.1 0"/>
<feBlend mode="normal" in2="effect2_dropShadow_2441_2329" result="effect3_dropShadow_2441_2329"/>
<feBlend mode="normal" in="SourceGraphic" in2="effect3_dropShadow_2441_2329" result="shape"/>
</filter>
<filter id="filter3_bdd_2441_2329" x="273" y="-6" width="62" height="62" filterUnits="userSpaceOnUse" color-interpolation-filters="sRGB">
<feFlood flood-opacity="0" result="BackgroundImageFix"/>
<feGaussianBlur in="BackgroundImageFix" stdDeviation="6"/>
<feComposite in2="SourceAlpha" operator="in" result="effect1_backgroundBlur_2441_2329"/>
<feColorMatrix in="SourceAlpha" type="matrix" values="0 0 0 0 0 0 0 0 0 0 0 0 0 0 0 0 0 0 127 0" result="hardAlpha"/>
<feMorphology radius="1" operator="erode" in="SourceAlpha" result="effect2_dropShadow_2441_2329"/>
<feOffset dy="2"/>
<feGaussianBlur stdDeviation="2"/>
<feComposite in2="hardAlpha" operator="out"/>
<feColorMatrix type="matrix" values="0 0 0 0 0.08125 0 0 0 0 0.09 0 0 0 0 0.3 0 0 0 0.06 0"/>
<feBlend mode="normal" in2="effect1_backgroundBlur_2441_2329" result="effect2_dropShadow_2441_2329"/>
<feColorMatrix in="SourceAlpha" type="matrix" values="0 0 0 0 0 0 0 0 0 0 0 0 0 0 0 0 0 0 127 0" result="hardAlpha"/>
<feMorphology radius="1" operator="erode" in="SourceAlpha" result="effect3_dropShadow_2441_2329"/>
<feOffset dy="4"/>
<feGaussianBlur stdDeviation="3"/>
<feComposite in2="hardAlpha" operator="out"/>
<feColorMatrix type="matrix" values="0 0 0 0 0.10625 0 0 0 0 0.137875 0 0 0 0 0.25 0 0 0 0.1 0"/>
<feBlend mode="normal" in2="effect2_dropShadow_2441_2329" result="effect3_dropShadow_2441_2329"/>
<feBlend mode="normal" in="SourceGraphic" in2="effect3_dropShadow_2441_2329" result="shape"/>
</filter>
<filter id="filter4_bdd_2441_2329" x="274" y="45" width="60" height="60" filterUnits="userSpaceOnUse" color-interpolation-filters="sRGB">
<feFlood flood-opacity="0" result="BackgroundImageFix"/>
<feGaussianBlur in="BackgroundImageFix" stdDeviation="4"/>
<feComposite in2="SourceAlpha" operator="in" result="effect1_backgroundBlur_2441_2329"/>
<feColorMatrix in="SourceAlpha" type="matrix" values="0 0 0 0 0 0 0 0 0 0 0 0 0 0 0 0 0 0 127 0" result="hardAlpha"/>
<feOffset dy="1"/>
<feGaussianBlur stdDeviation="1"/>
<feComposite in2="hardAlpha" operator="out"/>
<feColorMatrix type="matrix" values="0 0 0 0 0 0 0 0 0 0 0 0 0 0 0 0 0 0 0.06 0"/>
<feBlend mode="normal" in2="effect1_backgroundBlur_2441_2329" result="effect2_dropShadow_2441_2329"/>
<feColorMatrix in="SourceAlpha" type="matrix" values="0 0 0 0 0 0 0 0 0 0 0 0 0 0 0 0 0 0 127 0" result="hardAlpha"/>
<feOffset dy="1"/>
<feGaussianBlur stdDeviation="1.5"/>
<feComposite in2="hardAlpha" operator="out"/>
<feColorMatrix type="matrix" values="0 0 0 0 0 0 0 0 0 0 0 0 0 0 0 0 0 0 0.1 0"/>
<feBlend mode="normal" in2="effect2_dropShadow_2441_2329" result="effect3_dropShadow_2441_2329"/>
<feBlend mode="normal" in="SourceGraphic" in2="effect3_dropShadow_2441_2329" result="shape"/>
</filter>
<filter id="filter5_bdd_2441_2329" x="273" y="44" width="62" height="62" filterUnits="userSpaceOnUse" color-interpolation-filters="sRGB">
<feFlood flood-opacity="0" result="BackgroundImageFix"/>
<feGaussianBlur in="BackgroundImageFix" stdDeviation="6"/>
<feComposite in2="SourceAlpha" operator="in" result="effect1_backgroundBlur_2441_2329"/>
<feColorMatrix in="SourceAlpha" type="matrix" values="0 0 0 0 0 0 0 0 0 0 0 0 0 0 0 0 0 0 127 0" result="hardAlpha"/>
<feMorphology radius="1" operator="erode" in="SourceAlpha" result="effect2_dropShadow_2441_2329"/>
<feOffset dy="2"/>
<feGaussianBlur stdDeviation="2"/>
<feComposite in2="hardAlpha" operator="out"/>
<feColorMatrix type="matrix" values="0 0 0 0 0.08125 0 0 0 0 0.09 0 0 0 0 0.3 0 0 0 0.06 0"/>
<feBlend mode="normal" in2="effect1_backgroundBlur_2441_2329" result="effect2_dropShadow_2441_2329"/>
<feColorMatrix in="SourceAlpha" type="matrix" values="0 0 0 0 0 0 0 0 0 0 0 0 0 0 0 0 0 0 127 0" result="hardAlpha"/>
<feMorphology radius="1" operator="erode" in="SourceAlpha" result="effect3_dropShadow_2441_2329"/>
<feOffset dy="4"/>
<feGaussianBlur stdDeviation="3"/>
<feComposite in2="hardAlpha" operator="out"/>
<feColorMatrix type="matrix" values="0 0 0 0 0.10625 0 0 0 0 0.137875 0 0 0 0 0.25 0 0 0 0.1 0"/>
<feBlend mode="normal" in2="effect2_dropShadow_2441_2329" result="effect3_dropShadow_2441_2329"/>
<feBlend mode="normal" in="SourceGraphic" in2="effect3_dropShadow_2441_2329" result="shape"/>
</filter>
<filter id="filter6_bdd_2441_2329" x="274" y="95" width="60" height="60" filterUnits="userSpaceOnUse" color-interpolation-filters="sRGB">
<feFlood flood-opacity="0" result="BackgroundImageFix"/>
<feGaussianBlur in="BackgroundImageFix" stdDeviation="4"/>
<feComposite in2="SourceAlpha" operator="in" result="effect1_backgroundBlur_2441_2329"/>
<feColorMatrix in="SourceAlpha" type="matrix" values="0 0 0 0 0 0 0 0 0 0 0 0 0 0 0 0 0 0 127 0" result="hardAlpha"/>
<feOffset dy="1"/>
<feGaussianBlur stdDeviation="1"/>
<feComposite in2="hardAlpha" operator="out"/>
<feColorMatrix type="matrix" values="0 0 0 0 0 0 0 0 0 0 0 0 0 0 0 0 0 0 0.06 0"/>
<feBlend mode="normal" in2="effect1_backgroundBlur_2441_2329" result="effect2_dropShadow_2441_2329"/>
<feColorMatrix in="SourceAlpha" type="matrix" values="0 0 0 0 0 0 0 0 0 0 0 0 0 0 0 0 0 0 127 0" result="hardAlpha"/>
<feOffset dy="1"/>
<feGaussianBlur stdDeviation="1.5"/>
<feComposite in2="hardAlpha" operator="out"/>
<feColorMatrix type="matrix" values="0 0 0 0 0 0 0 0 0 0 0 0 0 0 0 0 0 0 0.1 0"/>
<feBlend mode="normal" in2="effect2_dropShadow_2441_2329" result="effect3_dropShadow_2441_2329"/>
<feBlend mode="normal" in="SourceGraphic" in2="effect3_dropShadow_2441_2329" result="shape"/>
</filter>
<filter id="filter7_bdd_2441_2329" x="273" y="94" width="62" height="62" filterUnits="userSpaceOnUse" color-interpolation-filters="sRGB">
<feFlood flood-opacity="0" result="BackgroundImageFix"/>
<feGaussianBlur in="BackgroundImageFix" stdDeviation="6"/>
<feComposite in2="SourceAlpha" operator="in" result="effect1_backgroundBlur_2441_2329"/>
<feColorMatrix in="SourceAlpha" type="matrix" values="0 0 0 0 0 0 0 0 0 0 0 0 0 0 0 0 0 0 127 0" result="hardAlpha"/>
<feMorphology radius="1" operator="erode" in="SourceAlpha" result="effect2_dropShadow_2441_2329"/>
<feOffset dy="2"/>
<feGaussianBlur stdDeviation="2"/>
<feComposite in2="hardAlpha" operator="out"/>
<feColorMatrix type="matrix" values="0 0 0 0 0.08125 0 0 0 0 0.09 0 0 0 0 0.3 0 0 0 0.06 0"/>
<feBlend mode="normal" in2="effect1_backgroundBlur_2441_2329" result="effect2_dropShadow_2441_2329"/>
<feColorMatrix in="SourceAlpha" type="matrix" values="0 0 0 0 0 0 0 0 0 0 0 0 0 0 0 0 0 0 127 0" result="hardAlpha"/>
<feMorphology radius="1" operator="erode" in="SourceAlpha" result="effect3_dropShadow_2441_2329"/>
<feOffset dy="4"/>
<feGaussianBlur stdDeviation="3"/>
<feComposite in2="hardAlpha" operator="out"/>
<feColorMatrix type="matrix" values="0 0 0 0 0.10625 0 0 0 0 0.137875 0 0 0 0 0.25 0 0 0 0.1 0"/>
<feBlend mode="normal" in2="effect2_dropShadow_2441_2329" result="effect3_dropShadow_2441_2329"/>
<feBlend mode="normal" in="SourceGraphic" in2="effect3_dropShadow_2441_2329" result="shape"/>
</filter>
<linearGradient id="paint0_linear_2441_2329" x1="104" y1="1" x2="104" y2="149" gradientUnits="userSpaceOnUse">
<stop stop-color="white" stop-opacity="0.6"/>
<stop offset="1" stop-color="white" stop-opacity="0.5"/>
</linearGradient>
<linearGradient id="paint1_linear_2441_2329" x1="104" y1="7" x2="104" y2="143" gradientUnits="userSpaceOnUse">
<stop stop-color="white" stop-opacity="0.6"/>
<stop offset="1" stop-color="white" stop-opacity="0.5"/>
</linearGradient>
<linearGradient id="paint2_linear_2441_2329" x1="104" y1="7" x2="104" y2="143" gradientUnits="userSpaceOnUse">
<stop stop-color="white"/>
<stop offset="1" stop-color="white" stop-opacity="0"/>
</linearGradient>
<linearGradient id="paint3_linear_2441_2329" x1="121.5" y1="140.9" x2="165" y2="-28.6003" gradientUnits="userSpaceOnUse">
<stop stop-color="#7857FF"/>
<stop offset="0.65596" stop-color="#E1B0D5" stop-opacity="0.47"/>
</linearGradient>
<linearGradient id="paint4_linear_2441_2329" x1="304" y1="7" x2="304" y2="43" gradientUnits="userSpaceOnUse">
<stop stop-color="white" stop-opacity="0.35"/>
<stop offset="0.615" stop-color="white" stop-opacity="0.19"/>
</linearGradient>
<linearGradient id="paint5_linear_2441_2329" x1="304" y1="7" x2="304" y2="43" gradientUnits="userSpaceOnUse">
<stop stop-color="white" stop-opacity="0.6"/>
<stop offset="1" stop-color="white" stop-opacity="0.5"/>
</linearGradient>
<linearGradient id="paint6_linear_2441_2329" x1="304" y1="7" x2="304" y2="43" gradientUnits="userSpaceOnUse">
<stop stop-color="white"/>
<stop offset="1" stop-color="white" stop-opacity="0"/>
</linearGradient>
<linearGradient id="paint7_linear_2441_2329" x1="304" y1="57" x2="304" y2="93" gradientUnits="userSpaceOnUse">
<stop stop-color="white" stop-opacity="0.35"/>
<stop offset="0.615" stop-color="white" stop-opacity="0.19"/>
</linearGradient>
<linearGradient id="paint8_linear_2441_2329" x1="304" y1="57" x2="304" y2="93" gradientUnits="userSpaceOnUse">
<stop stop-color="white" stop-opacity="0.6"/>
<stop offset="1" stop-color="white" stop-opacity="0.5"/>
</linearGradient>
<linearGradient id="paint9_linear_2441_2329" x1="304" y1="57" x2="304" y2="93" gradientUnits="userSpaceOnUse">
<stop stop-color="white"/>
<stop offset="1" stop-color="white" stop-opacity="0"/>
</linearGradient>
<linearGradient id="paint10_linear_2441_2329" x1="304" y1="107" x2="304" y2="143" gradientUnits="userSpaceOnUse">
<stop stop-color="white" stop-opacity="0.35"/>
<stop offset="0.615" stop-color="white" stop-opacity="0.19"/>
</linearGradient>
<linearGradient id="paint11_linear_2441_2329" x1="304" y1="107" x2="304" y2="143" gradientUnits="userSpaceOnUse">
<stop stop-color="white" stop-opacity="0.6"/>
<stop offset="1" stop-color="white" stop-opacity="0.5"/>
</linearGradient>
<linearGradient id="paint12_linear_2441_2329" x1="304" y1="107" x2="304" y2="143" gradientUnits="userSpaceOnUse">
<stop stop-color="white"/>
<stop offset="1" stop-color="white" stop-opacity="0"/>
</linearGradient>
</defs>
</svg>
