<svg viewBox="0 0 451 159" fill="none" xmlns="http://www.w3.org/2000/svg">
<g opacity="0.9" filter="url(#filter0_bdd_2441_2328)">
<rect x="5" y="1.10034" width="198" height="148" rx="12" fill="url(#paint0_linear_2441_2328)" shape-rendering="crispEdges"/>
<g filter="url(#filter1_bdd_2441_2328)">
<rect x="11" y="7.10034" width="186" height="136" rx="8" fill="url(#paint1_linear_2441_2328)" shape-rendering="crispEdges"/>
<rect x="10.5" y="6.60034" width="187" height="137" rx="8.5" stroke="url(#paint2_linear_2441_2328)" style="mix-blend-mode:overlay" shape-rendering="crispEdges"/>
<rect x="10.5" y="6.60034" width="187" height="137" rx="8.5" stroke="white" stroke-opacity="0.1" shape-rendering="crispEdges"/>
<rect x="17" y="13.1003" width="174" height="4" fill="url(#paint3_linear_2441_2328)"/>
<rect x="15" y="11.1003" width="178" height="8" stroke="url(#paint4_linear_2441_2328)" stroke-opacity="0.4" stroke-width="4"/>
<circle cx="19" cy="15.1003" r="2" fill="#D1D5DB"/>
<circle cx="26" cy="15.1003" r="2" fill="#D1D5DB"/>
<circle cx="33" cy="15.1003" r="2" fill="#D1D5DB"/>
<rect x="54" y="13.1003" width="100" height="4" fill="#D1D5DB"/>
<rect x="64" y="34.1003" width="80" height="36" stroke="url(#paint5_linear_2441_2328)" stroke-opacity="0.4" stroke-width="4"/>
<rect x="74" y="36.1003" width="60" height="10" rx="5" fill="#7857FF"/>
<rect x="66" y="50.1003" width="76" height="2" fill="#D1D5DB"/>
<rect x="73" y="56.1003" width="62" height="2" fill="#D1D5DB"/>
<rect x="95" y="62.1003" width="18" height="6" rx="3" fill="#A78BFA"/>
<path d="M30 95.1003C30 90.6821 33.5817 87.1003 38 87.1003H170C174.418 87.1003 178 90.6821 178 95.1003V137.1H30V95.1003Z" fill="url(#paint6_linear_2441_2328)" fill-opacity="0.6"/>
</g>
</g>
<g filter="url(#filter2_bdd_2441_2328)">
<rect x="276" y="5" width="40" height="40" rx="20" stroke="url(#paint7_linear_2441_2328)" stroke-opacity="0.4" stroke-width="4" shape-rendering="crispEdges"/>
<g filter="url(#filter3_bdd_2441_2328)">
<rect x="278" y="7" width="36" height="36" rx="18" fill="url(#paint8_linear_2441_2328)" shape-rendering="crispEdges"/>
<rect x="277.5" y="6.5" width="37" height="37" rx="18.5" stroke="url(#paint9_linear_2441_2328)" style="mix-blend-mode:overlay" shape-rendering="crispEdges"/>
<rect x="277.5" y="6.5" width="37" height="37" rx="18.5" stroke="white" stroke-opacity="0.1" shape-rendering="crispEdges"/>
<path fill-rule="evenodd" clip-rule="evenodd" d="M290.606 27.9691C290.859 28.2967 290.799 28.7678 290.472 29.0213C289.879 29.4798 289.5 30.1954 289.5 31C289.5 31.1569 289.514 31.31 289.542 31.4582C289.69 31.4856 289.843 31.5 290 31.5C290.805 31.5 291.52 31.1208 291.979 30.5282C292.232 30.2006 292.703 30.1405 293.031 30.394C293.358 30.6475 293.419 31.1186 293.165 31.4462C292.435 32.39 291.288 33 290 33C289.54 33 289.097 32.9221 288.683 32.778C288.467 32.7027 288.297 32.5328 288.222 32.3166C288.078 31.9033 288 31.46 288 31C288 29.7116 288.61 28.5653 289.554 27.835C289.881 27.5815 290.352 27.6415 290.606 27.9691Z" fill="#374151"/>
<path fill-rule="evenodd" clip-rule="evenodd" d="M291.752 27C292.407 27.8376 293.162 28.5929 294 29.2476V33.25C294 33.6642 294.336 34 294.75 34C297.511 34 299.75 31.7614 299.75 29C299.75 28.5097 299.679 28.035 299.547 27.5861C302.847 25.2297 305 21.3665 305 17C305 16.9123 304.999 16.8249 304.997 16.7376C304.989 16.335 304.665 16.0106 304.262 16.0026C304.175 16.0009 304.088 16 304 16C299.633 16 295.77 18.1533 293.414 21.4529C292.965 21.3208 292.49 21.25 292 21.25C289.239 21.25 287 23.4886 287 26.25C287 26.6642 287.336 27 287.75 27H291.752ZM299 24C300.105 24 301 23.1046 301 22C301 20.8954 300.105 20 299 20C297.895 20 297 20.8954 297 22C297 23.1046 297.895 24 299 24Z" fill="#374151"/>
</g>
</g>
<path d="M336.672 22.4929C336.619 22.0223 336.4 21.6577 336.016 21.3991C335.631 21.1373 335.147 21.0064 334.564 21.0064C334.146 21.0064 333.785 21.0727 333.48 21.2053C333.175 21.3345 332.938 21.5135 332.769 21.7422C332.603 21.9676 332.521 22.2244 332.521 22.5128C332.521 22.7547 332.577 22.9635 332.69 23.1392C332.806 23.3149 332.956 23.4624 333.142 23.5817C333.331 23.6977 333.533 23.7955 333.749 23.875C333.964 23.9512 334.171 24.0142 334.37 24.0639L335.364 24.3224C335.689 24.402 336.022 24.5097 336.364 24.6456C336.705 24.7815 337.022 24.9605 337.313 25.1825C337.605 25.4046 337.84 25.6797 338.019 26.0078C338.201 26.3359 338.293 26.7287 338.293 27.1861C338.293 27.7628 338.143 28.2749 337.845 28.7223C337.55 29.1697 337.121 29.5227 336.558 29.7812C335.997 30.0398 335.32 30.169 334.524 30.169C333.762 30.169 333.102 30.0481 332.545 29.8061C331.989 29.5642 331.553 29.2211 331.238 28.777C330.923 28.3295 330.749 27.7992 330.716 27.1861H332.257C332.287 27.554 332.406 27.8606 332.615 28.1058C332.827 28.3478 333.097 28.5284 333.425 28.6477C333.757 28.7637 334.12 28.8217 334.514 28.8217C334.948 28.8217 335.335 28.7538 335.673 28.6179C336.014 28.4787 336.282 28.2865 336.478 28.0412C336.674 27.7926 336.771 27.5026 336.771 27.1712C336.771 26.8696 336.685 26.6226 336.513 26.4304C336.344 26.2382 336.113 26.0791 335.822 25.9531C335.533 25.8272 335.207 25.7161 334.842 25.62L333.639 25.2919C332.824 25.0698 332.178 24.7434 331.7 24.3125C331.226 23.8816 330.989 23.3116 330.989 22.6023C330.989 22.0156 331.148 21.5036 331.467 21.0661C331.785 20.6286 332.216 20.2888 332.759 20.0469C333.303 19.8016 333.916 19.679 334.599 19.679C335.288 19.679 335.896 19.8 336.423 20.0419C336.954 20.2839 337.371 20.617 337.676 21.0412C337.981 21.4621 338.14 21.946 338.153 22.4929H336.672ZM341.496 25.4659V30H340.009V22.3636H341.436V23.6065H341.53C341.706 23.2022 341.981 22.8774 342.356 22.6321C342.733 22.3868 343.209 22.2642 343.782 22.2642C344.303 22.2642 344.759 22.3736 345.15 22.5923C345.541 22.8078 345.844 23.1293 346.059 23.5568C346.275 23.9844 346.383 24.513 346.383 25.1428V30H344.896V25.3217C344.896 24.7682 344.752 24.3357 344.464 24.0241C344.175 23.7093 343.779 23.5518 343.275 23.5518C342.931 23.5518 342.624 23.6264 342.356 23.7756C342.09 23.9247 341.88 24.1435 341.724 24.4318C341.572 24.7169 341.496 25.0616 341.496 25.4659ZM351.667 30.1541C350.915 30.1541 350.267 29.9934 349.724 29.6719C349.183 29.3471 348.766 28.8913 348.471 28.3047C348.179 27.7147 348.033 27.0237 348.033 26.2315C348.033 25.4493 348.179 24.7599 348.471 24.1634C348.766 23.5668 349.177 23.1011 349.704 22.7663C350.234 22.4316 350.854 22.2642 351.563 22.2642C351.994 22.2642 352.412 22.3355 352.816 22.478C353.22 22.6205 353.583 22.8442 353.905 23.1491C354.226 23.4541 354.48 23.8501 354.665 24.3374C354.851 24.8213 354.944 25.4096 354.944 26.1023V26.6293H348.873V25.5156H353.487C353.487 25.1245 353.407 24.7782 353.248 24.4766C353.089 24.1716 352.866 23.9313 352.577 23.7557C352.292 23.58 351.957 23.4922 351.573 23.4922C351.155 23.4922 350.791 23.5949 350.479 23.8004C350.171 24.0026 349.932 24.2678 349.763 24.5959C349.598 24.9207 349.515 25.2737 349.515 25.6548V26.5249C349.515 27.0353 349.604 27.4695 349.783 27.8274C349.965 28.1854 350.219 28.4588 350.544 28.6477C350.869 28.8333 351.248 28.9261 351.682 28.9261C351.964 28.9261 352.221 28.8864 352.453 28.8068C352.685 28.724 352.885 28.6013 353.055 28.4389C353.224 28.2765 353.353 28.076 353.442 27.8374L354.849 28.0909C354.737 28.5052 354.534 28.8681 354.243 29.1797C353.954 29.4879 353.591 29.7282 353.154 29.9006C352.72 30.0696 352.224 30.1541 351.667 30.1541ZM358.08 19.8182V30H356.593V19.8182H358.08Z" fill="#1F2937"/>
<g filter="url(#filter4_bdd_2441_2328)">
<rect x="276" y="55" width="40" height="40" rx="20" stroke="url(#paint10_linear_2441_2328)" stroke-opacity="0.4" stroke-width="4" shape-rendering="crispEdges"/>
<g filter="url(#filter5_bdd_2441_2328)">
<rect x="278" y="57" width="36" height="36" rx="18" fill="url(#paint11_linear_2441_2328)" shape-rendering="crispEdges"/>
<rect x="277.5" y="56.5" width="37" height="37" rx="18.5" stroke="url(#paint12_linear_2441_2328)" style="mix-blend-mode:overlay" shape-rendering="crispEdges"/>
<rect x="277.5" y="56.5" width="37" height="37" rx="18.5" stroke="white" stroke-opacity="0.1" shape-rendering="crispEdges"/>
<path fill-rule="evenodd" clip-rule="evenodd" d="M298.577 69.8783C298.684 69.4782 299.095 69.2408 299.496 69.348L304.277 70.6291C304.469 70.6806 304.633 70.8063 304.732 70.9785C304.832 71.1508 304.858 71.3555 304.807 71.5477L303.526 76.3287C303.419 76.7288 303.007 76.9663 302.607 76.8591C302.207 76.7519 301.97 76.3406 302.077 75.9405L302.886 72.9195C300.63 74.3097 298.754 76.0901 297.293 78.1222C297.165 78.3009 296.965 78.4142 296.745 78.432C296.526 78.4499 296.31 78.3704 296.154 78.2148L293 75.0607L288.28 79.7803C287.987 80.0732 287.513 80.0732 287.22 79.7803C286.927 79.4874 286.927 79.0126 287.22 78.7197L292.47 73.4697C292.763 73.1768 293.237 73.1768 293.53 73.4697L296.604 76.5433C298.105 74.6305 299.963 72.9506 302.149 71.612L299.107 70.7969C298.707 70.6897 298.47 70.2784 298.577 69.8783Z" fill="#374151"/>
</g>
</g>
<path d="M338.009 73.0348C337.913 72.7332 337.784 72.4631 337.621 72.2244C337.462 71.9825 337.272 71.777 337.05 71.608C336.828 71.4356 336.574 71.3047 336.289 71.2152C336.007 71.1257 335.697 71.081 335.359 71.081C334.786 71.081 334.269 71.2285 333.808 71.5234C333.348 71.8184 332.983 72.2509 332.714 72.821C332.449 73.3878 332.317 74.0821 332.317 74.9041C332.317 75.7294 332.451 76.4271 332.719 76.9972C332.988 77.5672 333.356 77.9998 333.823 78.2947C334.29 78.5897 334.822 78.7372 335.419 78.7372C335.973 78.7372 336.455 78.6245 336.866 78.3991C337.28 78.1738 337.6 77.8556 337.825 77.4446C338.054 77.0303 338.168 76.5431 338.168 75.983L338.566 76.0575H335.653V74.7898H339.655V75.9482C339.655 76.8033 339.473 77.5457 339.108 78.1754C338.747 78.8018 338.246 79.2857 337.607 79.6271C336.97 79.9685 336.241 80.1392 335.419 80.1392C334.498 80.1392 333.689 79.9271 332.993 79.5028C332.3 79.0786 331.76 78.477 331.372 77.6982C330.984 76.916 330.79 75.9879 330.79 74.9141C330.79 74.102 330.903 73.3729 331.129 72.7266C331.354 72.0803 331.67 71.5317 332.078 71.081C332.489 70.6269 332.971 70.2805 333.525 70.0419C334.082 69.8 334.69 69.679 335.349 69.679C335.9 69.679 336.412 69.7602 336.886 69.9226C337.363 70.085 337.787 70.3153 338.158 70.6136C338.533 70.9119 338.843 71.2666 339.088 71.6776C339.333 72.0852 339.499 72.5376 339.585 73.0348H338.009ZM344.777 80.1541C344.024 80.1541 343.376 79.9934 342.833 79.6719C342.293 79.3471 341.875 78.8913 341.58 78.3047C341.288 77.7147 341.143 77.0237 341.143 76.2315C341.143 75.4493 341.288 74.7599 341.58 74.1634C341.875 73.5668 342.286 73.1011 342.813 72.7663C343.343 72.4316 343.963 72.2642 344.672 72.2642C345.103 72.2642 345.521 72.3355 345.925 72.478C346.33 72.6205 346.693 72.8442 347.014 73.1491C347.336 73.4541 347.589 73.8501 347.775 74.3374C347.96 74.8213 348.053 75.4096 348.053 76.1023V76.6293H341.983V75.5156H346.596C346.596 75.1245 346.517 74.7782 346.358 74.4766C346.199 74.1716 345.975 73.9313 345.687 73.7557C345.402 73.58 345.067 73.4922 344.682 73.4922C344.265 73.4922 343.9 73.5949 343.589 73.8004C343.28 74.0026 343.042 74.2678 342.873 74.5959C342.707 74.9207 342.624 75.2737 342.624 75.6548V76.5249C342.624 77.0353 342.714 77.4695 342.893 77.8274C343.075 78.1854 343.328 78.4588 343.653 78.6477C343.978 78.8333 344.358 78.9261 344.792 78.9261C345.073 78.9261 345.33 78.8864 345.562 78.8068C345.794 78.724 345.995 78.6013 346.164 78.4389C346.333 78.2765 346.462 78.076 346.552 77.8374L347.959 78.0909C347.846 78.5052 347.644 78.8681 347.352 79.1797C347.064 79.4879 346.701 79.7282 346.263 79.9006C345.829 80.0696 345.334 80.1541 344.777 80.1541ZM352.919 80.1541C352.203 80.1541 351.578 79.9901 351.045 79.6619C350.511 79.3338 350.097 78.8748 349.802 78.2848C349.507 77.6948 349.359 77.0054 349.359 76.2166C349.359 75.4245 349.507 74.7318 349.802 74.1385C350.097 73.5452 350.511 73.0845 351.045 72.7564C351.578 72.4283 352.203 72.2642 352.919 72.2642C353.635 72.2642 354.26 72.4283 354.793 72.7564C355.327 73.0845 355.741 73.5452 356.036 74.1385C356.331 74.7318 356.479 75.4245 356.479 76.2166C356.479 77.0054 356.331 77.6948 356.036 78.2848C355.741 78.8748 355.327 79.3338 354.793 79.6619C354.26 79.9901 353.635 80.1541 352.919 80.1541ZM352.924 78.9062C353.388 78.9062 353.772 78.7836 354.077 78.5384C354.382 78.2931 354.608 77.9666 354.754 77.5589C354.903 77.1513 354.977 76.7022 354.977 76.2116C354.977 75.7244 354.903 75.277 354.754 74.8693C354.608 74.4583 354.382 74.1286 354.077 73.88C353.772 73.6314 353.388 73.5071 352.924 73.5071C352.457 73.5071 352.069 73.6314 351.761 73.88C351.456 74.1286 351.229 74.4583 351.08 74.8693C350.934 75.277 350.861 75.7244 350.861 76.2116C350.861 76.7022 350.934 77.1513 351.08 77.5589C351.229 77.9666 351.456 78.2931 351.761 78.5384C352.069 78.7836 352.457 78.9062 352.924 78.9062ZM358.138 82.8636V72.3636H359.59V73.6016H359.714C359.8 73.4425 359.924 73.2585 360.087 73.0497C360.249 72.8409 360.475 72.6586 360.763 72.5028C361.051 72.3438 361.432 72.2642 361.906 72.2642C362.523 72.2642 363.073 72.42 363.557 72.7315C364.041 73.0431 364.42 73.4922 364.695 74.0788C364.974 74.6655 365.113 75.3714 365.113 76.1967C365.113 77.022 364.976 77.7296 364.7 78.3196C364.425 78.9062 364.048 79.3587 363.567 79.6768C363.086 79.9917 362.538 80.1491 361.921 80.1491C361.457 80.1491 361.078 80.0713 360.783 79.9155C360.491 79.7597 360.262 79.5774 360.097 79.3686C359.931 79.1598 359.803 78.9742 359.714 78.8118H359.624V82.8636H358.138ZM359.595 76.1818C359.595 76.7187 359.673 77.1894 359.828 77.5938C359.984 77.9981 360.209 78.3146 360.504 78.5433C360.799 78.7687 361.161 78.8814 361.588 78.8814C362.032 78.8814 362.404 78.7637 362.702 78.5284C363 78.2898 363.226 77.9666 363.378 77.5589C363.534 77.1513 363.612 76.6922 363.612 76.1818C363.612 75.678 363.535 75.2256 363.383 74.8246C363.234 74.4235 363.008 74.107 362.707 73.875C362.409 73.643 362.036 73.527 361.588 73.527C361.157 73.527 360.793 73.638 360.494 73.8601C360.2 74.0821 359.976 74.392 359.823 74.7898C359.671 75.1875 359.595 75.6515 359.595 76.1818ZM370.343 72.3636V73.5568H366.172V72.3636H370.343ZM367.291 70.5341H368.777V77.7578C368.777 78.0462 368.82 78.2633 368.906 78.4091C368.993 78.5516 369.104 78.6494 369.24 78.7024C369.379 78.7521 369.53 78.777 369.692 78.777C369.811 78.777 369.916 78.7687 370.005 78.7521C370.095 78.7356 370.164 78.7223 370.214 78.7124L370.482 79.9403C370.396 79.9735 370.274 80.0066 370.115 80.0398C369.955 80.0762 369.757 80.0961 369.518 80.0994C369.127 80.1061 368.762 80.0365 368.424 79.8906C368.086 79.7448 367.813 79.5194 367.604 79.2145C367.395 78.9096 367.291 78.5268 367.291 78.0661V70.5341ZM371.988 80V72.3636H373.474V80H371.988ZM372.738 71.1854C372.48 71.1854 372.258 71.0992 372.072 70.9268C371.89 70.7512 371.799 70.5424 371.799 70.3004C371.799 70.0552 371.89 69.8464 372.072 69.674C372.258 69.4983 372.48 69.4105 372.738 69.4105C372.997 69.4105 373.217 69.4983 373.4 69.674C373.585 69.8464 373.678 70.0552 373.678 70.3004C373.678 70.5424 373.585 70.7512 373.4 70.9268C373.217 71.0992 372.997 71.1854 372.738 71.1854ZM375.474 80V72.3636H376.901V73.6065H376.995C377.154 73.1856 377.414 72.8575 377.776 72.6222C378.137 72.3835 378.57 72.2642 379.073 72.2642C379.584 72.2642 380.011 72.3835 380.356 72.6222C380.704 72.8608 380.961 73.1889 381.127 73.6065H381.206C381.388 73.1989 381.678 72.8741 382.076 72.6321C382.474 72.3868 382.948 72.2642 383.498 72.2642C384.191 72.2642 384.756 72.4813 385.193 72.9155C385.634 73.3497 385.855 74.0043 385.855 74.8793V80H384.368V75.0185C384.368 74.5014 384.227 74.1269 383.945 73.8949C383.664 73.6629 383.327 73.5469 382.936 73.5469C382.452 73.5469 382.076 73.696 381.808 73.9943C381.539 74.2893 381.405 74.6688 381.405 75.1328V80H379.923V74.924C379.923 74.5097 379.794 74.1766 379.536 73.9247C379.277 73.6728 378.941 73.5469 378.526 73.5469C378.245 73.5469 377.985 73.6214 377.746 73.7706C377.511 73.9164 377.32 74.1203 377.174 74.3821C377.032 74.6439 376.96 74.9472 376.96 75.2919V80H375.474ZM391.138 80.1541C390.386 80.1541 389.738 79.9934 389.194 79.6719C388.654 79.3471 388.236 78.8913 387.941 78.3047C387.65 77.7147 387.504 77.0237 387.504 76.2315C387.504 75.4493 387.65 74.7599 387.941 74.1634C388.236 73.5668 388.647 73.1011 389.174 72.7663C389.705 72.4316 390.324 72.2642 391.034 72.2642C391.465 72.2642 391.882 72.3355 392.287 72.478C392.691 72.6205 393.054 72.8442 393.375 73.1491C393.697 73.4541 393.95 73.8501 394.136 74.3374C394.322 74.8213 394.414 75.4096 394.414 76.1023V76.6293H388.344V75.5156H392.958C392.958 75.1245 392.878 74.7782 392.719 74.4766C392.56 74.1716 392.336 73.9313 392.048 73.7557C391.763 73.58 391.428 73.4922 391.044 73.4922C390.626 73.4922 390.261 73.5949 389.95 73.8004C389.642 74.0026 389.403 74.2678 389.234 74.5959C389.068 74.9207 388.985 75.2737 388.985 75.6548V76.5249C388.985 77.0353 389.075 77.4695 389.254 77.8274C389.436 78.1854 389.69 78.4588 390.015 78.6477C390.339 78.8333 390.719 78.9261 391.153 78.9261C391.435 78.9261 391.692 78.8864 391.924 78.8068C392.156 78.724 392.356 78.6013 392.525 78.4389C392.694 78.2765 392.824 78.076 392.913 77.8374L394.32 78.0909C394.207 78.5052 394.005 78.8681 393.713 79.1797C393.425 79.4879 393.062 79.7282 392.625 79.9006C392.19 80.0696 391.695 80.1541 391.138 80.1541ZM399.355 80.1541C398.603 80.1541 397.955 79.9934 397.411 79.6719C396.871 79.3471 396.453 78.8913 396.158 78.3047C395.867 77.7147 395.721 77.0237 395.721 76.2315C395.721 75.4493 395.867 74.7599 396.158 74.1634C396.453 73.5668 396.864 73.1011 397.391 72.7663C397.921 72.4316 398.541 72.2642 399.251 72.2642C399.681 72.2642 400.099 72.3355 400.503 72.478C400.908 72.6205 401.271 72.8442 401.592 73.1491C401.914 73.4541 402.167 73.8501 402.353 74.3374C402.538 74.8213 402.631 75.4096 402.631 76.1023V76.6293H396.561V75.5156H401.175C401.175 75.1245 401.095 74.7782 400.936 74.4766C400.777 74.1716 400.553 73.9313 400.265 73.7557C399.98 73.58 399.645 73.4922 399.26 73.4922C398.843 73.4922 398.478 73.5949 398.167 73.8004C397.858 74.0026 397.62 74.2678 397.451 74.5959C397.285 74.9207 397.202 75.2737 397.202 75.6548V76.5249C397.202 77.0353 397.292 77.4695 397.471 77.8274C397.653 78.1854 397.907 78.4588 398.231 78.6477C398.556 78.8333 398.936 78.9261 399.37 78.9261C399.652 78.9261 399.908 78.8864 400.14 78.8068C400.372 78.724 400.573 78.6013 400.742 78.4389C400.911 78.2765 401.04 78.076 401.13 77.8374L402.537 78.0909C402.424 78.5052 402.222 78.8681 401.93 79.1797C401.642 79.4879 401.279 79.7282 400.841 79.9006C400.407 80.0696 399.912 80.1541 399.355 80.1541ZM404.281 80V72.3636H405.717V73.5767H405.797C405.936 73.1657 406.181 72.8426 406.533 72.6072C406.887 72.3686 407.288 72.2493 407.736 72.2493C407.829 72.2493 407.938 72.2526 408.064 72.2592C408.193 72.2659 408.294 72.2741 408.367 72.2841V73.706C408.308 73.6894 408.201 73.6712 408.049 73.6513C407.897 73.6281 407.744 73.6165 407.592 73.6165C407.24 73.6165 406.927 73.6911 406.652 73.8402C406.38 73.986 406.165 74.1899 406.006 74.4517C405.847 74.7102 405.767 75.0052 405.767 75.3366V80H404.281ZM412.239 80.1491C411.622 80.1491 411.072 79.9917 410.588 79.6768C410.108 79.3587 409.73 78.9062 409.455 78.3196C409.183 77.7296 409.047 77.022 409.047 76.1967C409.047 75.3714 409.185 74.6655 409.46 74.0788C409.738 73.4922 410.119 73.0431 410.603 72.7315C411.087 72.42 411.636 72.2642 412.249 72.2642C412.723 72.2642 413.104 72.3438 413.392 72.5028C413.684 72.6586 413.909 72.8409 414.068 73.0497C414.231 73.2585 414.357 73.4425 414.446 73.6016H414.536V69.8182H416.022V80H414.57V78.8118H414.446C414.357 78.9742 414.227 79.1598 414.058 79.3686C413.893 79.5774 413.664 79.7597 413.372 79.9155C413.081 80.0713 412.703 80.1491 412.239 80.1491ZM412.567 78.8814C412.994 78.8814 413.356 78.7687 413.651 78.5433C413.949 78.3146 414.174 77.9981 414.327 77.5938C414.483 77.1894 414.561 76.7187 414.561 76.1818C414.561 75.6515 414.484 75.1875 414.332 74.7898C414.179 74.392 413.956 74.0821 413.661 73.8601C413.366 73.638 413.001 73.527 412.567 73.527C412.119 73.527 411.747 73.643 411.448 73.875C411.15 74.107 410.925 74.4235 410.772 74.8246C410.623 75.2256 410.548 75.678 410.548 76.1818C410.548 76.6922 410.625 77.1513 410.777 77.5589C410.93 77.9666 411.155 78.2898 411.453 78.5284C411.755 78.7637 412.126 78.8814 412.567 78.8814Z" fill="#1F2937"/>
<g filter="url(#filter6_bdd_2441_2328)">
<rect x="276" y="105" width="40" height="40" rx="20" stroke="url(#paint13_linear_2441_2328)" stroke-opacity="0.4" stroke-width="4" shape-rendering="crispEdges"/>
<g filter="url(#filter7_bdd_2441_2328)">
<rect x="278" y="107" width="36" height="36" rx="18" fill="url(#paint14_linear_2441_2328)" shape-rendering="crispEdges"/>
<rect x="277.5" y="106.5" width="37" height="37" rx="18.5" stroke="url(#paint15_linear_2441_2328)" style="mix-blend-mode:overlay" shape-rendering="crispEdges"/>
<rect x="277.5" y="106.5" width="37" height="37" rx="18.5" stroke="white" stroke-opacity="0.1" shape-rendering="crispEdges"/>
<path fill-rule="evenodd" clip-rule="evenodd" d="M292.28 120.22C292.573 120.513 292.573 120.987 292.28 121.28L288.561 125L292.28 128.72C292.573 129.013 292.573 129.487 292.28 129.78C291.987 130.073 291.513 130.073 291.22 129.78L286.97 125.53C286.677 125.237 286.677 124.763 286.97 124.47L291.22 120.22C291.513 119.927 291.987 119.927 292.28 120.22ZM299.72 120.22C300.013 119.927 300.487 119.927 300.78 120.22L305.03 124.47C305.323 124.763 305.323 125.237 305.03 125.53L300.78 129.78C300.487 130.073 300.013 130.073 299.72 129.78C299.427 129.487 299.427 129.013 299.72 128.72L303.439 125L299.72 121.28C299.427 120.987 299.427 120.513 299.72 120.22Z" fill="#374151"/>
<path fill-rule="evenodd" clip-rule="evenodd" d="M297.377 117.011C297.786 117.081 298.059 117.469 297.989 117.877L295.489 132.377C295.419 132.786 295.031 133.059 294.623 132.989C294.214 132.919 293.941 132.531 294.011 132.123L296.511 117.623C296.581 117.214 296.969 116.941 297.377 117.011Z" fill="#374151"/>
</g>
</g>
<path d="M339.963 124.909C339.963 125.996 339.764 126.931 339.366 127.713C338.969 128.492 338.424 129.092 337.731 129.513C337.041 129.93 336.258 130.139 335.379 130.139C334.498 130.139 333.71 129.93 333.018 129.513C332.328 129.092 331.785 128.49 331.387 127.708C330.989 126.926 330.79 125.993 330.79 124.909C330.79 123.822 330.989 122.889 331.387 122.11C331.785 121.328 332.328 120.728 333.018 120.31C333.71 119.889 334.498 119.679 335.379 119.679C336.258 119.679 337.041 119.889 337.731 120.31C338.424 120.728 338.969 121.328 339.366 122.11C339.764 122.889 339.963 123.822 339.963 124.909ZM338.442 124.909C338.442 124.08 338.308 123.383 338.039 122.816C337.774 122.246 337.409 121.815 336.945 121.523C336.485 121.228 335.963 121.081 335.379 121.081C334.793 121.081 334.269 121.228 333.808 121.523C333.348 121.815 332.983 122.246 332.714 122.816C332.449 123.383 332.317 124.08 332.317 124.909C332.317 125.738 332.449 126.437 332.714 127.007C332.983 127.574 333.348 128.005 333.808 128.3C334.269 128.591 334.793 128.737 335.379 128.737C335.963 128.737 336.485 128.591 336.945 128.3C337.409 128.005 337.774 127.574 338.039 127.007C338.308 126.437 338.442 125.738 338.442 124.909ZM341.759 132.864V122.364H343.211V123.602H343.335C343.421 123.442 343.546 123.259 343.708 123.05C343.87 122.841 344.096 122.659 344.384 122.503C344.672 122.344 345.054 122.264 345.528 122.264C346.144 122.264 346.694 122.42 347.178 122.732C347.662 123.043 348.041 123.492 348.317 124.079C348.595 124.665 348.734 125.371 348.734 126.197C348.734 127.022 348.597 127.73 348.322 128.32C348.046 128.906 347.669 129.359 347.188 129.677C346.707 129.992 346.159 130.149 345.542 130.149C345.078 130.149 344.699 130.071 344.404 129.915C344.112 129.76 343.884 129.577 343.718 129.369C343.552 129.16 343.425 128.974 343.335 128.812H343.246V132.864H341.759ZM343.216 126.182C343.216 126.719 343.294 127.189 343.449 127.594C343.605 127.998 343.831 128.315 344.126 128.543C344.421 128.769 344.782 128.881 345.209 128.881C345.653 128.881 346.025 128.764 346.323 128.528C346.621 128.29 346.847 127.967 346.999 127.559C347.155 127.151 347.233 126.692 347.233 126.182C347.233 125.678 347.157 125.226 347.004 124.825C346.855 124.424 346.63 124.107 346.328 123.875C346.03 123.643 345.657 123.527 345.209 123.527C344.778 123.527 344.414 123.638 344.116 123.86C343.821 124.082 343.597 124.392 343.444 124.79C343.292 125.187 343.216 125.652 343.216 126.182ZM354.105 130V122.364H355.532V123.607H355.626C355.785 123.186 356.045 122.857 356.407 122.622C356.768 122.384 357.2 122.264 357.704 122.264C358.215 122.264 358.642 122.384 358.987 122.622C359.335 122.861 359.592 123.189 359.757 123.607H359.837C360.019 123.199 360.309 122.874 360.707 122.632C361.105 122.387 361.579 122.264 362.129 122.264C362.822 122.264 363.387 122.481 363.824 122.915C364.265 123.35 364.485 124.004 364.485 124.879V130H362.999V125.018C362.999 124.501 362.858 124.127 362.576 123.895C362.295 123.663 361.958 123.547 361.567 123.547C361.083 123.547 360.707 123.696 360.439 123.994C360.17 124.289 360.036 124.669 360.036 125.133V130H358.554V124.924C358.554 124.51 358.425 124.177 358.167 123.925C357.908 123.673 357.572 123.547 357.157 123.547C356.876 123.547 356.615 123.621 356.377 123.771C356.141 123.916 355.951 124.12 355.805 124.382C355.663 124.644 355.591 124.947 355.591 125.292V130H354.105ZM368.7 130.169C368.216 130.169 367.779 130.08 367.388 129.901C366.997 129.718 366.687 129.455 366.458 129.11C366.233 128.765 366.12 128.343 366.12 127.842C366.12 127.411 366.203 127.057 366.368 126.778C366.534 126.5 366.758 126.28 367.04 126.117C367.321 125.955 367.636 125.832 367.984 125.749C368.332 125.666 368.687 125.603 369.048 125.56C369.506 125.507 369.877 125.464 370.162 125.431C370.447 125.395 370.654 125.337 370.783 125.257C370.912 125.178 370.977 125.048 370.977 124.869V124.835C370.977 124.4 370.854 124.064 370.609 123.825C370.367 123.587 370.006 123.467 369.525 123.467C369.025 123.467 368.631 123.578 368.342 123.8C368.057 124.019 367.86 124.263 367.751 124.531L366.354 124.213C366.519 123.749 366.761 123.375 367.079 123.089C367.401 122.801 367.77 122.592 368.188 122.463C368.606 122.33 369.045 122.264 369.506 122.264C369.81 122.264 370.134 122.301 370.475 122.374C370.82 122.443 371.141 122.572 371.439 122.761C371.741 122.95 371.988 123.22 372.18 123.572C372.372 123.92 372.469 124.372 372.469 124.929V130H371.017V128.956H370.957C370.861 129.148 370.717 129.337 370.525 129.523C370.332 129.708 370.086 129.862 369.784 129.985C369.482 130.108 369.121 130.169 368.7 130.169ZM369.023 128.976C369.434 128.976 369.786 128.895 370.077 128.732C370.372 128.57 370.596 128.358 370.748 128.096C370.904 127.831 370.982 127.547 370.982 127.246V126.261C370.929 126.314 370.826 126.364 370.674 126.411C370.525 126.454 370.354 126.492 370.162 126.525C369.97 126.555 369.782 126.583 369.6 126.609C369.418 126.633 369.265 126.652 369.143 126.669C368.854 126.705 368.591 126.767 368.352 126.853C368.117 126.939 367.928 127.063 367.785 127.226C367.646 127.385 367.577 127.597 367.577 127.862C367.577 128.23 367.712 128.509 367.984 128.697C368.256 128.883 368.602 128.976 369.023 128.976ZM376.671 130.169C376.187 130.169 375.749 130.08 375.358 129.901C374.967 129.718 374.657 129.455 374.429 129.11C374.203 128.765 374.091 128.343 374.091 127.842C374.091 127.411 374.173 127.057 374.339 126.778C374.505 126.5 374.729 126.28 375.01 126.117C375.292 125.955 375.607 125.832 375.955 125.749C376.303 125.666 376.658 125.603 377.019 125.56C377.476 125.507 377.847 125.464 378.132 125.431C378.417 125.395 378.625 125.337 378.754 125.257C378.883 125.178 378.948 125.048 378.948 124.869V124.835C378.948 124.4 378.825 124.064 378.58 123.825C378.338 123.587 377.977 123.467 377.496 123.467C376.996 123.467 376.601 123.578 376.313 123.8C376.028 124.019 375.831 124.263 375.721 124.531L374.324 124.213C374.49 123.749 374.732 123.375 375.05 123.089C375.372 122.801 375.741 122.592 376.159 122.463C376.576 122.33 377.016 122.264 377.476 122.264C377.781 122.264 378.104 122.301 378.446 122.374C378.79 122.443 379.112 122.572 379.41 122.761C379.712 122.95 379.959 123.22 380.151 123.572C380.343 123.92 380.439 124.372 380.439 124.929V130H378.988V128.956H378.928C378.832 129.148 378.688 129.337 378.495 129.523C378.303 129.708 378.056 129.862 377.755 129.985C377.453 130.108 377.092 130.169 376.671 130.169ZM376.994 128.976C377.405 128.976 377.756 128.895 378.048 128.732C378.343 128.57 378.567 128.358 378.719 128.096C378.875 127.831 378.953 127.547 378.953 127.246V126.261C378.9 126.314 378.797 126.364 378.645 126.411C378.495 126.454 378.325 126.492 378.132 126.525C377.94 126.555 377.753 126.583 377.571 126.609C377.388 126.633 377.236 126.652 377.113 126.669C376.825 126.705 376.561 126.767 376.323 126.853C376.087 126.939 375.899 127.063 375.756 127.226C375.617 127.385 375.547 127.597 375.547 127.862C375.547 128.23 375.683 128.509 375.955 128.697C376.227 128.883 376.573 128.976 376.994 128.976ZM385.984 122.364V123.557H381.813V122.364H385.984ZM382.931 120.534H384.418V127.758C384.418 128.046 384.461 128.263 384.547 128.409C384.633 128.552 384.744 128.649 384.88 128.702C385.019 128.752 385.17 128.777 385.333 128.777C385.452 128.777 385.556 128.769 385.646 128.752C385.735 128.736 385.805 128.722 385.855 128.712L386.123 129.94C386.037 129.973 385.914 130.007 385.755 130.04C385.596 130.076 385.397 130.096 385.159 130.099C384.767 130.106 384.403 130.036 384.065 129.891C383.727 129.745 383.453 129.519 383.244 129.214C383.036 128.91 382.931 128.527 382.931 128.066V120.534ZM398.343 123.035C398.247 122.733 398.118 122.463 397.955 122.224C397.796 121.982 397.606 121.777 397.384 121.608C397.162 121.436 396.908 121.305 396.623 121.215C396.341 121.126 396.031 121.081 395.693 121.081C395.12 121.081 394.603 121.228 394.142 121.523C393.682 121.818 393.317 122.251 393.048 122.821C392.783 123.388 392.651 124.082 392.651 124.904C392.651 125.729 392.785 126.427 393.053 126.997C393.322 127.567 393.69 128 394.157 128.295C394.624 128.59 395.156 128.737 395.753 128.737C396.307 128.737 396.789 128.625 397.2 128.399C397.614 128.174 397.934 127.856 398.159 127.445C398.388 127.03 398.502 126.543 398.502 125.983L398.9 126.058H395.987V124.79H399.989V125.948C399.989 126.803 399.807 127.546 399.442 128.175C399.081 128.802 398.58 129.286 397.941 129.627C397.304 129.969 396.575 130.139 395.753 130.139C394.832 130.139 394.023 129.927 393.327 129.503C392.634 129.079 392.094 128.477 391.706 127.698C391.318 126.916 391.124 125.988 391.124 124.914C391.124 124.102 391.237 123.373 391.463 122.727C391.688 122.08 392.004 121.532 392.412 121.081C392.823 120.627 393.305 120.281 393.859 120.042C394.416 119.8 395.024 119.679 395.683 119.679C396.234 119.679 396.746 119.76 397.22 119.923C397.697 120.085 398.121 120.315 398.492 120.614C398.867 120.912 399.177 121.267 399.422 121.678C399.667 122.085 399.833 122.538 399.919 123.035H398.343ZM405.111 130.154C404.358 130.154 403.71 129.993 403.167 129.672C402.627 129.347 402.209 128.891 401.914 128.305C401.622 127.715 401.477 127.024 401.477 126.232C401.477 125.449 401.622 124.76 401.914 124.163C402.209 123.567 402.62 123.101 403.147 122.766C403.677 122.432 404.297 122.264 405.006 122.264C405.437 122.264 405.855 122.335 406.259 122.478C406.664 122.621 407.027 122.844 407.348 123.149C407.67 123.454 407.923 123.85 408.109 124.337C408.294 124.821 408.387 125.41 408.387 126.102V126.629H402.317V125.516H406.93C406.93 125.125 406.851 124.778 406.692 124.477C406.533 124.172 406.309 123.931 406.021 123.756C405.736 123.58 405.401 123.492 405.016 123.492C404.599 123.492 404.234 123.595 403.923 123.8C403.614 124.003 403.376 124.268 403.207 124.596C403.041 124.921 402.958 125.274 402.958 125.655V126.525C402.958 127.035 403.048 127.469 403.227 127.827C403.409 128.185 403.662 128.459 403.987 128.648C404.312 128.833 404.692 128.926 405.126 128.926C405.407 128.926 405.664 128.886 405.896 128.807C406.128 128.724 406.329 128.601 406.498 128.439C406.667 128.277 406.796 128.076 406.886 127.837L408.293 128.091C408.18 128.505 407.978 128.868 407.686 129.18C407.398 129.488 407.035 129.728 406.597 129.901C406.163 130.07 405.668 130.154 405.111 130.154ZM410.036 130V122.364H411.463V123.607H411.558C411.717 123.186 411.977 122.857 412.338 122.622C412.7 122.384 413.132 122.264 413.636 122.264C414.146 122.264 414.574 122.384 414.919 122.622C415.267 122.861 415.523 123.189 415.689 123.607H415.769C415.951 123.199 416.241 122.874 416.639 122.632C417.036 122.387 417.51 122.264 418.061 122.264C418.753 122.264 419.318 122.481 419.756 122.915C420.197 123.35 420.417 124.004 420.417 124.879V130H418.931V125.018C418.931 124.501 418.79 124.127 418.508 123.895C418.226 123.663 417.89 123.547 417.499 123.547C417.015 123.547 416.639 123.696 416.37 123.994C416.102 124.289 415.968 124.669 415.968 125.133V130H414.486V124.924C414.486 124.51 414.357 124.177 414.098 123.925C413.84 123.673 413.503 123.547 413.089 123.547C412.807 123.547 412.547 123.621 412.308 123.771C412.073 123.916 411.883 124.12 411.737 124.382C411.594 124.644 411.523 124.947 411.523 125.292V130H410.036ZM424.632 130.169C424.148 130.169 423.71 130.08 423.319 129.901C422.928 129.718 422.618 129.455 422.39 129.11C422.164 128.765 422.051 128.343 422.051 127.842C422.051 127.411 422.134 127.057 422.3 126.778C422.466 126.5 422.69 126.28 422.971 126.117C423.253 125.955 423.568 125.832 423.916 125.749C424.264 125.666 424.618 125.603 424.98 125.56C425.437 125.507 425.808 125.464 426.093 125.431C426.378 125.395 426.586 125.337 426.715 125.257C426.844 125.178 426.909 125.048 426.909 124.869V124.835C426.909 124.4 426.786 124.064 426.541 123.825C426.299 123.587 425.938 123.467 425.457 123.467C424.957 123.467 424.562 123.578 424.274 123.8C423.989 124.019 423.792 124.263 423.682 124.531L422.285 124.213C422.451 123.749 422.693 123.375 423.011 123.089C423.333 122.801 423.702 122.592 424.12 122.463C424.537 122.33 424.976 122.264 425.437 122.264C425.742 122.264 426.065 122.301 426.407 122.374C426.751 122.443 427.073 122.572 427.371 122.761C427.673 122.95 427.92 123.22 428.112 123.572C428.304 123.92 428.4 124.372 428.4 124.929V130H426.949V128.956H426.889C426.793 129.148 426.649 129.337 426.456 129.523C426.264 129.708 426.017 129.862 425.716 129.985C425.414 130.108 425.053 130.169 424.632 130.169ZM424.955 128.976C425.366 128.976 425.717 128.895 426.009 128.732C426.304 128.57 426.528 128.358 426.68 128.096C426.836 127.831 426.914 127.547 426.914 127.246V126.261C426.861 126.314 426.758 126.364 426.605 126.411C426.456 126.454 426.286 126.492 426.093 126.525C425.901 126.555 425.714 126.583 425.532 126.609C425.349 126.633 425.197 126.652 425.074 126.669C424.786 126.705 424.522 126.767 424.284 126.853C424.048 126.939 423.859 127.063 423.717 127.226C423.578 127.385 423.508 127.597 423.508 127.862C423.508 128.23 423.644 128.509 423.916 128.697C424.188 128.883 424.534 128.976 424.955 128.976ZM432.602 130.169C432.119 130.169 431.681 130.08 431.29 129.901C430.899 129.718 430.589 129.455 430.36 129.11C430.135 128.765 430.022 128.343 430.022 127.842C430.022 127.411 430.105 127.057 430.271 126.778C430.436 126.5 430.66 126.28 430.942 126.117C431.224 125.955 431.539 125.832 431.887 125.749C432.235 125.666 432.589 125.603 432.95 125.56C433.408 125.507 433.779 125.464 434.064 125.431C434.349 125.395 434.556 125.337 434.686 125.257C434.815 125.178 434.879 125.048 434.879 124.869V124.835C434.879 124.4 434.757 124.064 434.512 123.825C434.27 123.587 433.908 123.467 433.428 123.467C432.927 123.467 432.533 123.578 432.244 123.8C431.959 124.019 431.762 124.263 431.653 124.531L430.256 124.213C430.422 123.749 430.664 123.375 430.982 123.089C431.303 122.801 431.673 122.592 432.09 122.463C432.508 122.33 432.947 122.264 433.408 122.264C433.713 122.264 434.036 122.301 434.377 122.374C434.722 122.443 435.044 122.572 435.342 122.761C435.643 122.95 435.89 123.22 436.083 123.572C436.275 123.92 436.371 124.372 436.371 124.929V130H434.919V128.956H434.86C434.763 129.148 434.619 129.337 434.427 129.523C434.235 129.708 433.988 129.862 433.686 129.985C433.385 130.108 433.023 130.169 432.602 130.169ZM432.926 128.976C433.337 128.976 433.688 128.895 433.98 128.732C434.275 128.57 434.498 128.358 434.651 128.096C434.807 127.831 434.884 127.547 434.884 127.246V126.261C434.831 126.314 434.729 126.364 434.576 126.411C434.427 126.454 434.256 126.492 434.064 126.525C433.872 126.555 433.685 126.583 433.502 126.609C433.32 126.633 433.168 126.652 433.045 126.669C432.757 126.705 432.493 126.767 432.254 126.853C432.019 126.939 431.83 127.063 431.688 127.226C431.548 127.385 431.479 127.597 431.479 127.862C431.479 128.23 431.615 128.509 431.887 128.697C432.158 128.883 432.505 128.976 432.926 128.976ZM439.718 127.41L439.708 125.595H439.967L443.009 122.364H444.789L441.319 126.043H441.085L439.718 127.41ZM438.351 130V119.818H439.837V130H438.351ZM443.173 130L440.439 126.371L441.463 125.332L444.998 130H443.173ZM449.708 122.364V123.557H445.537V122.364H449.708ZM446.656 120.534H448.142V127.758C448.142 128.046 448.185 128.263 448.272 128.409C448.358 128.552 448.469 128.649 448.605 128.702C448.744 128.752 448.895 128.777 449.057 128.777C449.176 128.777 449.281 128.769 449.37 128.752C449.46 128.736 449.529 128.722 449.579 128.712L449.848 129.94C449.761 129.973 449.639 130.007 449.48 130.04C449.321 130.076 449.122 130.096 448.883 130.099C448.492 130.106 448.127 130.036 447.789 129.891C447.451 129.745 447.178 129.519 446.969 129.214C446.76 128.91 446.656 128.527 446.656 128.066V120.534Z" fill="#1F2937"/>
<defs>
<filter id="filter0_bdd_2441_2328" x="-15" y="-18.8997" width="238" height="188" filterUnits="userSpaceOnUse" color-interpolation-filters="sRGB">
<feFlood flood-opacity="0" result="BackgroundImageFix"/>
<feGaussianBlur in="BackgroundImageFix" stdDeviation="10"/>
<feComposite in2="SourceAlpha" operator="in" result="effect1_backgroundBlur_2441_2328"/>
<feColorMatrix in="SourceAlpha" type="matrix" values="0 0 0 0 0 0 0 0 0 0 0 0 0 0 0 0 0 0 127 0" result="hardAlpha"/>
<feMorphology radius="1" operator="erode" in="SourceAlpha" result="effect2_dropShadow_2441_2328"/>
<feOffset dy="2"/>
<feGaussianBlur stdDeviation="2"/>
<feComposite in2="hardAlpha" operator="out"/>
<feColorMatrix type="matrix" values="0 0 0 0 0.08125 0 0 0 0 0.09 0 0 0 0 0.3 0 0 0 0.08 0"/>
<feBlend mode="normal" in2="effect1_backgroundBlur_2441_2328" result="effect2_dropShadow_2441_2328"/>
<feColorMatrix in="SourceAlpha" type="matrix" values="0 0 0 0 0 0 0 0 0 0 0 0 0 0 0 0 0 0 127 0" result="hardAlpha"/>
<feMorphology radius="1" operator="erode" in="SourceAlpha" result="effect3_dropShadow_2441_2328"/>
<feOffset dy="4"/>
<feGaussianBlur stdDeviation="3"/>
<feComposite in2="hardAlpha" operator="out"/>
<feColorMatrix type="matrix" values="0 0 0 0 0.10625 0 0 0 0 0.137875 0 0 0 0 0.25 0 0 0 0.13 0"/>
<feBlend mode="normal" in2="effect2_dropShadow_2441_2328" result="effect3_dropShadow_2441_2328"/>
<feBlend mode="normal" in="SourceGraphic" in2="effect3_dropShadow_2441_2328" result="shape"/>
</filter>
<filter id="filter1_bdd_2441_2328" x="2" y="-1.89966" width="204" height="154" filterUnits="userSpaceOnUse" color-interpolation-filters="sRGB">
<feFlood flood-opacity="0" result="BackgroundImageFix"/>
<feGaussianBlur in="BackgroundImageFix" stdDeviation="4"/>
<feComposite in2="SourceAlpha" operator="in" result="effect1_backgroundBlur_2441_2328"/>
<feColorMatrix in="SourceAlpha" type="matrix" values="0 0 0 0 0 0 0 0 0 0 0 0 0 0 0 0 0 0 127 0" result="hardAlpha"/>
<feOffset dy="1"/>
<feGaussianBlur stdDeviation="1"/>
<feComposite in2="hardAlpha" operator="out"/>
<feColorMatrix type="matrix" values="0 0 0 0 0 0 0 0 0 0 0 0 0 0 0 0 0 0 0.06 0"/>
<feBlend mode="normal" in2="effect1_backgroundBlur_2441_2328" result="effect2_dropShadow_2441_2328"/>
<feColorMatrix in="SourceAlpha" type="matrix" values="0 0 0 0 0 0 0 0 0 0 0 0 0 0 0 0 0 0 127 0" result="hardAlpha"/>
<feOffset dy="1"/>
<feGaussianBlur stdDeviation="1.5"/>
<feComposite in2="hardAlpha" operator="out"/>
<feColorMatrix type="matrix" values="0 0 0 0 0 0 0 0 0 0 0 0 0 0 0 0 0 0 0.1 0"/>
<feBlend mode="normal" in2="effect2_dropShadow_2441_2328" result="effect3_dropShadow_2441_2328"/>
<feBlend mode="normal" in="SourceGraphic" in2="effect3_dropShadow_2441_2328" result="shape"/>
</filter>
<filter id="filter2_bdd_2441_2328" x="266" y="-5" width="60" height="60" filterUnits="userSpaceOnUse" color-interpolation-filters="sRGB">
<feFlood flood-opacity="0" result="BackgroundImageFix"/>
<feGaussianBlur in="BackgroundImageFix" stdDeviation="4"/>
<feComposite in2="SourceAlpha" operator="in" result="effect1_backgroundBlur_2441_2328"/>
<feColorMatrix in="SourceAlpha" type="matrix" values="0 0 0 0 0 0 0 0 0 0 0 0 0 0 0 0 0 0 127 0" result="hardAlpha"/>
<feOffset dy="1"/>
<feGaussianBlur stdDeviation="1"/>
<feComposite in2="hardAlpha" operator="out"/>
<feColorMatrix type="matrix" values="0 0 0 0 0 0 0 0 0 0 0 0 0 0 0 0 0 0 0.06 0"/>
<feBlend mode="normal" in2="effect1_backgroundBlur_2441_2328" result="effect2_dropShadow_2441_2328"/>
<feColorMatrix in="SourceAlpha" type="matrix" values="0 0 0 0 0 0 0 0 0 0 0 0 0 0 0 0 0 0 127 0" result="hardAlpha"/>
<feOffset dy="1"/>
<feGaussianBlur stdDeviation="1.5"/>
<feComposite in2="hardAlpha" operator="out"/>
<feColorMatrix type="matrix" values="0 0 0 0 0 0 0 0 0 0 0 0 0 0 0 0 0 0 0.1 0"/>
<feBlend mode="normal" in2="effect2_dropShadow_2441_2328" result="effect3_dropShadow_2441_2328"/>
<feBlend mode="normal" in="SourceGraphic" in2="effect3_dropShadow_2441_2328" result="shape"/>
</filter>
<filter id="filter3_bdd_2441_2328" x="265" y="-6" width="62" height="62" filterUnits="userSpaceOnUse" color-interpolation-filters="sRGB">
<feFlood flood-opacity="0" result="BackgroundImageFix"/>
<feGaussianBlur in="BackgroundImageFix" stdDeviation="6"/>
<feComposite in2="SourceAlpha" operator="in" result="effect1_backgroundBlur_2441_2328"/>
<feColorMatrix in="SourceAlpha" type="matrix" values="0 0 0 0 0 0 0 0 0 0 0 0 0 0 0 0 0 0 127 0" result="hardAlpha"/>
<feMorphology radius="1" operator="erode" in="SourceAlpha" result="effect2_dropShadow_2441_2328"/>
<feOffset dy="2"/>
<feGaussianBlur stdDeviation="2"/>
<feComposite in2="hardAlpha" operator="out"/>
<feColorMatrix type="matrix" values="0 0 0 0 0.08125 0 0 0 0 0.09 0 0 0 0 0.3 0 0 0 0.06 0"/>
<feBlend mode="normal" in2="effect1_backgroundBlur_2441_2328" result="effect2_dropShadow_2441_2328"/>
<feColorMatrix in="SourceAlpha" type="matrix" values="0 0 0 0 0 0 0 0 0 0 0 0 0 0 0 0 0 0 127 0" result="hardAlpha"/>
<feMorphology radius="1" operator="erode" in="SourceAlpha" result="effect3_dropShadow_2441_2328"/>
<feOffset dy="4"/>
<feGaussianBlur stdDeviation="3"/>
<feComposite in2="hardAlpha" operator="out"/>
<feColorMatrix type="matrix" values="0 0 0 0 0.10625 0 0 0 0 0.137875 0 0 0 0 0.25 0 0 0 0.1 0"/>
<feBlend mode="normal" in2="effect2_dropShadow_2441_2328" result="effect3_dropShadow_2441_2328"/>
<feBlend mode="normal" in="SourceGraphic" in2="effect3_dropShadow_2441_2328" result="shape"/>
</filter>
<filter id="filter4_bdd_2441_2328" x="266" y="45" width="60" height="60" filterUnits="userSpaceOnUse" color-interpolation-filters="sRGB">
<feFlood flood-opacity="0" result="BackgroundImageFix"/>
<feGaussianBlur in="BackgroundImageFix" stdDeviation="4"/>
<feComposite in2="SourceAlpha" operator="in" result="effect1_backgroundBlur_2441_2328"/>
<feColorMatrix in="SourceAlpha" type="matrix" values="0 0 0 0 0 0 0 0 0 0 0 0 0 0 0 0 0 0 127 0" result="hardAlpha"/>
<feOffset dy="1"/>
<feGaussianBlur stdDeviation="1"/>
<feComposite in2="hardAlpha" operator="out"/>
<feColorMatrix type="matrix" values="0 0 0 0 0 0 0 0 0 0 0 0 0 0 0 0 0 0 0.06 0"/>
<feBlend mode="normal" in2="effect1_backgroundBlur_2441_2328" result="effect2_dropShadow_2441_2328"/>
<feColorMatrix in="SourceAlpha" type="matrix" values="0 0 0 0 0 0 0 0 0 0 0 0 0 0 0 0 0 0 127 0" result="hardAlpha"/>
<feOffset dy="1"/>
<feGaussianBlur stdDeviation="1.5"/>
<feComposite in2="hardAlpha" operator="out"/>
<feColorMatrix type="matrix" values="0 0 0 0 0 0 0 0 0 0 0 0 0 0 0 0 0 0 0.1 0"/>
<feBlend mode="normal" in2="effect2_dropShadow_2441_2328" result="effect3_dropShadow_2441_2328"/>
<feBlend mode="normal" in="SourceGraphic" in2="effect3_dropShadow_2441_2328" result="shape"/>
</filter>
<filter id="filter5_bdd_2441_2328" x="265" y="44" width="62" height="62" filterUnits="userSpaceOnUse" color-interpolation-filters="sRGB">
<feFlood flood-opacity="0" result="BackgroundImageFix"/>
<feGaussianBlur in="BackgroundImageFix" stdDeviation="6"/>
<feComposite in2="SourceAlpha" operator="in" result="effect1_backgroundBlur_2441_2328"/>
<feColorMatrix in="SourceAlpha" type="matrix" values="0 0 0 0 0 0 0 0 0 0 0 0 0 0 0 0 0 0 127 0" result="hardAlpha"/>
<feMorphology radius="1" operator="erode" in="SourceAlpha" result="effect2_dropShadow_2441_2328"/>
<feOffset dy="2"/>
<feGaussianBlur stdDeviation="2"/>
<feComposite in2="hardAlpha" operator="out"/>
<feColorMatrix type="matrix" values="0 0 0 0 0.08125 0 0 0 0 0.09 0 0 0 0 0.3 0 0 0 0.06 0"/>
<feBlend mode="normal" in2="effect1_backgroundBlur_2441_2328" result="effect2_dropShadow_2441_2328"/>
<feColorMatrix in="SourceAlpha" type="matrix" values="0 0 0 0 0 0 0 0 0 0 0 0 0 0 0 0 0 0 127 0" result="hardAlpha"/>
<feMorphology radius="1" operator="erode" in="SourceAlpha" result="effect3_dropShadow_2441_2328"/>
<feOffset dy="4"/>
<feGaussianBlur stdDeviation="3"/>
<feComposite in2="hardAlpha" operator="out"/>
<feColorMatrix type="matrix" values="0 0 0 0 0.10625 0 0 0 0 0.137875 0 0 0 0 0.25 0 0 0 0.1 0"/>
<feBlend mode="normal" in2="effect2_dropShadow_2441_2328" result="effect3_dropShadow_2441_2328"/>
<feBlend mode="normal" in="SourceGraphic" in2="effect3_dropShadow_2441_2328" result="shape"/>
</filter>
<filter id="filter6_bdd_2441_2328" x="266" y="95" width="60" height="60" filterUnits="userSpaceOnUse" color-interpolation-filters="sRGB">
<feFlood flood-opacity="0" result="BackgroundImageFix"/>
<feGaussianBlur in="BackgroundImageFix" stdDeviation="4"/>
<feComposite in2="SourceAlpha" operator="in" result="effect1_backgroundBlur_2441_2328"/>
<feColorMatrix in="SourceAlpha" type="matrix" values="0 0 0 0 0 0 0 0 0 0 0 0 0 0 0 0 0 0 127 0" result="hardAlpha"/>
<feOffset dy="1"/>
<feGaussianBlur stdDeviation="1"/>
<feComposite in2="hardAlpha" operator="out"/>
<feColorMatrix type="matrix" values="0 0 0 0 0 0 0 0 0 0 0 0 0 0 0 0 0 0 0.06 0"/>
<feBlend mode="normal" in2="effect1_backgroundBlur_2441_2328" result="effect2_dropShadow_2441_2328"/>
<feColorMatrix in="SourceAlpha" type="matrix" values="0 0 0 0 0 0 0 0 0 0 0 0 0 0 0 0 0 0 127 0" result="hardAlpha"/>
<feOffset dy="1"/>
<feGaussianBlur stdDeviation="1.5"/>
<feComposite in2="hardAlpha" operator="out"/>
<feColorMatrix type="matrix" values="0 0 0 0 0 0 0 0 0 0 0 0 0 0 0 0 0 0 0.1 0"/>
<feBlend mode="normal" in2="effect2_dropShadow_2441_2328" result="effect3_dropShadow_2441_2328"/>
<feBlend mode="normal" in="SourceGraphic" in2="effect3_dropShadow_2441_2328" result="shape"/>
</filter>
<filter id="filter7_bdd_2441_2328" x="265" y="94" width="62" height="62" filterUnits="userSpaceOnUse" color-interpolation-filters="sRGB">
<feFlood flood-opacity="0" result="BackgroundImageFix"/>
<feGaussianBlur in="BackgroundImageFix" stdDeviation="6"/>
<feComposite in2="SourceAlpha" operator="in" result="effect1_backgroundBlur_2441_2328"/>
<feColorMatrix in="SourceAlpha" type="matrix" values="0 0 0 0 0 0 0 0 0 0 0 0 0 0 0 0 0 0 127 0" result="hardAlpha"/>
<feMorphology radius="1" operator="erode" in="SourceAlpha" result="effect2_dropShadow_2441_2328"/>
<feOffset dy="2"/>
<feGaussianBlur stdDeviation="2"/>
<feComposite in2="hardAlpha" operator="out"/>
<feColorMatrix type="matrix" values="0 0 0 0 0.08125 0 0 0 0 0.09 0 0 0 0 0.3 0 0 0 0.06 0"/>
<feBlend mode="normal" in2="effect1_backgroundBlur_2441_2328" result="effect2_dropShadow_2441_2328"/>
<feColorMatrix in="SourceAlpha" type="matrix" values="0 0 0 0 0 0 0 0 0 0 0 0 0 0 0 0 0 0 127 0" result="hardAlpha"/>
<feMorphology radius="1" operator="erode" in="SourceAlpha" result="effect3_dropShadow_2441_2328"/>
<feOffset dy="4"/>
<feGaussianBlur stdDeviation="3"/>
<feComposite in2="hardAlpha" operator="out"/>
<feColorMatrix type="matrix" values="0 0 0 0 0.10625 0 0 0 0 0.137875 0 0 0 0 0.25 0 0 0 0.1 0"/>
<feBlend mode="normal" in2="effect2_dropShadow_2441_2328" result="effect3_dropShadow_2441_2328"/>
<feBlend mode="normal" in="SourceGraphic" in2="effect3_dropShadow_2441_2328" result="shape"/>
</filter>
<linearGradient id="paint0_linear_2441_2328" x1="104" y1="1.10034" x2="104" y2="149.1" gradientUnits="userSpaceOnUse">
<stop stop-color="white" stop-opacity="0.6"/>
<stop offset="1" stop-color="white" stop-opacity="0.5"/>
</linearGradient>
<linearGradient id="paint1_linear_2441_2328" x1="104" y1="7.10034" x2="104" y2="143.1" gradientUnits="userSpaceOnUse">
<stop stop-color="white" stop-opacity="0.6"/>
<stop offset="1" stop-color="white" stop-opacity="0.5"/>
</linearGradient>
<linearGradient id="paint2_linear_2441_2328" x1="104" y1="7.10034" x2="104" y2="143.1" gradientUnits="userSpaceOnUse">
<stop stop-color="white"/>
<stop offset="1" stop-color="white" stop-opacity="0"/>
</linearGradient>
<linearGradient id="paint3_linear_2441_2328" x1="104" y1="13.1003" x2="104" y2="17.1003" gradientUnits="userSpaceOnUse">
<stop stop-color="white" stop-opacity="0.6"/>
<stop offset="1" stop-color="white" stop-opacity="0.5"/>
</linearGradient>
<linearGradient id="paint4_linear_2441_2328" x1="104" y1="13.1003" x2="104" y2="17.1003" gradientUnits="userSpaceOnUse">
<stop stop-color="white" stop-opacity="0.35"/>
<stop offset="0.615" stop-color="white" stop-opacity="0.19"/>
</linearGradient>
<linearGradient id="paint5_linear_2441_2328" x1="104" y1="36.1003" x2="104" y2="68.1003" gradientUnits="userSpaceOnUse">
<stop stop-color="white" stop-opacity="0.35"/>
<stop offset="0.615" stop-color="white" stop-opacity="0.19"/>
</linearGradient>
<linearGradient id="paint6_linear_2441_2328" x1="119.5" y1="143" x2="163" y2="-26.5" gradientUnits="userSpaceOnUse">
<stop stop-color="#7857FF"/>
<stop offset="0.65596" stop-color="#E1B0D5" stop-opacity="0.47"/>
</linearGradient>
<linearGradient id="paint7_linear_2441_2328" x1="296" y1="7" x2="296" y2="43" gradientUnits="userSpaceOnUse">
<stop stop-color="white" stop-opacity="0.35"/>
<stop offset="0.615" stop-color="white" stop-opacity="0.19"/>
</linearGradient>
<linearGradient id="paint8_linear_2441_2328" x1="296" y1="7" x2="296" y2="43" gradientUnits="userSpaceOnUse">
<stop stop-color="white" stop-opacity="0.6"/>
<stop offset="1" stop-color="white" stop-opacity="0.5"/>
</linearGradient>
<linearGradient id="paint9_linear_2441_2328" x1="296" y1="7" x2="296" y2="43" gradientUnits="userSpaceOnUse">
<stop stop-color="white"/>
<stop offset="1" stop-color="white" stop-opacity="0"/>
</linearGradient>
<linearGradient id="paint10_linear_2441_2328" x1="296" y1="57" x2="296" y2="93" gradientUnits="userSpaceOnUse">
<stop stop-color="white" stop-opacity="0.35"/>
<stop offset="0.615" stop-color="white" stop-opacity="0.19"/>
</linearGradient>
<linearGradient id="paint11_linear_2441_2328" x1="296" y1="57" x2="296" y2="93" gradientUnits="userSpaceOnUse">
<stop stop-color="white" stop-opacity="0.6"/>
<stop offset="1" stop-color="white" stop-opacity="0.5"/>
</linearGradient>
<linearGradient id="paint12_linear_2441_2328" x1="296" y1="57" x2="296" y2="93" gradientUnits="userSpaceOnUse">
<stop stop-color="white"/>
<stop offset="1" stop-color="white" stop-opacity="0"/>
</linearGradient>
<linearGradient id="paint13_linear_2441_2328" x1="296" y1="107" x2="296" y2="143" gradientUnits="userSpaceOnUse">
<stop stop-color="white" stop-opacity="0.35"/>
<stop offset="0.615" stop-color="white" stop-opacity="0.19"/>
</linearGradient>
<linearGradient id="paint14_linear_2441_2328" x1="296" y1="107" x2="296" y2="143" gradientUnits="userSpaceOnUse">
<stop stop-color="white" stop-opacity="0.6"/>
<stop offset="1" stop-color="white" stop-opacity="0.5"/>
</linearGradient>
<linearGradient id="paint15_linear_2441_2328" x1="296" y1="107" x2="296" y2="143" gradientUnits="userSpaceOnUse">
<stop stop-color="white"/>
<stop offset="1" stop-color="white" stop-opacity="0"/>
</linearGradient>
</defs>
</svg>
