<svg viewBox="0 0 915 853" fill="none" xmlns="http://www.w3.org/2000/svg">
<circle cx="457" cy="434" r="256.5" stroke="#D1D5DB"/>
<circle cx="457" cy="434" r="343.5" stroke="#D1D5DB"/>
<g filter="url(#filter0_bdd_2499_6507)">
<rect x="328" y="179" width="51.47" height="51.4698" rx="25.7349" fill="url(#paint0_linear_2499_6507)" shape-rendering="crispEdges"/>
<rect x="328.5" y="179.5" width="50.47" height="50.4698" rx="25.2349" stroke="url(#paint1_linear_2499_6507)" shape-rendering="crispEdges"/>
<g filter="url(#filter1_bdd_2499_6507)">
<path d="M369.093 205.121C369.093 203.983 368.991 202.89 368.802 201.84H353.734V208.044H362.344C361.974 210.049 360.846 211.748 359.152 212.885V216.909H364.323C367.348 214.117 369.093 210.005 369.093 205.121V205.121Z" fill="#4285F4"/>
<path d="M353.685 220.675C357.961 220.675 361.546 219.233 364.166 216.774L359.048 212.735C357.63 213.701 355.816 214.271 353.685 214.271C349.56 214.271 346.069 211.439 344.824 207.634H339.533V211.805C342.139 217.067 347.494 220.675 353.685 220.675Z" fill="#34A853"/>
<path d="M344.746 207.801C344.43 206.833 344.25 205.799 344.25 204.736C344.25 203.672 344.43 202.638 344.746 201.671V197.491H339.47C338.365 199.739 337.79 202.22 337.791 204.736C337.791 207.339 338.401 209.803 339.47 211.981L344.746 207.801V207.801Z" fill="#FBBC05"/>
<path d="M353.785 195.201C356.126 195.201 358.228 196.013 359.881 197.608L364.456 192.991C361.694 190.393 358.083 188.797 353.785 188.797C347.55 188.797 342.157 192.405 339.533 197.667L344.861 201.838C346.115 198.033 349.631 195.201 353.785 195.201Z" fill="#EA4335"/>
</g>
</g>
<g filter="url(#filter2_bdd_2499_6507)">
<rect x="431" y="64" width="51.47" height="51.4698" rx="25.7349" fill="url(#paint2_linear_2499_6507)" shape-rendering="crispEdges"/>
<rect x="431.5" y="64.5" width="50.47" height="50.4698" rx="25.2349" stroke="url(#paint3_linear_2499_6507)" shape-rendering="crispEdges"/>
<g filter="url(#filter3_bdd_2499_6507)">
<path d="M466.794 80.5072C466.773 80.3564 466.641 80.273 466.532 80.2638C466.423 80.2547 464.118 80.0839 464.118 80.0839C464.118 80.0839 462.517 78.4945 462.341 78.3186C462.165 78.1428 461.822 78.1963 461.689 78.2355C461.669 78.2413 461.339 78.3432 460.793 78.5122C460.258 76.9734 459.314 75.5592 457.654 75.5592C457.608 75.5592 457.561 75.5611 457.514 75.5638C457.042 74.9393 456.457 74.668 455.951 74.668C452.084 74.668 450.236 79.5031 449.656 81.9601C448.153 82.4258 447.086 82.7569 446.949 82.7997C446.11 83.0629 446.084 83.0893 445.974 83.8798C445.891 84.4783 443.696 101.453 443.696 101.453L460.8 104.658L470.068 102.653C470.068 102.653 466.814 80.6579 466.794 80.5072H466.794ZM459.848 78.8046L458.4 79.2525C458.401 79.1505 458.401 79.0502 458.401 78.9404C458.401 77.984 458.268 77.214 458.056 76.6036C458.911 76.7109 459.481 77.6843 459.848 78.8046ZM456.994 76.7932C457.232 77.3892 457.387 78.2445 457.387 79.3987C457.387 79.4577 457.386 79.5117 457.386 79.5664C456.444 79.8579 455.422 80.1744 454.397 80.492C454.972 78.2707 456.051 77.1979 456.994 76.7932V76.7932ZM455.845 75.7054C456.012 75.7054 456.18 75.7621 456.341 75.8728C455.102 76.4561 453.773 77.9252 453.212 80.8589L450.849 81.5906C451.506 79.353 453.067 75.7054 455.845 75.7054H455.845Z" fill="#95BF46"/>
<path d="M466.53 80.2637C466.421 80.2546 464.116 80.0838 464.116 80.0838C464.116 80.0838 462.515 78.4945 462.34 78.3185C462.274 78.2531 462.185 78.2195 462.093 78.2051L460.799 104.658L470.066 102.653C470.066 102.653 466.813 80.6578 466.792 80.5071C466.772 80.3563 466.639 80.2729 466.53 80.2637Z" fill="#5E8E3E"/>
<path d="M457.651 85.3849L456.508 88.784C456.508 88.784 455.507 88.2497 454.28 88.2497C452.48 88.2497 452.39 89.3788 452.39 89.6633C452.39 91.2158 456.437 91.8106 456.437 95.447C456.437 98.308 454.622 100.15 452.175 100.15C449.239 100.15 447.738 98.323 447.738 98.323L448.524 95.7256C448.524 95.7256 450.067 97.0506 451.37 97.0506C452.221 97.0506 452.567 96.3806 452.567 95.8911C452.567 93.866 449.247 93.7756 449.247 90.448C449.247 87.6473 451.257 84.937 455.315 84.937C456.878 84.937 457.651 85.3849 457.651 85.3849" fill="white"/>
</g>
</g>
<g filter="url(#filter4_bdd_2499_6507)">
<rect x="200" y="299" width="51.47" height="51.4698" rx="25.7349" fill="url(#paint4_linear_2499_6507)" shape-rendering="crispEdges"/>
<rect x="200.5" y="299.5" width="50.47" height="50.4698" rx="25.2349" stroke="url(#paint5_linear_2499_6507)" shape-rendering="crispEdges"/>
<g filter="url(#filter5_bdd_2499_6507)">
<path d="M233.485 323.915C233.709 323.886 233.934 323.886 234.159 323.915C234.282 323.64 234.304 323.154 234.195 322.639C234.036 321.863 233.811 321.392 233.361 321.465C232.912 321.537 232.89 322.103 233.057 322.878C233.137 323.306 233.303 323.683 233.485 323.915ZM229.591 324.531C229.917 324.676 230.113 324.771 230.193 324.684C230.331 324.546 229.939 324.002 229.316 323.734C228.576 323.429 227.735 323.531 227.09 324.002C226.872 324.162 226.669 324.379 226.698 324.517C226.763 324.785 227.423 324.321 228.344 324.263C228.844 324.227 229.265 324.386 229.591 324.531ZM228.939 324.901C228.279 325.003 227.851 325.373 227.96 325.634C228.025 325.655 228.047 325.692 228.337 325.576C228.772 325.409 229.236 325.365 229.7 325.431C229.91 325.452 230.012 325.467 230.062 325.394C230.157 325.242 229.642 324.821 228.939 324.901ZM232.868 326.148C233.115 325.648 232.078 325.133 231.832 325.641C231.585 326.141 232.629 326.649 232.868 326.148ZM234.007 324.662C233.448 324.655 233.427 325.808 233.985 325.822C234.55 325.822 234.572 324.669 234.007 324.662ZM218.114 330.39C218.019 330.412 217.679 330.499 217.497 330.216C217.12 329.636 218.302 328.737 217.715 327.613C217.055 326.344 215.692 326.627 215.17 327.207C214.539 327.903 214.539 328.918 214.807 328.954C215.119 328.998 215.105 328.483 215.344 328.106C215.627 327.671 216.199 327.548 216.635 327.83C216.635 327.83 216.642 327.83 216.642 327.838C217.483 328.389 216.743 329.128 216.809 329.919C216.91 331.129 218.15 331.108 218.375 330.571C218.404 330.52 218.396 330.448 218.36 330.404C218.36 330.484 218.404 330.325 218.114 330.39ZM239.894 329.15C239.648 328.294 239.706 328.483 239.401 327.656C239.582 327.388 240.51 325.909 239.176 324.517C238.422 323.727 236.711 323.313 236.189 323.168C236.08 322.342 236.53 318.905 234.623 317.136C236.131 315.57 237.074 313.844 237.074 312.365C237.066 309.523 233.572 308.66 229.265 310.444L228.351 310.828C228.344 310.821 226.698 309.211 226.676 309.19C221.775 304.912 206.419 321.972 211.327 326.119L212.4 327.026C212.11 327.801 212.009 328.635 212.103 329.462C212.349 331.891 214.72 333.856 217.012 333.848C221.21 343.52 236.479 343.535 240.431 334.066C240.554 333.74 241.09 332.275 241.09 330.984C241.09 329.694 240.358 329.15 239.894 329.15ZM216.925 332.652C215.264 332.608 213.473 331.115 213.299 329.346C212.85 324.894 218.694 323.879 219.404 328.447C219.738 330.6 219.063 332.695 216.925 332.652ZM215.583 324.35C214.481 324.568 213.51 325.191 212.915 326.054C212.56 325.757 211.9 325.184 211.784 324.966C210.841 323.161 212.821 319.659 214.206 317.687C217.628 312.8 222.986 309.103 225.473 309.77C225.879 309.886 227.213 311.43 227.213 311.43C227.213 311.43 224.733 312.807 222.435 314.729C219.324 317.122 216.983 320.587 215.583 324.35ZM232.941 331.702C232.941 331.702 230.345 332.086 227.887 331.187C228.337 329.723 229.852 331.63 234.891 330.187C236.001 329.868 237.458 329.244 238.596 328.345C238.843 328.911 239.017 329.505 239.111 330.107C239.379 330.056 240.148 330.071 239.945 331.419C239.706 332.862 239.089 334.037 238.06 335.117C237.414 335.813 236.646 336.393 235.798 336.814C235.326 337.06 234.826 337.271 234.318 337.437C230.432 338.706 226.452 337.314 225.161 334.312C225.06 334.08 224.973 333.848 224.9 333.602C224.356 331.622 224.82 329.252 226.27 327.758C226.357 327.664 226.452 327.548 226.452 327.41C226.437 327.287 226.394 327.171 226.314 327.076C225.806 326.337 224.045 325.082 224.4 322.654C224.654 320.906 226.176 319.681 227.605 319.753L227.967 319.775C228.583 319.811 229.12 319.891 229.627 319.913C230.476 319.949 231.244 319.826 232.143 319.072C232.448 318.818 232.694 318.593 233.108 318.528C233.448 318.441 233.804 318.506 234.094 318.688C234.819 319.173 234.92 320.341 234.957 321.196C234.978 321.682 235.036 322.871 235.058 323.205C235.102 323.98 235.305 324.089 235.718 324.22C235.95 324.299 236.167 324.35 236.479 324.444C237.436 324.713 238.002 324.988 238.371 325.336C238.56 325.518 238.676 325.757 238.72 326.011C238.836 326.837 238.081 327.859 236.08 328.78C232.687 330.354 229.272 329.832 228.779 329.774C227.314 329.578 226.481 331.47 227.358 332.761C229.004 335.19 236.254 334.211 238.357 331.209C238.408 331.137 238.364 331.093 238.306 331.137C235.268 333.21 231.252 333.914 228.968 333.029C228.62 332.891 227.895 332.558 227.808 331.818C230.976 332.797 232.97 331.869 232.97 331.869C232.97 331.869 233.129 331.68 232.941 331.702ZM221.906 317.665C223.124 316.259 224.617 315.033 225.966 314.352C225.988 314.337 226.024 314.345 226.038 314.374C226.046 314.388 226.046 314.41 226.038 314.424C225.93 314.62 225.727 315.033 225.661 315.345C225.654 315.374 225.676 315.403 225.705 315.41C225.719 315.418 225.734 315.41 225.748 315.403C226.582 314.838 228.04 314.221 229.308 314.149C229.337 314.149 229.366 314.171 229.366 314.2C229.366 314.221 229.359 314.236 229.345 314.25C229.134 314.41 228.946 314.598 228.786 314.816C228.772 314.838 228.772 314.874 228.801 314.888C228.808 314.896 228.823 314.896 228.83 314.896C229.722 314.903 230.983 315.215 231.81 315.679C231.868 315.708 231.824 315.816 231.766 315.802C226.713 314.642 222.819 317.151 221.993 317.752C221.964 317.767 221.935 317.76 221.913 317.738C221.891 317.709 221.891 317.68 221.906 317.665Z" fill="black"/>
</g>
</g>
<g filter="url(#filter6_bdd_2499_6507)">
<rect x="680" y="652" width="51.47" height="51.4698" rx="25.7349" fill="url(#paint6_linear_2499_6507)" shape-rendering="crispEdges"/>
<rect x="680.5" y="652.5" width="50.47" height="50.4698" rx="25.2349" stroke="url(#paint7_linear_2499_6507)" shape-rendering="crispEdges"/>
<g filter="url(#filter7_bdd_2499_6507)">
<path d="M715.862 684.433C715.864 684.855 715.776 685.272 715.605 685.657C715.434 686.042 715.183 686.386 714.868 686.667C714.554 686.948 714.183 687.159 713.781 687.285C713.38 687.412 712.955 687.452 712.537 687.402C711.013 687.177 709.897 685.851 709.934 684.311V666.609C709.897 665.068 711.016 663.741 712.542 663.518C712.96 663.469 713.384 663.51 713.785 663.637C714.186 663.764 714.556 663.975 714.87 664.255C715.184 664.536 715.435 664.88 715.605 665.265C715.776 665.649 715.864 666.066 715.862 666.487V684.433Z" fill="#F9AB00"/>
<path d="M697.209 681.5C698.846 681.5 700.173 682.827 700.173 684.464C700.173 686.101 698.846 687.428 697.209 687.428C695.573 687.428 694.246 686.101 694.246 684.464C694.246 682.827 695.573 681.5 697.209 681.5V681.5ZM705.008 672.517C703.364 672.607 702.087 673.986 702.126 675.633V683.594C702.126 685.755 703.076 687.067 704.469 687.346C704.901 687.434 705.347 687.424 705.775 687.318C706.202 687.212 706.601 687.012 706.942 686.732C707.282 686.453 707.557 686.101 707.745 685.703C707.932 685.304 708.029 684.869 708.028 684.428V675.496C708.029 675.101 707.951 674.71 707.799 674.346C707.647 673.981 707.424 673.651 707.143 673.373C706.862 673.096 706.528 672.877 706.162 672.73C705.795 672.583 705.403 672.511 705.008 672.517V672.517Z" fill="#E37400"/>
</g>
</g>
<g filter="url(#filter8_bdd_2499_6507)">
<rect x="775.47" y="408" width="51.47" height="51.4698" rx="25.7349" fill="url(#paint8_linear_2499_6507)" shape-rendering="crispEdges"/>
<rect x="775.97" y="408.5" width="50.47" height="50.4698" rx="25.2349" stroke="url(#paint9_linear_2499_6507)" shape-rendering="crispEdges"/>
<g clip-path="url(#clip0_2499_6507)">
<circle cx="801.204" cy="433.735" r="19.5" fill="white"/>
<circle cx="801.204" cy="433.735" r="19.5" stroke="black"/>
<path d="M806.554 430.591V427.508C806.962 427.317 807.307 427.014 807.55 426.635C807.793 426.256 807.924 425.815 807.926 425.365V425.292C807.925 424.663 807.674 424.059 807.229 423.614C806.783 423.168 806.18 422.917 805.55 422.915H805.478C804.848 422.917 804.245 423.168 803.8 423.613C803.355 424.059 803.104 424.662 803.102 425.291V425.364C803.104 425.812 803.232 426.25 803.472 426.628C803.712 427.006 804.054 427.309 804.458 427.501L804.473 427.508V430.597C803.294 430.777 802.184 431.267 801.256 432.016L801.269 432.006L792.789 425.403C792.95 424.798 792.897 424.156 792.638 423.586C792.379 423.016 791.93 422.553 791.368 422.277C790.806 422.001 790.166 421.929 789.557 422.072C788.947 422.215 788.406 422.565 788.026 423.062C787.646 423.56 787.45 424.174 787.472 424.799C787.494 425.425 787.732 426.024 788.146 426.493C788.559 426.963 789.123 427.275 789.741 427.375C790.359 427.476 790.993 427.359 791.534 427.044L791.521 427.05L799.86 433.541C799.123 434.646 798.731 435.945 798.735 437.274C798.733 438.674 799.168 440.04 799.978 441.181L799.964 441.16L797.427 443.698C797.223 443.633 797.012 443.598 796.798 443.595H796.796C796.36 443.595 795.935 443.724 795.572 443.966C795.21 444.208 794.928 444.552 794.761 444.955C794.595 445.357 794.551 445.8 794.636 446.227C794.721 446.654 794.931 447.047 795.239 447.355C795.547 447.663 795.939 447.873 796.366 447.958C796.794 448.043 797.236 447.999 797.639 447.832C798.041 447.666 798.385 447.383 798.627 447.021C798.869 446.659 798.998 446.233 798.998 445.798C798.996 445.578 798.959 445.361 798.89 445.153L798.896 445.168L801.406 442.658C802.224 443.282 803.174 443.712 804.183 443.914C805.192 444.116 806.234 444.085 807.229 443.824C808.224 443.563 809.147 443.078 809.927 442.406C810.707 441.735 811.323 440.894 811.729 439.949C812.135 439.003 812.321 437.977 812.271 436.949C812.221 435.921 811.937 434.919 811.441 434.017C810.945 433.115 810.25 432.338 809.409 431.746C808.568 431.153 807.602 430.76 806.586 430.596L806.547 430.591H806.554ZM805.509 440.75C804.823 440.748 804.152 440.543 803.582 440.16C803.013 439.778 802.569 439.235 802.308 438.6C802.046 437.965 801.979 437.267 802.114 436.594C802.249 435.921 802.58 435.303 803.066 434.818C803.552 434.333 804.171 434.003 804.844 433.87C805.518 433.737 806.216 433.806 806.85 434.069C807.484 434.332 808.026 434.777 808.407 435.348C808.788 435.919 808.992 436.59 808.992 437.276V437.278C808.992 437.735 808.903 438.186 808.728 438.608C808.554 439.03 808.298 439.413 807.975 439.735C807.652 440.058 807.269 440.314 806.848 440.488C806.426 440.663 805.974 440.753 805.518 440.752L805.509 440.75Z" fill="#FF7A59"/>
</g>
</g>
<g filter="url(#filter9_bdd_2499_6507)">
<rect x="545" y="180" width="51.47" height="51.4698" rx="25.7349" fill="url(#paint10_linear_2499_6507)" shape-rendering="crispEdges"/>
<rect x="545.5" y="180.5" width="50.47" height="50.4698" rx="25.2349" stroke="url(#paint11_linear_2499_6507)" shape-rendering="crispEdges"/>
<g clip-path="url(#clip1_2499_6507)">
<path d="M555.752 205.735C555.752 211.672 559.205 216.785 564.198 219.215L557.053 199.64C556.195 201.557 555.752 203.635 555.752 205.735ZM570.733 220.716C572.472 220.716 574.146 220.411 575.713 219.866L575.607 219.667L570.998 207.05L566.509 220.105C567.837 220.504 569.258 220.716 570.733 220.716ZM572.791 198.71L578.21 214.819L579.71 209.826C580.348 207.754 580.839 206.267 580.839 204.978C580.839 203.119 580.175 201.844 579.617 200.861C578.847 199.613 578.143 198.564 578.143 197.342C578.143 195.961 579.179 194.686 580.667 194.686H580.853C578.092 192.152 574.48 190.749 570.733 190.755C568.252 190.754 565.809 191.371 563.625 192.548C561.442 193.726 559.585 195.428 558.222 197.501L559.178 197.528C560.745 197.528 563.163 197.329 563.163 197.329C563.986 197.289 564.079 198.471 563.269 198.564C563.269 198.564 562.459 198.67 561.542 198.71L567.014 214.939L570.294 205.111L567.957 198.71C567.433 198.681 566.911 198.637 566.39 198.577C565.58 198.524 565.673 197.289 566.483 197.329C566.483 197.329 568.953 197.528 570.427 197.528C571.994 197.528 574.411 197.329 574.411 197.329C575.222 197.289 575.328 198.471 574.518 198.564C574.518 198.564 573.708 198.657 572.791 198.71ZM578.263 218.684C580.529 217.366 582.41 215.477 583.717 213.205C585.025 210.933 585.713 208.357 585.713 205.735C585.713 203.132 585.049 200.689 583.881 198.551C584.118 200.903 583.762 203.277 582.845 205.457L578.263 218.684ZM570.733 223C566.154 223 561.762 221.181 558.524 217.944C555.287 214.706 553.468 210.314 553.468 205.735C553.468 201.157 555.287 196.765 558.524 193.527C561.762 190.29 566.154 188.471 570.733 188.471C575.312 188.471 579.703 190.29 582.941 193.527C586.179 196.765 587.998 201.157 587.998 205.735C587.998 210.314 586.179 214.706 582.941 217.944C579.703 221.181 575.312 223 570.733 223Z" fill="#126FC2"/>
</g>
</g>
<g filter="url(#filter10_bdd_2499_6507)">
<rect x="319" y="643" width="51.47" height="51.4698" rx="25.7349" fill="url(#paint12_linear_2499_6507)" shape-rendering="crispEdges"/>
<rect x="319.5" y="643.5" width="50.47" height="50.4698" rx="25.2349" stroke="url(#paint13_linear_2499_6507)" shape-rendering="crispEdges"/>
<path d="M352.926 665.993C352.926 665.993 350.529 673.51 350.333 674.131C349.73 669.42 349.12 664.709 348.505 660C344.421 660 342.238 662.907 341.084 665.975L337.924 674.149C337.906 673.563 337.481 666.063 337.481 666.063C337.23 662.304 333.786 660.016 331 660.016L334.373 680.461C338.652 680.443 340.959 677.553 342.167 674.485C342.167 674.485 344.742 667.837 344.847 667.535C344.866 667.818 346.695 680.46 346.695 680.46C350.991 680.46 353.299 677.748 354.541 674.787L360.56 660.017C356.317 660.017 354.08 662.907 352.926 665.992V665.993Z" fill="#1264E0"/>
</g>
<g filter="url(#filter11_bdd_2499_6507)">
<rect x="680" y="165" width="51.47" height="51.4698" rx="25.7349" fill="url(#paint14_linear_2499_6507)" shape-rendering="crispEdges"/>
<rect x="680.5" y="165.5" width="50.47" height="50.4698" rx="25.2349" stroke="url(#paint15_linear_2499_6507)" shape-rendering="crispEdges"/>
<g filter="url(#filter12_bdd_2499_6507)">
<path fill-rule="evenodd" clip-rule="evenodd" d="M709.332 177.986H719.933V203.329L709.332 177.986ZM701.857 177.986H691.243V203.329L701.857 177.986ZM705.592 187.323L712.351 203.329H707.921L705.898 198.23H700.951L705.592 187.323Z" fill="#FA0C00"/>
</g>
</g>
<g filter="url(#filter13_bdd_2499_6507)">
<rect x="659" y="300" width="51.47" height="51.4698" rx="25.7349" fill="url(#paint16_linear_2499_6507)" shape-rendering="crispEdges"/>
<rect x="659.5" y="300.5" width="50.47" height="50.4698" rx="25.2349" stroke="url(#paint17_linear_2499_6507)" shape-rendering="crispEdges"/>
<g filter="url(#filter14_bdd_2499_6507)">
<path d="M696.364 314.613C694.169 313.582 691.823 312.832 689.369 312.405C689.068 312.952 688.716 313.688 688.473 314.274C685.865 313.88 683.281 313.88 680.72 314.274C680.478 313.688 680.118 312.952 679.814 312.405C677.357 312.832 675.008 313.584 672.813 314.619C668.386 321.34 667.186 327.895 667.786 334.357C670.722 336.56 673.568 337.898 676.365 338.774C677.056 337.819 677.672 336.803 678.203 335.733C677.192 335.347 676.224 334.871 675.309 334.318C675.552 334.138 675.789 333.949 676.019 333.755C681.598 336.376 687.66 336.376 693.172 333.755C693.404 333.949 693.641 334.138 693.881 334.318C692.964 334.874 691.993 335.35 690.982 335.736C691.513 336.803 692.127 337.821 692.82 338.776C695.62 337.901 698.468 336.562 701.405 334.357C702.109 326.866 700.202 320.372 696.364 314.613ZM678.963 330.383C677.288 330.383 675.915 328.812 675.915 326.899C675.915 324.986 677.259 323.412 678.963 323.412C680.667 323.412 682.04 324.983 682.011 326.899C682.014 328.812 680.667 330.383 678.963 330.383ZM690.228 330.383C688.553 330.383 687.18 328.812 687.18 326.899C687.18 324.986 688.524 323.412 690.228 323.412C691.932 323.412 693.305 324.983 693.276 326.899C693.276 328.812 691.932 330.383 690.228 330.383Z" fill="#5865F2"/>
</g>
</g>
<g filter="url(#filter15_bdd_2499_6507)">
<rect x="431" y="752" width="51.47" height="51.4698" rx="25.7349" fill="url(#paint18_linear_2499_6507)" shape-rendering="crispEdges"/>
<rect x="431.5" y="752.5" width="50.47" height="50.4698" rx="25.2349" stroke="url(#paint19_linear_2499_6507)" shape-rendering="crispEdges"/>
<g filter="url(#filter16_bdd_2499_6507)">
<g clip-path="url(#clip2_2499_6507)">
<path fill-rule="evenodd" clip-rule="evenodd" d="M456.737 761.235C447.621 761.235 440.237 768.619 440.237 777.735C440.237 785.036 444.96 791.203 451.519 793.389C452.344 793.534 452.653 793.039 452.653 792.605C452.653 792.214 452.632 790.914 452.632 789.532C448.487 790.295 447.414 788.522 447.084 787.594C446.899 787.119 446.094 785.655 445.393 785.263C444.816 784.954 443.991 784.19 445.372 784.17C446.672 784.149 447.6 785.366 447.909 785.861C449.394 788.357 451.766 787.655 452.715 787.222C452.859 786.15 453.292 785.428 453.767 785.015C450.096 784.603 446.259 783.18 446.259 776.869C446.259 775.074 446.899 773.589 447.951 772.434C447.786 772.022 447.208 770.33 448.116 768.062C448.116 768.062 449.497 767.629 452.653 769.753C453.973 769.382 455.376 769.196 456.778 769.196C458.181 769.196 459.583 769.382 460.903 769.753C464.059 767.608 465.441 768.062 465.441 768.062C466.348 770.33 465.771 772.022 465.606 772.434C466.657 773.589 467.297 775.054 467.297 776.869C467.297 783.2 463.44 784.603 459.769 785.015C460.367 785.531 460.882 786.521 460.882 788.068C460.882 790.275 460.862 792.049 460.862 792.605C460.862 793.039 461.171 793.554 461.996 793.389C468.514 791.203 473.237 785.015 473.237 777.735C473.237 768.619 465.853 761.235 456.737 761.235Z" fill="#1B1F23"/>
</g>
</g>
</g>
<g filter="url(#filter17_bdd_2499_6507)">
<rect x="191" y="166" width="51.47" height="51.4698" rx="25.7349" fill="url(#paint20_linear_2499_6507)" shape-rendering="crispEdges"/>
<rect x="191.5" y="166.5" width="50.47" height="50.4698" rx="25.2349" stroke="url(#paint21_linear_2499_6507)" shape-rendering="crispEdges"/>
<g filter="url(#filter18_bdd_2499_6507)">
<path d="M202.539 200.858L207.726 196.952C210.482 200.488 213.41 202.118 216.669 202.118C219.911 202.118 222.756 200.507 225.388 196.999L230.649 200.811C226.852 205.871 222.133 208.544 216.669 208.544C211.222 208.544 206.458 205.888 202.539 200.858Z" fill="url(#paint22_linear_2499_6507)"/>
<path d="M216.623 183.53L207.384 191.447L203.114 186.521L216.643 174.928L230.065 186.53L225.775 191.438L216.623 183.53Z" fill="url(#paint23_linear_2499_6507)"/>
</g>
</g>
<g filter="url(#filter19_bdd_2499_6507)">
<rect x="662" y="505" width="51.47" height="51.4698" rx="25.7349" fill="url(#paint24_linear_2499_6507)" shape-rendering="crispEdges"/>
<rect x="662.5" y="505.5" width="50.47" height="50.4698" rx="25.2349" stroke="url(#paint25_linear_2499_6507)" shape-rendering="crispEdges"/>
</g>
<path d="M686.572 527.014V540.986H675L686.572 527.014ZM686.572 522C686.572 525.195 683.981 527.786 680.786 527.786C677.591 527.786 675 525.195 675 522H686.572ZM688.481 540.986C688.481 537.788 691.069 535.2 694.267 535.2C697.464 535.2 700.053 537.791 700.053 540.986H688.481ZM688.481 535.969V522H700.053L688.481 535.969Z" fill="#03363D"/>
<g filter="url(#filter20_bdd_2499_6507)">
<rect x="88" y="408" width="51.47" height="51.4698" rx="25.7349" fill="url(#paint26_linear_2499_6507)" shape-rendering="crispEdges"/>
<rect x="88.5" y="408.5" width="50.47" height="50.4698" rx="25.2349" stroke="url(#paint27_linear_2499_6507)" shape-rendering="crispEdges"/>
</g>
<path d="M99.3894 432.438C99.3894 432.07 99.6917 431.928 100.192 431.928C100.91 431.928 101.817 432.146 102.534 432.533V430.313C101.751 430.002 100.976 429.879 100.192 429.879C98.275 429.879 97 430.88 97 432.552C97 435.158 100.589 434.743 100.589 435.867C100.589 436.301 100.211 436.443 99.6822 436.443C98.8983 436.443 97.8972 436.122 97.1039 435.687V437.935C97.9822 438.313 98.87 438.473 99.6822 438.473C101.647 438.473 102.997 437.501 102.997 435.81C102.988 432.996 99.3894 433.496 99.3894 432.438ZM105.774 427.99L103.469 428.481L103.46 436.046C103.46 437.444 104.508 438.473 105.906 438.473C106.681 438.473 107.247 438.332 107.559 438.162V436.245C107.257 436.367 105.764 436.802 105.764 435.404V432.051H107.559V430.04H105.764L105.774 427.99ZM110.496 430.738L110.345 430.04H108.305V438.303H110.666V432.703C111.223 431.976 112.168 432.108 112.461 432.212V430.04C112.158 429.926 111.053 429.718 110.496 430.738ZM113.037 430.04H115.407V438.303H113.037V430.04ZM113.037 429.322L115.407 428.812V426.895L113.037 427.395V429.322ZM120.337 429.879C119.412 429.879 118.817 430.313 118.486 430.616L118.363 430.03H116.286V441.042L118.647 440.542L118.656 437.869C118.996 438.115 119.497 438.464 120.328 438.464C122.018 438.464 123.558 437.104 123.558 434.11C123.548 431.371 121.99 429.879 120.337 429.879ZM119.771 436.386C119.213 436.386 118.883 436.188 118.656 435.942L118.647 432.438C118.892 432.165 119.232 431.976 119.771 431.976C120.63 431.976 121.225 432.939 121.225 434.176C121.225 435.442 120.639 436.386 119.771 436.386ZM131 434.205C131 431.787 129.829 429.879 127.591 429.879C125.343 429.879 123.983 431.787 123.983 434.186C123.983 437.028 125.588 438.464 127.893 438.464C129.017 438.464 129.867 438.209 130.509 437.85V435.961C129.867 436.282 129.13 436.481 128.195 436.481C127.279 436.481 126.467 436.16 126.363 435.045H130.981C130.981 434.922 131 434.431 131 434.205ZM126.334 433.307C126.334 432.24 126.986 431.796 127.581 431.796C128.157 431.796 128.771 432.24 128.771 433.307H126.334Z" fill="#6772E5"/>
<g filter="url(#filter21_bdd_2499_6507)">
<rect x="549" y="639" width="51.47" height="51.4698" rx="25.7349" fill="url(#paint28_linear_2499_6507)" shape-rendering="crispEdges"/>
<rect x="549.5" y="639.5" width="50.47" height="50.4698" rx="25.2349" stroke="url(#paint29_linear_2499_6507)" shape-rendering="crispEdges"/>
</g>
<path d="M561.117 652.634V677.252H575.455C584.938 677.252 589.035 671.941 589.035 664.924C589.035 657.907 584.862 652.634 575.455 652.634H561.117Z" fill="white"/>
<path fill-rule="evenodd" clip-rule="evenodd" d="M575.455 654.189H562.672V675.696H575.455C582.814 675.696 587.479 672.093 587.479 664.924C587.479 658.931 584.141 654.189 575.455 654.189ZM563.886 674.483V655.479H575.455C582.131 655.479 586.228 658.514 586.228 664.962C586.228 671.22 582.434 674.483 575.455 674.483H563.886Z" fill="black"/>
<path d="M565.441 666.29H569.159V672.89H565.441V666.29Z" fill="black"/>
<path d="M567.3 665.303C568.578 665.303 569.614 664.267 569.614 662.99C569.614 661.712 568.578 660.676 567.3 660.676C566.022 660.676 564.986 661.712 564.986 662.99C564.986 664.267 566.022 665.303 567.3 665.303Z" fill="black"/>
<path fill-rule="evenodd" clip-rule="evenodd" d="M582.017 660.865H583.079V664.052H584.635C584.217 658.248 579.628 656.958 575.455 656.958H571.017V660.865H571.662C572.876 660.865 573.597 661.662 573.597 662.99C573.597 664.317 572.876 665.114 571.7 665.114H571.017V672.89H575.455C582.245 672.89 584.559 669.741 584.672 665.114H582.017V660.865ZM576.897 664.052V665.114H574.241V660.865H576.821V661.927H575.303V662.421H576.745V663.483H575.341V664.052H576.897ZM578.641 660.865H580.159L581.448 665.114H580.348L580.121 664.317H578.717L578.49 665.114H577.352L578.641 660.865ZM579.033 663.217H579.021V663.255L579.033 663.217ZM579.033 663.217H579.779L579.438 662.041H579.4L579.033 663.217ZM571.017 664.052V661.927H571.662C572.079 661.927 572.535 662.041 572.535 662.99C572.535 663.938 572.117 664.052 571.662 664.052H571.017Z" fill="#D50072"/>
<g filter="url(#filter22_bdd_2499_6507)">
<rect x="198" y="504" width="51.47" height="51.4698" rx="25.7349" fill="url(#paint30_linear_2499_6507)" shape-rendering="crispEdges"/>
<rect x="198.5" y="504.5" width="50.47" height="50.4698" rx="25.2349" stroke="url(#paint31_linear_2499_6507)" shape-rendering="crispEdges"/>
</g>
<path d="M221.319 521.206C222.35 520.132 223.786 519.466 225.373 519.466C227.483 519.466 229.324 520.643 230.305 522.39C231.157 522.009 232.1 521.797 233.092 521.797C236.898 521.797 239.984 524.91 239.984 528.749C239.984 532.589 236.898 535.701 233.092 535.701C232.628 535.701 232.174 535.655 231.735 535.566C230.871 537.106 229.226 538.147 227.338 538.147C226.547 538.147 225.799 537.964 225.133 537.639C224.258 539.698 222.219 541.142 219.842 541.142C217.367 541.142 215.258 539.576 214.448 537.379C214.094 537.455 213.728 537.494 213.352 537.494C210.405 537.494 208.016 535.08 208.016 532.102C208.016 530.107 209.089 528.365 210.684 527.432C210.356 526.677 210.173 525.843 210.173 524.967C210.173 521.542 212.953 518.766 216.382 518.766C218.396 518.766 220.185 519.723 221.319 521.206Z" fill="#00A1E0"/>
<path d="M212.646 530.37C212.626 530.422 212.654 530.433 212.66 530.442C212.72 530.486 212.781 530.517 212.843 530.552C213.169 530.725 213.476 530.776 213.798 530.776C214.454 530.776 214.861 530.427 214.861 529.865V529.855C214.861 529.335 214.402 529.147 213.971 529.011L213.915 528.992C213.589 528.887 213.309 528.796 213.309 528.582V528.57C213.309 528.387 213.473 528.252 213.727 528.252C214.009 528.252 214.344 528.346 214.56 528.466C214.56 528.466 214.624 528.507 214.647 528.445C214.66 528.412 214.769 528.118 214.78 528.086C214.792 528.052 214.771 528.026 214.748 528.012C214.502 527.863 214.161 527.76 213.809 527.76L213.743 527.761C213.143 527.761 212.724 528.123 212.724 528.643V528.654C212.724 529.201 213.186 529.379 213.619 529.503L213.689 529.524C214.005 529.621 214.277 529.705 214.277 529.927V529.938C214.277 530.141 214.1 530.292 213.815 530.292C213.704 530.292 213.351 530.29 212.97 530.049C212.924 530.022 212.897 530.003 212.862 529.981C212.843 529.969 212.796 529.949 212.776 530.011L212.646 530.37Z" fill="white"/>
<path d="M222.246 530.37C222.226 530.422 222.253 530.433 222.26 530.442C222.32 530.486 222.381 530.517 222.442 530.552C222.769 530.725 223.076 530.776 223.398 530.776C224.054 530.776 224.461 530.427 224.461 529.865V529.855C224.461 529.335 224.002 529.147 223.57 529.011L223.514 528.992C223.189 528.887 222.909 528.796 222.909 528.582V528.57C222.909 528.387 223.073 528.252 223.327 528.252C223.609 528.252 223.944 528.346 224.16 528.466C224.16 528.466 224.223 528.507 224.247 528.445C224.259 528.412 224.369 528.118 224.38 528.086C224.392 528.052 224.371 528.026 224.348 528.012C224.102 527.863 223.761 527.76 223.409 527.76L223.343 527.761C222.743 527.761 222.324 528.123 222.324 528.643V528.654C222.324 529.201 222.786 529.379 223.219 529.503L223.289 529.524C223.605 529.621 223.877 529.705 223.877 529.927V529.938C223.877 530.141 223.7 530.292 223.415 530.292C223.304 530.292 222.951 530.29 222.57 530.049C222.524 530.022 222.497 530.003 222.462 529.981C222.45 529.973 222.395 529.952 222.376 530.011L222.246 530.37Z" fill="white"/>
<path d="M228.8 529.27C228.8 529.587 228.741 529.837 228.624 530.014C228.509 530.189 228.334 530.274 228.091 530.274C227.848 530.274 227.674 530.189 227.561 530.014C227.446 529.838 227.388 529.587 227.388 529.27C227.388 528.953 227.446 528.703 227.561 528.528C227.674 528.355 227.848 528.271 228.091 528.271C228.334 528.271 228.509 528.355 228.625 528.528C228.741 528.703 228.8 528.953 228.8 529.27ZM229.347 528.681C229.293 528.5 229.21 528.339 229.098 528.206C228.987 528.072 228.845 527.965 228.678 527.886C228.511 527.808 228.313 527.769 228.091 527.769C227.869 527.769 227.671 527.808 227.504 527.886C227.337 527.965 227.196 528.072 227.083 528.206C226.972 528.34 226.889 528.5 226.834 528.681C226.781 528.862 226.754 529.06 226.754 529.27C226.754 529.48 226.781 529.678 226.834 529.858C226.889 530.039 226.972 530.2 227.084 530.333C227.196 530.467 227.337 530.574 227.504 530.65C227.672 530.726 227.869 530.765 228.091 530.765C228.313 530.765 228.51 530.726 228.678 530.65C228.845 530.574 228.987 530.467 229.098 530.333C229.21 530.2 229.293 530.04 229.347 529.858C229.401 529.677 229.428 529.479 229.428 529.27C229.428 529.06 229.401 528.862 229.347 528.681Z" fill="white"/>
<path d="M233.842 530.189C233.824 530.136 233.772 530.156 233.772 530.156C233.693 530.186 233.608 530.215 233.518 530.229C233.426 530.243 233.326 530.25 233.218 530.25C232.953 530.25 232.742 530.171 232.592 530.016C232.44 529.86 232.356 529.608 232.357 529.267C232.358 528.957 232.432 528.724 232.567 528.547C232.7 528.37 232.903 528.279 233.174 528.279C233.4 528.279 233.572 528.305 233.752 528.362C233.752 528.362 233.796 528.381 233.816 528.324C233.864 528.191 233.9 528.096 233.951 527.95C233.965 527.909 233.93 527.891 233.917 527.886C233.846 527.858 233.678 527.813 233.552 527.794C233.433 527.776 233.295 527.766 233.141 527.766C232.911 527.766 232.706 527.805 232.531 527.883C232.356 527.961 232.207 528.069 232.09 528.203C231.972 528.337 231.883 528.497 231.823 528.678C231.764 528.859 231.734 529.057 231.734 529.267C231.734 529.721 231.857 530.088 232.099 530.357C232.341 530.627 232.705 530.764 233.179 530.764C233.46 530.764 233.747 530.707 233.954 530.625C233.954 530.625 233.994 530.606 233.977 530.56L233.842 530.189Z" fill="white"/>
<path d="M234.8 528.966C234.826 528.789 234.875 528.643 234.95 528.528C235.063 528.355 235.236 528.26 235.479 528.26C235.723 528.26 235.883 528.355 235.998 528.528C236.075 528.643 236.108 528.796 236.121 528.966H234.8ZM236.643 528.578C236.596 528.403 236.481 528.226 236.406 528.145C236.286 528.016 236.17 527.926 236.054 527.876C235.903 527.812 235.722 527.769 235.523 527.769C235.292 527.769 235.082 527.808 234.911 527.888C234.741 527.968 234.597 528.077 234.485 528.213C234.372 528.349 234.288 528.511 234.234 528.694C234.18 528.877 234.152 529.076 234.152 529.286C234.152 529.499 234.181 529.698 234.237 529.877C234.293 530.058 234.383 530.217 234.505 530.348C234.627 530.481 234.784 530.585 234.971 530.657C235.157 530.729 235.384 530.766 235.644 530.766C236.179 530.764 236.461 530.645 236.577 530.58C236.597 530.569 236.617 530.549 236.592 530.492L236.471 530.152C236.453 530.102 236.401 530.12 236.401 530.12C236.269 530.17 236.08 530.258 235.641 530.257C235.354 530.257 235.141 530.172 235.007 530.039C234.87 529.904 234.803 529.704 234.791 529.423L236.644 529.425C236.644 529.425 236.693 529.424 236.698 529.376C236.7 529.356 236.762 528.996 236.643 528.578Z" fill="white"/>
<path d="M219.96 528.966C219.987 528.789 220.035 528.643 220.11 528.528C220.224 528.355 220.397 528.26 220.64 528.26C220.883 528.26 221.044 528.355 221.159 528.528C221.235 528.643 221.269 528.796 221.282 528.966H219.96ZM221.803 528.578C221.756 528.403 221.642 528.226 221.566 528.145C221.447 528.016 221.33 527.926 221.214 527.876C221.063 527.812 220.882 527.769 220.684 527.769C220.453 527.769 220.242 527.808 220.072 527.888C219.901 527.968 219.758 528.077 219.645 528.213C219.533 528.349 219.448 528.511 219.394 528.694C219.341 528.877 219.313 529.076 219.313 529.286C219.313 529.499 219.341 529.698 219.397 529.877C219.454 530.058 219.544 530.217 219.666 530.348C219.787 530.481 219.944 530.585 220.132 530.657C220.318 530.729 220.544 530.766 220.804 530.766C221.339 530.764 221.621 530.645 221.737 530.58C221.758 530.569 221.777 530.549 221.753 530.492L221.632 530.152C221.613 530.102 221.562 530.12 221.562 530.12C221.429 530.17 221.241 530.258 220.801 530.257C220.514 530.257 220.301 530.172 220.168 530.039C220.03 529.904 219.964 529.704 219.952 529.423L221.805 529.425C221.805 529.425 221.853 529.424 221.858 529.376C221.86 529.356 221.922 528.996 221.803 528.578Z" fill="white"/>
<path d="M215.955 530.179C215.883 530.121 215.873 530.107 215.848 530.069C215.812 530.012 215.793 529.931 215.793 529.828C215.793 529.665 215.847 529.548 215.958 529.469C215.957 529.47 216.118 529.331 216.496 529.336C216.761 529.339 216.998 529.378 216.998 529.378V530.221H216.999C216.999 530.221 216.764 530.271 216.498 530.287C216.121 530.31 215.954 530.179 215.955 530.179ZM216.692 528.877C216.617 528.872 216.52 528.868 216.403 528.868C216.244 528.868 216.091 528.888 215.947 528.927C215.802 528.966 215.672 529.026 215.56 529.107C215.447 529.187 215.357 529.29 215.291 529.412C215.226 529.534 215.192 529.678 215.192 529.839C215.192 530.003 215.221 530.146 215.277 530.262C215.334 530.379 215.415 530.477 215.519 530.552C215.622 530.627 215.749 530.682 215.896 530.715C216.042 530.749 216.207 530.766 216.387 530.766C216.577 530.766 216.766 530.75 216.95 530.719C217.131 530.688 217.355 530.643 217.417 530.628C217.478 530.614 217.546 530.595 217.546 530.595C217.592 530.584 217.589 530.535 217.589 530.535L217.588 528.84C217.588 528.469 217.488 528.193 217.293 528.022C217.099 527.852 216.812 527.766 216.442 527.766C216.303 527.766 216.08 527.785 215.946 527.812C215.946 527.812 215.541 527.89 215.374 528.02C215.374 528.02 215.338 528.043 215.358 528.094L215.489 528.447C215.505 528.492 215.549 528.477 215.549 528.477C215.549 528.477 215.564 528.471 215.58 528.462C215.937 528.268 216.387 528.274 216.387 528.274C216.588 528.274 216.742 528.314 216.845 528.393C216.947 528.471 216.998 528.588 216.998 528.835V528.913C216.839 528.89 216.692 528.877 216.692 528.877Z" fill="white"/>
<path d="M231.637 527.922C231.652 527.88 231.622 527.86 231.61 527.856C231.578 527.843 231.421 527.81 231.299 527.802C231.066 527.788 230.937 527.828 230.821 527.879C230.707 527.931 230.579 528.015 230.508 528.11V527.885C230.508 527.853 230.486 527.828 230.455 527.828H229.98C229.949 527.828 229.927 527.853 229.927 527.885V530.649C229.927 530.68 229.952 530.705 229.983 530.705H230.47C230.501 530.705 230.526 530.68 230.526 530.649V529.268C230.526 529.083 230.546 528.898 230.587 528.782C230.627 528.667 230.682 528.575 230.749 528.509C230.817 528.443 230.894 528.397 230.978 528.371C231.065 528.345 231.16 528.336 231.227 528.336C231.324 528.336 231.431 528.361 231.431 528.361C231.466 528.365 231.486 528.343 231.498 528.311C231.53 528.226 231.62 527.973 231.637 527.922Z" fill="white"/>
<path d="M227.068 526.641C227.009 526.623 226.955 526.611 226.885 526.598C226.814 526.585 226.729 526.578 226.633 526.578C226.298 526.578 226.034 526.673 225.848 526.86C225.664 527.046 225.539 527.329 225.476 527.701L225.453 527.826H225.032C225.032 527.826 224.981 527.824 224.97 527.88L224.902 528.265C224.897 528.302 224.913 528.325 224.962 528.325H225.371L224.956 530.644C224.924 530.83 224.886 530.984 224.845 531.1C224.804 531.215 224.765 531.301 224.715 531.364C224.668 531.424 224.623 531.469 224.546 531.495C224.482 531.516 224.409 531.526 224.328 531.526C224.283 531.526 224.224 531.519 224.179 531.51C224.136 531.501 224.113 531.492 224.079 531.478C224.079 531.478 224.031 531.459 224.012 531.507C223.997 531.547 223.888 531.847 223.875 531.884C223.862 531.921 223.88 531.949 223.903 531.958C223.958 531.977 223.999 531.99 224.073 532.008C224.176 532.032 224.263 532.033 224.344 532.033C224.515 532.033 224.67 532.009 224.799 531.962C224.929 531.916 225.041 531.834 225.142 531.724C225.25 531.605 225.317 531.48 225.382 531.309C225.446 531.141 225.501 530.931 225.545 530.687L225.963 528.325H226.573C226.573 528.325 226.624 528.327 226.635 528.271L226.704 527.885C226.709 527.849 226.693 527.826 226.644 527.826H226.051C226.054 527.813 226.081 527.604 226.149 527.408C226.178 527.324 226.233 527.257 226.279 527.21C226.324 527.165 226.377 527.132 226.434 527.114C226.493 527.094 226.56 527.085 226.633 527.085C226.689 527.085 226.744 527.092 226.785 527.1C226.843 527.113 226.865 527.119 226.88 527.124C226.94 527.142 226.949 527.124 226.96 527.095L227.102 526.706C227.117 526.664 227.081 526.646 227.068 526.641Z" fill="white"/>
<path d="M218.79 530.649C218.79 530.68 218.768 530.705 218.737 530.705H218.246C218.215 530.705 218.193 530.68 218.193 530.649V526.694C218.193 526.663 218.215 526.638 218.246 526.638H218.737C218.768 526.638 218.79 526.663 218.79 526.694V530.649Z" fill="white"/>
<g filter="url(#filter23_bdd_2499_6507)">
<rect x="187" y="652" width="51.47" height="51.4698" rx="25.7349" fill="url(#paint32_linear_2499_6507)" shape-rendering="crispEdges"/>
<rect x="187.5" y="652.5" width="50.47" height="50.4698" rx="25.2349" stroke="url(#paint33_linear_2499_6507)" shape-rendering="crispEdges"/>
<g filter="url(#filter24_bdd_2499_6507)">
<path fill-rule="evenodd" clip-rule="evenodd" d="M201.942 684.636C202.721 684.634 203.468 684.323 204.019 683.772C204.57 683.22 204.88 682.473 204.882 681.694V678.754H201.942C201.163 678.756 200.416 679.065 199.865 679.616C199.314 680.167 199.003 680.913 199 681.692C199.002 683.314 200.318 684.63 201.94 684.632L201.942 684.636ZM209.306 678.752C208.527 678.754 207.78 679.065 207.229 679.616C206.678 680.167 206.368 680.915 206.366 681.694V689.06C206.37 690.682 207.686 691.996 209.306 692C210.085 691.998 210.832 691.687 211.383 691.137C211.933 690.586 212.244 689.839 212.246 689.06V681.692C212.244 680.913 211.933 680.166 211.383 679.615C210.832 679.064 210.085 678.754 209.306 678.752Z" fill="#E01E5A"/>
<path fill-rule="evenodd" clip-rule="evenodd" d="M206.366 666.942C206.368 668.564 207.684 669.88 209.306 669.882H212.246V666.942C212.244 666.163 211.934 665.416 211.384 664.865C210.833 664.314 210.087 664.003 209.308 664C208.529 664.002 207.782 664.313 207.231 664.863C206.681 665.414 206.37 666.161 206.368 666.94L206.366 666.942ZM212.246 674.306C212.244 673.527 211.933 672.78 211.383 672.229C210.832 671.679 210.085 671.368 209.306 671.366H201.94C201.161 671.368 200.414 671.679 199.863 672.229C199.313 672.78 199.002 673.527 199 674.306C199.004 675.93 200.32 677.244 201.94 677.246H209.308C210.087 677.244 210.834 676.933 211.385 676.383C211.935 675.832 212.244 675.085 212.246 674.306Z" fill="#36C5F0"/>
<path fill-rule="evenodd" clip-rule="evenodd" d="M216.694 677.248C217.473 677.246 218.22 676.935 218.771 676.385C219.321 675.834 219.632 675.087 219.634 674.308V666.94C219.632 666.161 219.322 665.415 218.771 664.864C218.221 664.313 217.475 664.003 216.696 664C215.917 664.002 215.17 664.313 214.619 664.863C214.069 665.414 213.758 666.161 213.756 666.94V674.308C213.76 675.928 215.072 677.244 216.694 677.248ZM224.058 671.366C223.279 671.368 222.532 671.679 221.981 672.229C221.431 672.78 221.12 673.527 221.118 674.306V677.246H224.058C224.837 677.244 225.584 676.934 226.135 676.384C226.686 675.833 226.997 675.087 227 674.308C226.998 673.529 226.687 672.782 226.137 672.231C225.586 671.681 224.839 671.37 224.06 671.368L224.058 671.366Z" fill="#2EB67D"/>
<path fill-rule="evenodd" clip-rule="evenodd" d="M213.754 681.694C213.758 683.316 215.072 684.632 216.694 684.634H224.06C224.839 684.632 225.585 684.322 226.136 683.771C226.687 683.221 226.997 682.475 227 681.696C226.998 680.917 226.687 680.17 226.137 679.619C225.586 679.068 224.839 678.758 224.06 678.756H216.694C215.915 678.758 215.168 679.068 214.617 679.619C214.067 680.17 213.756 680.915 213.754 681.694ZM219.634 689.058C219.632 688.279 219.321 687.532 218.771 686.981C218.22 686.43 217.473 686.12 216.694 686.118H213.754V689.058C213.758 690.682 215.072 691.996 216.694 691.998C217.473 691.996 218.22 691.685 218.771 691.134C219.321 690.584 219.632 689.837 219.634 689.058Z" fill="#ECB22E"/>
</g>
</g>
<rect width="915" height="853" fill="url(#paint34_radial_2499_6507)"/>
<defs>
<filter id="filter0_bdd_2499_6507" x="316" y="167" width="75.47" height="75.4697" filterUnits="userSpaceOnUse" color-interpolation-filters="sRGB">
<feFlood flood-opacity="0" result="BackgroundImageFix"/>
<feGaussianBlur in="BackgroundImageFix" stdDeviation="6"/>
<feComposite in2="SourceAlpha" operator="in" result="effect1_backgroundBlur_2499_6507"/>
<feColorMatrix in="SourceAlpha" type="matrix" values="0 0 0 0 0 0 0 0 0 0 0 0 0 0 0 0 0 0 127 0" result="hardAlpha"/>
<feMorphology radius="1" operator="erode" in="SourceAlpha" result="effect2_dropShadow_2499_6507"/>
<feOffset dy="2"/>
<feGaussianBlur stdDeviation="2"/>
<feComposite in2="hardAlpha" operator="out"/>
<feColorMatrix type="matrix" values="0 0 0 0 0.08125 0 0 0 0 0.09 0 0 0 0 0.3 0 0 0 0.06 0"/>
<feBlend mode="normal" in2="effect1_backgroundBlur_2499_6507" result="effect2_dropShadow_2499_6507"/>
<feColorMatrix in="SourceAlpha" type="matrix" values="0 0 0 0 0 0 0 0 0 0 0 0 0 0 0 0 0 0 127 0" result="hardAlpha"/>
<feMorphology radius="1" operator="erode" in="SourceAlpha" result="effect3_dropShadow_2499_6507"/>
<feOffset dy="4"/>
<feGaussianBlur stdDeviation="3"/>
<feComposite in2="hardAlpha" operator="out"/>
<feColorMatrix type="matrix" values="0 0 0 0 0.10625 0 0 0 0 0.137875 0 0 0 0 0.25 0 0 0 0.1 0"/>
<feBlend mode="normal" in2="effect2_dropShadow_2499_6507" result="effect3_dropShadow_2499_6507"/>
<feBlend mode="normal" in="SourceGraphic" in2="effect3_dropShadow_2499_6507" result="shape"/>
</filter>
<filter id="filter1_bdd_2499_6507" x="324" y="175" width="59.47" height="59.4697" filterUnits="userSpaceOnUse" color-interpolation-filters="sRGB">
<feFlood flood-opacity="0" result="BackgroundImageFix"/>
<feGaussianBlur in="BackgroundImageFix" stdDeviation="4"/>
<feComposite in2="SourceAlpha" operator="in" result="effect1_backgroundBlur_2499_6507"/>
<feColorMatrix in="SourceAlpha" type="matrix" values="0 0 0 0 0 0 0 0 0 0 0 0 0 0 0 0 0 0 127 0" result="hardAlpha"/>
<feOffset dy="1"/>
<feGaussianBlur stdDeviation="1"/>
<feComposite in2="hardAlpha" operator="out"/>
<feColorMatrix type="matrix" values="0 0 0 0 0 0 0 0 0 0 0 0 0 0 0 0 0 0 0.06 0"/>
<feBlend mode="normal" in2="effect1_backgroundBlur_2499_6507" result="effect2_dropShadow_2499_6507"/>
<feColorMatrix in="SourceAlpha" type="matrix" values="0 0 0 0 0 0 0 0 0 0 0 0 0 0 0 0 0 0 127 0" result="hardAlpha"/>
<feOffset dy="1"/>
<feGaussianBlur stdDeviation="1.5"/>
<feComposite in2="hardAlpha" operator="out"/>
<feColorMatrix type="matrix" values="0 0 0 0 0 0 0 0 0 0 0 0 0 0 0 0 0 0 0.1 0"/>
<feBlend mode="normal" in2="effect2_dropShadow_2499_6507" result="effect3_dropShadow_2499_6507"/>
<feBlend mode="normal" in="SourceGraphic" in2="effect3_dropShadow_2499_6507" result="shape"/>
</filter>
<filter id="filter2_bdd_2499_6507" x="419" y="52" width="75.47" height="75.4697" filterUnits="userSpaceOnUse" color-interpolation-filters="sRGB">
<feFlood flood-opacity="0" result="BackgroundImageFix"/>
<feGaussianBlur in="BackgroundImageFix" stdDeviation="6"/>
<feComposite in2="SourceAlpha" operator="in" result="effect1_backgroundBlur_2499_6507"/>
<feColorMatrix in="SourceAlpha" type="matrix" values="0 0 0 0 0 0 0 0 0 0 0 0 0 0 0 0 0 0 127 0" result="hardAlpha"/>
<feMorphology radius="1" operator="erode" in="SourceAlpha" result="effect2_dropShadow_2499_6507"/>
<feOffset dy="2"/>
<feGaussianBlur stdDeviation="2"/>
<feComposite in2="hardAlpha" operator="out"/>
<feColorMatrix type="matrix" values="0 0 0 0 0.08125 0 0 0 0 0.09 0 0 0 0 0.3 0 0 0 0.06 0"/>
<feBlend mode="normal" in2="effect1_backgroundBlur_2499_6507" result="effect2_dropShadow_2499_6507"/>
<feColorMatrix in="SourceAlpha" type="matrix" values="0 0 0 0 0 0 0 0 0 0 0 0 0 0 0 0 0 0 127 0" result="hardAlpha"/>
<feMorphology radius="1" operator="erode" in="SourceAlpha" result="effect3_dropShadow_2499_6507"/>
<feOffset dy="4"/>
<feGaussianBlur stdDeviation="3"/>
<feComposite in2="hardAlpha" operator="out"/>
<feColorMatrix type="matrix" values="0 0 0 0 0.10625 0 0 0 0 0.137875 0 0 0 0 0.25 0 0 0 0.1 0"/>
<feBlend mode="normal" in2="effect2_dropShadow_2499_6507" result="effect3_dropShadow_2499_6507"/>
<feBlend mode="normal" in="SourceGraphic" in2="effect3_dropShadow_2499_6507" result="shape"/>
</filter>
<filter id="filter3_bdd_2499_6507" x="427" y="60" width="59.47" height="59.4697" filterUnits="userSpaceOnUse" color-interpolation-filters="sRGB">
<feFlood flood-opacity="0" result="BackgroundImageFix"/>
<feGaussianBlur in="BackgroundImageFix" stdDeviation="4"/>
<feComposite in2="SourceAlpha" operator="in" result="effect1_backgroundBlur_2499_6507"/>
<feColorMatrix in="SourceAlpha" type="matrix" values="0 0 0 0 0 0 0 0 0 0 0 0 0 0 0 0 0 0 127 0" result="hardAlpha"/>
<feOffset dy="1"/>
<feGaussianBlur stdDeviation="1"/>
<feComposite in2="hardAlpha" operator="out"/>
<feColorMatrix type="matrix" values="0 0 0 0 0 0 0 0 0 0 0 0 0 0 0 0 0 0 0.06 0"/>
<feBlend mode="normal" in2="effect1_backgroundBlur_2499_6507" result="effect2_dropShadow_2499_6507"/>
<feColorMatrix in="SourceAlpha" type="matrix" values="0 0 0 0 0 0 0 0 0 0 0 0 0 0 0 0 0 0 127 0" result="hardAlpha"/>
<feOffset dy="1"/>
<feGaussianBlur stdDeviation="1.5"/>
<feComposite in2="hardAlpha" operator="out"/>
<feColorMatrix type="matrix" values="0 0 0 0 0 0 0 0 0 0 0 0 0 0 0 0 0 0 0.1 0"/>
<feBlend mode="normal" in2="effect2_dropShadow_2499_6507" result="effect3_dropShadow_2499_6507"/>
<feBlend mode="normal" in="SourceGraphic" in2="effect3_dropShadow_2499_6507" result="shape"/>
</filter>
<filter id="filter4_bdd_2499_6507" x="188" y="287" width="75.47" height="75.4697" filterUnits="userSpaceOnUse" color-interpolation-filters="sRGB">
<feFlood flood-opacity="0" result="BackgroundImageFix"/>
<feGaussianBlur in="BackgroundImageFix" stdDeviation="6"/>
<feComposite in2="SourceAlpha" operator="in" result="effect1_backgroundBlur_2499_6507"/>
<feColorMatrix in="SourceAlpha" type="matrix" values="0 0 0 0 0 0 0 0 0 0 0 0 0 0 0 0 0 0 127 0" result="hardAlpha"/>
<feMorphology radius="1" operator="erode" in="SourceAlpha" result="effect2_dropShadow_2499_6507"/>
<feOffset dy="2"/>
<feGaussianBlur stdDeviation="2"/>
<feComposite in2="hardAlpha" operator="out"/>
<feColorMatrix type="matrix" values="0 0 0 0 0.08125 0 0 0 0 0.09 0 0 0 0 0.3 0 0 0 0.06 0"/>
<feBlend mode="normal" in2="effect1_backgroundBlur_2499_6507" result="effect2_dropShadow_2499_6507"/>
<feColorMatrix in="SourceAlpha" type="matrix" values="0 0 0 0 0 0 0 0 0 0 0 0 0 0 0 0 0 0 127 0" result="hardAlpha"/>
<feMorphology radius="1" operator="erode" in="SourceAlpha" result="effect3_dropShadow_2499_6507"/>
<feOffset dy="4"/>
<feGaussianBlur stdDeviation="3"/>
<feComposite in2="hardAlpha" operator="out"/>
<feColorMatrix type="matrix" values="0 0 0 0 0.10625 0 0 0 0 0.137875 0 0 0 0 0.25 0 0 0 0.1 0"/>
<feBlend mode="normal" in2="effect2_dropShadow_2499_6507" result="effect3_dropShadow_2499_6507"/>
<feBlend mode="normal" in="SourceGraphic" in2="effect3_dropShadow_2499_6507" result="shape"/>
</filter>
<filter id="filter5_bdd_2499_6507" x="196" y="295" width="59.47" height="59.4697" filterUnits="userSpaceOnUse" color-interpolation-filters="sRGB">
<feFlood flood-opacity="0" result="BackgroundImageFix"/>
<feGaussianBlur in="BackgroundImageFix" stdDeviation="4"/>
<feComposite in2="SourceAlpha" operator="in" result="effect1_backgroundBlur_2499_6507"/>
<feColorMatrix in="SourceAlpha" type="matrix" values="0 0 0 0 0 0 0 0 0 0 0 0 0 0 0 0 0 0 127 0" result="hardAlpha"/>
<feOffset dy="1"/>
<feGaussianBlur stdDeviation="1"/>
<feComposite in2="hardAlpha" operator="out"/>
<feColorMatrix type="matrix" values="0 0 0 0 0 0 0 0 0 0 0 0 0 0 0 0 0 0 0.06 0"/>
<feBlend mode="normal" in2="effect1_backgroundBlur_2499_6507" result="effect2_dropShadow_2499_6507"/>
<feColorMatrix in="SourceAlpha" type="matrix" values="0 0 0 0 0 0 0 0 0 0 0 0 0 0 0 0 0 0 127 0" result="hardAlpha"/>
<feOffset dy="1"/>
<feGaussianBlur stdDeviation="1.5"/>
<feComposite in2="hardAlpha" operator="out"/>
<feColorMatrix type="matrix" values="0 0 0 0 0 0 0 0 0 0 0 0 0 0 0 0 0 0 0.1 0"/>
<feBlend mode="normal" in2="effect2_dropShadow_2499_6507" result="effect3_dropShadow_2499_6507"/>
<feBlend mode="normal" in="SourceGraphic" in2="effect3_dropShadow_2499_6507" result="shape"/>
</filter>
<filter id="filter6_bdd_2499_6507" x="668" y="640" width="75.47" height="75.4697" filterUnits="userSpaceOnUse" color-interpolation-filters="sRGB">
<feFlood flood-opacity="0" result="BackgroundImageFix"/>
<feGaussianBlur in="BackgroundImageFix" stdDeviation="6"/>
<feComposite in2="SourceAlpha" operator="in" result="effect1_backgroundBlur_2499_6507"/>
<feColorMatrix in="SourceAlpha" type="matrix" values="0 0 0 0 0 0 0 0 0 0 0 0 0 0 0 0 0 0 127 0" result="hardAlpha"/>
<feMorphology radius="1" operator="erode" in="SourceAlpha" result="effect2_dropShadow_2499_6507"/>
<feOffset dy="2"/>
<feGaussianBlur stdDeviation="2"/>
<feComposite in2="hardAlpha" operator="out"/>
<feColorMatrix type="matrix" values="0 0 0 0 0.08125 0 0 0 0 0.09 0 0 0 0 0.3 0 0 0 0.06 0"/>
<feBlend mode="normal" in2="effect1_backgroundBlur_2499_6507" result="effect2_dropShadow_2499_6507"/>
<feColorMatrix in="SourceAlpha" type="matrix" values="0 0 0 0 0 0 0 0 0 0 0 0 0 0 0 0 0 0 127 0" result="hardAlpha"/>
<feMorphology radius="1" operator="erode" in="SourceAlpha" result="effect3_dropShadow_2499_6507"/>
<feOffset dy="4"/>
<feGaussianBlur stdDeviation="3"/>
<feComposite in2="hardAlpha" operator="out"/>
<feColorMatrix type="matrix" values="0 0 0 0 0.10625 0 0 0 0 0.137875 0 0 0 0 0.25 0 0 0 0.1 0"/>
<feBlend mode="normal" in2="effect2_dropShadow_2499_6507" result="effect3_dropShadow_2499_6507"/>
<feBlend mode="normal" in="SourceGraphic" in2="effect3_dropShadow_2499_6507" result="shape"/>
</filter>
<filter id="filter7_bdd_2499_6507" x="680.104" y="652.104" width="51.2616" height="51.2613" filterUnits="userSpaceOnUse" color-interpolation-filters="sRGB">
<feFlood flood-opacity="0" result="BackgroundImageFix"/>
<feGaussianBlur in="BackgroundImageFix" stdDeviation="3.44789"/>
<feComposite in2="SourceAlpha" operator="in" result="effect1_backgroundBlur_2499_6507"/>
<feColorMatrix in="SourceAlpha" type="matrix" values="0 0 0 0 0 0 0 0 0 0 0 0 0 0 0 0 0 0 127 0" result="hardAlpha"/>
<feOffset dy="0.861973"/>
<feGaussianBlur stdDeviation="0.861973"/>
<feComposite in2="hardAlpha" operator="out"/>
<feColorMatrix type="matrix" values="0 0 0 0 0 0 0 0 0 0 0 0 0 0 0 0 0 0 0.06 0"/>
<feBlend mode="normal" in2="effect1_backgroundBlur_2499_6507" result="effect2_dropShadow_2499_6507"/>
<feColorMatrix in="SourceAlpha" type="matrix" values="0 0 0 0 0 0 0 0 0 0 0 0 0 0 0 0 0 0 127 0" result="hardAlpha"/>
<feOffset dy="0.861973"/>
<feGaussianBlur stdDeviation="1.29296"/>
<feComposite in2="hardAlpha" operator="out"/>
<feColorMatrix type="matrix" values="0 0 0 0 0 0 0 0 0 0 0 0 0 0 0 0 0 0 0.1 0"/>
<feBlend mode="normal" in2="effect2_dropShadow_2499_6507" result="effect3_dropShadow_2499_6507"/>
<feBlend mode="normal" in="SourceGraphic" in2="effect3_dropShadow_2499_6507" result="shape"/>
</filter>
<filter id="filter8_bdd_2499_6507" x="763.47" y="396" width="75.47" height="75.4697" filterUnits="userSpaceOnUse" color-interpolation-filters="sRGB">
<feFlood flood-opacity="0" result="BackgroundImageFix"/>
<feGaussianBlur in="BackgroundImageFix" stdDeviation="6"/>
<feComposite in2="SourceAlpha" operator="in" result="effect1_backgroundBlur_2499_6507"/>
<feColorMatrix in="SourceAlpha" type="matrix" values="0 0 0 0 0 0 0 0 0 0 0 0 0 0 0 0 0 0 127 0" result="hardAlpha"/>
<feMorphology radius="1" operator="erode" in="SourceAlpha" result="effect2_dropShadow_2499_6507"/>
<feOffset dy="2"/>
<feGaussianBlur stdDeviation="2"/>
<feComposite in2="hardAlpha" operator="out"/>
<feColorMatrix type="matrix" values="0 0 0 0 0.08125 0 0 0 0 0.09 0 0 0 0 0.3 0 0 0 0.06 0"/>
<feBlend mode="normal" in2="effect1_backgroundBlur_2499_6507" result="effect2_dropShadow_2499_6507"/>
<feColorMatrix in="SourceAlpha" type="matrix" values="0 0 0 0 0 0 0 0 0 0 0 0 0 0 0 0 0 0 127 0" result="hardAlpha"/>
<feMorphology radius="1" operator="erode" in="SourceAlpha" result="effect3_dropShadow_2499_6507"/>
<feOffset dy="4"/>
<feGaussianBlur stdDeviation="3"/>
<feComposite in2="hardAlpha" operator="out"/>
<feColorMatrix type="matrix" values="0 0 0 0 0.10625 0 0 0 0 0.137875 0 0 0 0 0.25 0 0 0 0.1 0"/>
<feBlend mode="normal" in2="effect2_dropShadow_2499_6507" result="effect3_dropShadow_2499_6507"/>
<feBlend mode="normal" in="SourceGraphic" in2="effect3_dropShadow_2499_6507" result="shape"/>
</filter>
<filter id="filter9_bdd_2499_6507" x="533" y="168" width="75.47" height="75.4697" filterUnits="userSpaceOnUse" color-interpolation-filters="sRGB">
<feFlood flood-opacity="0" result="BackgroundImageFix"/>
<feGaussianBlur in="BackgroundImageFix" stdDeviation="6"/>
<feComposite in2="SourceAlpha" operator="in" result="effect1_backgroundBlur_2499_6507"/>
<feColorMatrix in="SourceAlpha" type="matrix" values="0 0 0 0 0 0 0 0 0 0 0 0 0 0 0 0 0 0 127 0" result="hardAlpha"/>
<feMorphology radius="1" operator="erode" in="SourceAlpha" result="effect2_dropShadow_2499_6507"/>
<feOffset dy="2"/>
<feGaussianBlur stdDeviation="2"/>
<feComposite in2="hardAlpha" operator="out"/>
<feColorMatrix type="matrix" values="0 0 0 0 0.08125 0 0 0 0 0.09 0 0 0 0 0.3 0 0 0 0.06 0"/>
<feBlend mode="normal" in2="effect1_backgroundBlur_2499_6507" result="effect2_dropShadow_2499_6507"/>
<feColorMatrix in="SourceAlpha" type="matrix" values="0 0 0 0 0 0 0 0 0 0 0 0 0 0 0 0 0 0 127 0" result="hardAlpha"/>
<feMorphology radius="1" operator="erode" in="SourceAlpha" result="effect3_dropShadow_2499_6507"/>
<feOffset dy="4"/>
<feGaussianBlur stdDeviation="3"/>
<feComposite in2="hardAlpha" operator="out"/>
<feColorMatrix type="matrix" values="0 0 0 0 0.10625 0 0 0 0 0.137875 0 0 0 0 0.25 0 0 0 0.1 0"/>
<feBlend mode="normal" in2="effect2_dropShadow_2499_6507" result="effect3_dropShadow_2499_6507"/>
<feBlend mode="normal" in="SourceGraphic" in2="effect3_dropShadow_2499_6507" result="shape"/>
</filter>
<filter id="filter10_bdd_2499_6507" x="307" y="631" width="75.47" height="75.4697" filterUnits="userSpaceOnUse" color-interpolation-filters="sRGB">
<feFlood flood-opacity="0" result="BackgroundImageFix"/>
<feGaussianBlur in="BackgroundImageFix" stdDeviation="6"/>
<feComposite in2="SourceAlpha" operator="in" result="effect1_backgroundBlur_2499_6507"/>
<feColorMatrix in="SourceAlpha" type="matrix" values="0 0 0 0 0 0 0 0 0 0 0 0 0 0 0 0 0 0 127 0" result="hardAlpha"/>
<feMorphology radius="1" operator="erode" in="SourceAlpha" result="effect2_dropShadow_2499_6507"/>
<feOffset dy="2"/>
<feGaussianBlur stdDeviation="2"/>
<feComposite in2="hardAlpha" operator="out"/>
<feColorMatrix type="matrix" values="0 0 0 0 0.08125 0 0 0 0 0.09 0 0 0 0 0.3 0 0 0 0.06 0"/>
<feBlend mode="normal" in2="effect1_backgroundBlur_2499_6507" result="effect2_dropShadow_2499_6507"/>
<feColorMatrix in="SourceAlpha" type="matrix" values="0 0 0 0 0 0 0 0 0 0 0 0 0 0 0 0 0 0 127 0" result="hardAlpha"/>
<feMorphology radius="1" operator="erode" in="SourceAlpha" result="effect3_dropShadow_2499_6507"/>
<feOffset dy="4"/>
<feGaussianBlur stdDeviation="3"/>
<feComposite in2="hardAlpha" operator="out"/>
<feColorMatrix type="matrix" values="0 0 0 0 0.10625 0 0 0 0 0.137875 0 0 0 0 0.25 0 0 0 0.1 0"/>
<feBlend mode="normal" in2="effect2_dropShadow_2499_6507" result="effect3_dropShadow_2499_6507"/>
<feBlend mode="normal" in="SourceGraphic" in2="effect3_dropShadow_2499_6507" result="shape"/>
</filter>
<filter id="filter11_bdd_2499_6507" x="668" y="153" width="75.47" height="75.4697" filterUnits="userSpaceOnUse" color-interpolation-filters="sRGB">
<feFlood flood-opacity="0" result="BackgroundImageFix"/>
<feGaussianBlur in="BackgroundImageFix" stdDeviation="6"/>
<feComposite in2="SourceAlpha" operator="in" result="effect1_backgroundBlur_2499_6507"/>
<feColorMatrix in="SourceAlpha" type="matrix" values="0 0 0 0 0 0 0 0 0 0 0 0 0 0 0 0 0 0 127 0" result="hardAlpha"/>
<feMorphology radius="1" operator="erode" in="SourceAlpha" result="effect2_dropShadow_2499_6507"/>
<feOffset dy="2"/>
<feGaussianBlur stdDeviation="2"/>
<feComposite in2="hardAlpha" operator="out"/>
<feColorMatrix type="matrix" values="0 0 0 0 0.08125 0 0 0 0 0.09 0 0 0 0 0.3 0 0 0 0.06 0"/>
<feBlend mode="normal" in2="effect1_backgroundBlur_2499_6507" result="effect2_dropShadow_2499_6507"/>
<feColorMatrix in="SourceAlpha" type="matrix" values="0 0 0 0 0 0 0 0 0 0 0 0 0 0 0 0 0 0 127 0" result="hardAlpha"/>
<feMorphology radius="1" operator="erode" in="SourceAlpha" result="effect3_dropShadow_2499_6507"/>
<feOffset dy="4"/>
<feGaussianBlur stdDeviation="3"/>
<feComposite in2="hardAlpha" operator="out"/>
<feColorMatrix type="matrix" values="0 0 0 0 0.10625 0 0 0 0 0.137875 0 0 0 0 0.25 0 0 0 0.1 0"/>
<feBlend mode="normal" in2="effect2_dropShadow_2499_6507" result="effect3_dropShadow_2499_6507"/>
<feBlend mode="normal" in="SourceGraphic" in2="effect3_dropShadow_2499_6507" result="shape"/>
</filter>
<filter id="filter12_bdd_2499_6507" x="676" y="161" width="59.47" height="59.4697" filterUnits="userSpaceOnUse" color-interpolation-filters="sRGB">
<feFlood flood-opacity="0" result="BackgroundImageFix"/>
<feGaussianBlur in="BackgroundImageFix" stdDeviation="4"/>
<feComposite in2="SourceAlpha" operator="in" result="effect1_backgroundBlur_2499_6507"/>
<feColorMatrix in="SourceAlpha" type="matrix" values="0 0 0 0 0 0 0 0 0 0 0 0 0 0 0 0 0 0 127 0" result="hardAlpha"/>
<feOffset dy="1"/>
<feGaussianBlur stdDeviation="1"/>
<feComposite in2="hardAlpha" operator="out"/>
<feColorMatrix type="matrix" values="0 0 0 0 0 0 0 0 0 0 0 0 0 0 0 0 0 0 0.06 0"/>
<feBlend mode="normal" in2="effect1_backgroundBlur_2499_6507" result="effect2_dropShadow_2499_6507"/>
<feColorMatrix in="SourceAlpha" type="matrix" values="0 0 0 0 0 0 0 0 0 0 0 0 0 0 0 0 0 0 127 0" result="hardAlpha"/>
<feOffset dy="1"/>
<feGaussianBlur stdDeviation="1.5"/>
<feComposite in2="hardAlpha" operator="out"/>
<feColorMatrix type="matrix" values="0 0 0 0 0 0 0 0 0 0 0 0 0 0 0 0 0 0 0.1 0"/>
<feBlend mode="normal" in2="effect2_dropShadow_2499_6507" result="effect3_dropShadow_2499_6507"/>
<feBlend mode="normal" in="SourceGraphic" in2="effect3_dropShadow_2499_6507" result="shape"/>
</filter>
<filter id="filter13_bdd_2499_6507" x="647" y="288" width="75.47" height="75.4697" filterUnits="userSpaceOnUse" color-interpolation-filters="sRGB">
<feFlood flood-opacity="0" result="BackgroundImageFix"/>
<feGaussianBlur in="BackgroundImageFix" stdDeviation="6"/>
<feComposite in2="SourceAlpha" operator="in" result="effect1_backgroundBlur_2499_6507"/>
<feColorMatrix in="SourceAlpha" type="matrix" values="0 0 0 0 0 0 0 0 0 0 0 0 0 0 0 0 0 0 127 0" result="hardAlpha"/>
<feMorphology radius="1" operator="erode" in="SourceAlpha" result="effect2_dropShadow_2499_6507"/>
<feOffset dy="2"/>
<feGaussianBlur stdDeviation="2"/>
<feComposite in2="hardAlpha" operator="out"/>
<feColorMatrix type="matrix" values="0 0 0 0 0.08125 0 0 0 0 0.09 0 0 0 0 0.3 0 0 0 0.06 0"/>
<feBlend mode="normal" in2="effect1_backgroundBlur_2499_6507" result="effect2_dropShadow_2499_6507"/>
<feColorMatrix in="SourceAlpha" type="matrix" values="0 0 0 0 0 0 0 0 0 0 0 0 0 0 0 0 0 0 127 0" result="hardAlpha"/>
<feMorphology radius="1" operator="erode" in="SourceAlpha" result="effect3_dropShadow_2499_6507"/>
<feOffset dy="4"/>
<feGaussianBlur stdDeviation="3"/>
<feComposite in2="hardAlpha" operator="out"/>
<feColorMatrix type="matrix" values="0 0 0 0 0.10625 0 0 0 0 0.137875 0 0 0 0 0.25 0 0 0 0.1 0"/>
<feBlend mode="normal" in2="effect2_dropShadow_2499_6507" result="effect3_dropShadow_2499_6507"/>
<feBlend mode="normal" in="SourceGraphic" in2="effect3_dropShadow_2499_6507" result="shape"/>
</filter>
<filter id="filter14_bdd_2499_6507" x="655" y="296" width="59.47" height="59.4697" filterUnits="userSpaceOnUse" color-interpolation-filters="sRGB">
<feFlood flood-opacity="0" result="BackgroundImageFix"/>
<feGaussianBlur in="BackgroundImageFix" stdDeviation="4"/>
<feComposite in2="SourceAlpha" operator="in" result="effect1_backgroundBlur_2499_6507"/>
<feColorMatrix in="SourceAlpha" type="matrix" values="0 0 0 0 0 0 0 0 0 0 0 0 0 0 0 0 0 0 127 0" result="hardAlpha"/>
<feOffset dy="1"/>
<feGaussianBlur stdDeviation="1"/>
<feComposite in2="hardAlpha" operator="out"/>
<feColorMatrix type="matrix" values="0 0 0 0 0 0 0 0 0 0 0 0 0 0 0 0 0 0 0.06 0"/>
<feBlend mode="normal" in2="effect1_backgroundBlur_2499_6507" result="effect2_dropShadow_2499_6507"/>
<feColorMatrix in="SourceAlpha" type="matrix" values="0 0 0 0 0 0 0 0 0 0 0 0 0 0 0 0 0 0 127 0" result="hardAlpha"/>
<feOffset dy="1"/>
<feGaussianBlur stdDeviation="1.5"/>
<feComposite in2="hardAlpha" operator="out"/>
<feColorMatrix type="matrix" values="0 0 0 0 0 0 0 0 0 0 0 0 0 0 0 0 0 0 0.1 0"/>
<feBlend mode="normal" in2="effect2_dropShadow_2499_6507" result="effect3_dropShadow_2499_6507"/>
<feBlend mode="normal" in="SourceGraphic" in2="effect3_dropShadow_2499_6507" result="shape"/>
</filter>
<filter id="filter15_bdd_2499_6507" x="419" y="740" width="75.47" height="75.4697" filterUnits="userSpaceOnUse" color-interpolation-filters="sRGB">
<feFlood flood-opacity="0" result="BackgroundImageFix"/>
<feGaussianBlur in="BackgroundImageFix" stdDeviation="6"/>
<feComposite in2="SourceAlpha" operator="in" result="effect1_backgroundBlur_2499_6507"/>
<feColorMatrix in="SourceAlpha" type="matrix" values="0 0 0 0 0 0 0 0 0 0 0 0 0 0 0 0 0 0 127 0" result="hardAlpha"/>
<feMorphology radius="1" operator="erode" in="SourceAlpha" result="effect2_dropShadow_2499_6507"/>
<feOffset dy="2"/>
<feGaussianBlur stdDeviation="2"/>
<feComposite in2="hardAlpha" operator="out"/>
<feColorMatrix type="matrix" values="0 0 0 0 0.08125 0 0 0 0 0.09 0 0 0 0 0.3 0 0 0 0.06 0"/>
<feBlend mode="normal" in2="effect1_backgroundBlur_2499_6507" result="effect2_dropShadow_2499_6507"/>
<feColorMatrix in="SourceAlpha" type="matrix" values="0 0 0 0 0 0 0 0 0 0 0 0 0 0 0 0 0 0 127 0" result="hardAlpha"/>
<feMorphology radius="1" operator="erode" in="SourceAlpha" result="effect3_dropShadow_2499_6507"/>
<feOffset dy="4"/>
<feGaussianBlur stdDeviation="3"/>
<feComposite in2="hardAlpha" operator="out"/>
<feColorMatrix type="matrix" values="0 0 0 0 0.10625 0 0 0 0 0.137875 0 0 0 0 0.25 0 0 0 0.1 0"/>
<feBlend mode="normal" in2="effect2_dropShadow_2499_6507" result="effect3_dropShadow_2499_6507"/>
<feBlend mode="normal" in="SourceGraphic" in2="effect3_dropShadow_2499_6507" result="shape"/>
</filter>
<filter id="filter16_bdd_2499_6507" x="432.235" y="753.235" width="49" height="49" filterUnits="userSpaceOnUse" color-interpolation-filters="sRGB">
<feFlood flood-opacity="0" result="BackgroundImageFix"/>
<feGaussianBlur in="BackgroundImageFix" stdDeviation="4"/>
<feComposite in2="SourceAlpha" operator="in" result="effect1_backgroundBlur_2499_6507"/>
<feColorMatrix in="SourceAlpha" type="matrix" values="0 0 0 0 0 0 0 0 0 0 0 0 0 0 0 0 0 0 127 0" result="hardAlpha"/>
<feOffset dy="1"/>
<feGaussianBlur stdDeviation="1"/>
<feComposite in2="hardAlpha" operator="out"/>
<feColorMatrix type="matrix" values="0 0 0 0 0 0 0 0 0 0 0 0 0 0 0 0 0 0 0.06 0"/>
<feBlend mode="normal" in2="effect1_backgroundBlur_2499_6507" result="effect2_dropShadow_2499_6507"/>
<feColorMatrix in="SourceAlpha" type="matrix" values="0 0 0 0 0 0 0 0 0 0 0 0 0 0 0 0 0 0 127 0" result="hardAlpha"/>
<feOffset dy="1"/>
<feGaussianBlur stdDeviation="1.5"/>
<feComposite in2="hardAlpha" operator="out"/>
<feColorMatrix type="matrix" values="0 0 0 0 0 0 0 0 0 0 0 0 0 0 0 0 0 0 0.1 0"/>
<feBlend mode="normal" in2="effect2_dropShadow_2499_6507" result="effect3_dropShadow_2499_6507"/>
<feBlend mode="normal" in="SourceGraphic" in2="effect3_dropShadow_2499_6507" result="shape"/>
</filter>
<filter id="filter17_bdd_2499_6507" x="179" y="154" width="75.47" height="75.4697" filterUnits="userSpaceOnUse" color-interpolation-filters="sRGB">
<feFlood flood-opacity="0" result="BackgroundImageFix"/>
<feGaussianBlur in="BackgroundImageFix" stdDeviation="6"/>
<feComposite in2="SourceAlpha" operator="in" result="effect1_backgroundBlur_2499_6507"/>
<feColorMatrix in="SourceAlpha" type="matrix" values="0 0 0 0 0 0 0 0 0 0 0 0 0 0 0 0 0 0 127 0" result="hardAlpha"/>
<feMorphology radius="1" operator="erode" in="SourceAlpha" result="effect2_dropShadow_2499_6507"/>
<feOffset dy="2"/>
<feGaussianBlur stdDeviation="2"/>
<feComposite in2="hardAlpha" operator="out"/>
<feColorMatrix type="matrix" values="0 0 0 0 0.08125 0 0 0 0 0.09 0 0 0 0 0.3 0 0 0 0.06 0"/>
<feBlend mode="normal" in2="effect1_backgroundBlur_2499_6507" result="effect2_dropShadow_2499_6507"/>
<feColorMatrix in="SourceAlpha" type="matrix" values="0 0 0 0 0 0 0 0 0 0 0 0 0 0 0 0 0 0 127 0" result="hardAlpha"/>
<feMorphology radius="1" operator="erode" in="SourceAlpha" result="effect3_dropShadow_2499_6507"/>
<feOffset dy="4"/>
<feGaussianBlur stdDeviation="3"/>
<feComposite in2="hardAlpha" operator="out"/>
<feColorMatrix type="matrix" values="0 0 0 0 0.10625 0 0 0 0 0.137875 0 0 0 0 0.25 0 0 0 0.1 0"/>
<feBlend mode="normal" in2="effect2_dropShadow_2499_6507" result="effect3_dropShadow_2499_6507"/>
<feBlend mode="normal" in="SourceGraphic" in2="effect3_dropShadow_2499_6507" result="shape"/>
</filter>
<filter id="filter18_bdd_2499_6507" x="187" y="162" width="59.47" height="59.4697" filterUnits="userSpaceOnUse" color-interpolation-filters="sRGB">
<feFlood flood-opacity="0" result="BackgroundImageFix"/>
<feGaussianBlur in="BackgroundImageFix" stdDeviation="4"/>
<feComposite in2="SourceAlpha" operator="in" result="effect1_backgroundBlur_2499_6507"/>
<feColorMatrix in="SourceAlpha" type="matrix" values="0 0 0 0 0 0 0 0 0 0 0 0 0 0 0 0 0 0 127 0" result="hardAlpha"/>
<feOffset dy="1"/>
<feGaussianBlur stdDeviation="1"/>
<feComposite in2="hardAlpha" operator="out"/>
<feColorMatrix type="matrix" values="0 0 0 0 0 0 0 0 0 0 0 0 0 0 0 0 0 0 0.06 0"/>
<feBlend mode="normal" in2="effect1_backgroundBlur_2499_6507" result="effect2_dropShadow_2499_6507"/>
<feColorMatrix in="SourceAlpha" type="matrix" values="0 0 0 0 0 0 0 0 0 0 0 0 0 0 0 0 0 0 127 0" result="hardAlpha"/>
<feOffset dy="1"/>
<feGaussianBlur stdDeviation="1.5"/>
<feComposite in2="hardAlpha" operator="out"/>
<feColorMatrix type="matrix" values="0 0 0 0 0 0 0 0 0 0 0 0 0 0 0 0 0 0 0.1 0"/>
<feBlend mode="normal" in2="effect2_dropShadow_2499_6507" result="effect3_dropShadow_2499_6507"/>
<feBlend mode="normal" in="SourceGraphic" in2="effect3_dropShadow_2499_6507" result="shape"/>
</filter>
<filter id="filter19_bdd_2499_6507" x="650" y="493" width="75.47" height="75.4697" filterUnits="userSpaceOnUse" color-interpolation-filters="sRGB">
<feFlood flood-opacity="0" result="BackgroundImageFix"/>
<feGaussianBlur in="BackgroundImageFix" stdDeviation="6"/>
<feComposite in2="SourceAlpha" operator="in" result="effect1_backgroundBlur_2499_6507"/>
<feColorMatrix in="SourceAlpha" type="matrix" values="0 0 0 0 0 0 0 0 0 0 0 0 0 0 0 0 0 0 127 0" result="hardAlpha"/>
<feMorphology radius="1" operator="erode" in="SourceAlpha" result="effect2_dropShadow_2499_6507"/>
<feOffset dy="2"/>
<feGaussianBlur stdDeviation="2"/>
<feComposite in2="hardAlpha" operator="out"/>
<feColorMatrix type="matrix" values="0 0 0 0 0.08125 0 0 0 0 0.09 0 0 0 0 0.3 0 0 0 0.06 0"/>
<feBlend mode="normal" in2="effect1_backgroundBlur_2499_6507" result="effect2_dropShadow_2499_6507"/>
<feColorMatrix in="SourceAlpha" type="matrix" values="0 0 0 0 0 0 0 0 0 0 0 0 0 0 0 0 0 0 127 0" result="hardAlpha"/>
<feMorphology radius="1" operator="erode" in="SourceAlpha" result="effect3_dropShadow_2499_6507"/>
<feOffset dy="4"/>
<feGaussianBlur stdDeviation="3"/>
<feComposite in2="hardAlpha" operator="out"/>
<feColorMatrix type="matrix" values="0 0 0 0 0.10625 0 0 0 0 0.137875 0 0 0 0 0.25 0 0 0 0.1 0"/>
<feBlend mode="normal" in2="effect2_dropShadow_2499_6507" result="effect3_dropShadow_2499_6507"/>
<feBlend mode="normal" in="SourceGraphic" in2="effect3_dropShadow_2499_6507" result="shape"/>
</filter>
<filter id="filter20_bdd_2499_6507" x="76" y="396" width="75.47" height="75.4697" filterUnits="userSpaceOnUse" color-interpolation-filters="sRGB">
<feFlood flood-opacity="0" result="BackgroundImageFix"/>
<feGaussianBlur in="BackgroundImageFix" stdDeviation="6"/>
<feComposite in2="SourceAlpha" operator="in" result="effect1_backgroundBlur_2499_6507"/>
<feColorMatrix in="SourceAlpha" type="matrix" values="0 0 0 0 0 0 0 0 0 0 0 0 0 0 0 0 0 0 127 0" result="hardAlpha"/>
<feMorphology radius="1" operator="erode" in="SourceAlpha" result="effect2_dropShadow_2499_6507"/>
<feOffset dy="2"/>
<feGaussianBlur stdDeviation="2"/>
<feComposite in2="hardAlpha" operator="out"/>
<feColorMatrix type="matrix" values="0 0 0 0 0.08125 0 0 0 0 0.09 0 0 0 0 0.3 0 0 0 0.06 0"/>
<feBlend mode="normal" in2="effect1_backgroundBlur_2499_6507" result="effect2_dropShadow_2499_6507"/>
<feColorMatrix in="SourceAlpha" type="matrix" values="0 0 0 0 0 0 0 0 0 0 0 0 0 0 0 0 0 0 127 0" result="hardAlpha"/>
<feMorphology radius="1" operator="erode" in="SourceAlpha" result="effect3_dropShadow_2499_6507"/>
<feOffset dy="4"/>
<feGaussianBlur stdDeviation="3"/>
<feComposite in2="hardAlpha" operator="out"/>
<feColorMatrix type="matrix" values="0 0 0 0 0.10625 0 0 0 0 0.137875 0 0 0 0 0.25 0 0 0 0.1 0"/>
<feBlend mode="normal" in2="effect2_dropShadow_2499_6507" result="effect3_dropShadow_2499_6507"/>
<feBlend mode="normal" in="SourceGraphic" in2="effect3_dropShadow_2499_6507" result="shape"/>
</filter>
<filter id="filter21_bdd_2499_6507" x="537" y="627" width="75.47" height="75.4697" filterUnits="userSpaceOnUse" color-interpolation-filters="sRGB">
<feFlood flood-opacity="0" result="BackgroundImageFix"/>
<feGaussianBlur in="BackgroundImageFix" stdDeviation="6"/>
<feComposite in2="SourceAlpha" operator="in" result="effect1_backgroundBlur_2499_6507"/>
<feColorMatrix in="SourceAlpha" type="matrix" values="0 0 0 0 0 0 0 0 0 0 0 0 0 0 0 0 0 0 127 0" result="hardAlpha"/>
<feMorphology radius="1" operator="erode" in="SourceAlpha" result="effect2_dropShadow_2499_6507"/>
<feOffset dy="2"/>
<feGaussianBlur stdDeviation="2"/>
<feComposite in2="hardAlpha" operator="out"/>
<feColorMatrix type="matrix" values="0 0 0 0 0.08125 0 0 0 0 0.09 0 0 0 0 0.3 0 0 0 0.06 0"/>
<feBlend mode="normal" in2="effect1_backgroundBlur_2499_6507" result="effect2_dropShadow_2499_6507"/>
<feColorMatrix in="SourceAlpha" type="matrix" values="0 0 0 0 0 0 0 0 0 0 0 0 0 0 0 0 0 0 127 0" result="hardAlpha"/>
<feMorphology radius="1" operator="erode" in="SourceAlpha" result="effect3_dropShadow_2499_6507"/>
<feOffset dy="4"/>
<feGaussianBlur stdDeviation="3"/>
<feComposite in2="hardAlpha" operator="out"/>
<feColorMatrix type="matrix" values="0 0 0 0 0.10625 0 0 0 0 0.137875 0 0 0 0 0.25 0 0 0 0.1 0"/>
<feBlend mode="normal" in2="effect2_dropShadow_2499_6507" result="effect3_dropShadow_2499_6507"/>
<feBlend mode="normal" in="SourceGraphic" in2="effect3_dropShadow_2499_6507" result="shape"/>
</filter>
<filter id="filter22_bdd_2499_6507" x="186" y="492" width="75.47" height="75.4697" filterUnits="userSpaceOnUse" color-interpolation-filters="sRGB">
<feFlood flood-opacity="0" result="BackgroundImageFix"/>
<feGaussianBlur in="BackgroundImageFix" stdDeviation="6"/>
<feComposite in2="SourceAlpha" operator="in" result="effect1_backgroundBlur_2499_6507"/>
<feColorMatrix in="SourceAlpha" type="matrix" values="0 0 0 0 0 0 0 0 0 0 0 0 0 0 0 0 0 0 127 0" result="hardAlpha"/>
<feMorphology radius="1" operator="erode" in="SourceAlpha" result="effect2_dropShadow_2499_6507"/>
<feOffset dy="2"/>
<feGaussianBlur stdDeviation="2"/>
<feComposite in2="hardAlpha" operator="out"/>
<feColorMatrix type="matrix" values="0 0 0 0 0.08125 0 0 0 0 0.09 0 0 0 0 0.3 0 0 0 0.06 0"/>
<feBlend mode="normal" in2="effect1_backgroundBlur_2499_6507" result="effect2_dropShadow_2499_6507"/>
<feColorMatrix in="SourceAlpha" type="matrix" values="0 0 0 0 0 0 0 0 0 0 0 0 0 0 0 0 0 0 127 0" result="hardAlpha"/>
<feMorphology radius="1" operator="erode" in="SourceAlpha" result="effect3_dropShadow_2499_6507"/>
<feOffset dy="4"/>
<feGaussianBlur stdDeviation="3"/>
<feComposite in2="hardAlpha" operator="out"/>
<feColorMatrix type="matrix" values="0 0 0 0 0.10625 0 0 0 0 0.137875 0 0 0 0 0.25 0 0 0 0.1 0"/>
<feBlend mode="normal" in2="effect2_dropShadow_2499_6507" result="effect3_dropShadow_2499_6507"/>
<feBlend mode="normal" in="SourceGraphic" in2="effect3_dropShadow_2499_6507" result="shape"/>
</filter>
<filter id="filter23_bdd_2499_6507" x="175" y="640" width="75.47" height="75.4697" filterUnits="userSpaceOnUse" color-interpolation-filters="sRGB">
<feFlood flood-opacity="0" result="BackgroundImageFix"/>
<feGaussianBlur in="BackgroundImageFix" stdDeviation="6"/>
<feComposite in2="SourceAlpha" operator="in" result="effect1_backgroundBlur_2499_6507"/>
<feColorMatrix in="SourceAlpha" type="matrix" values="0 0 0 0 0 0 0 0 0 0 0 0 0 0 0 0 0 0 127 0" result="hardAlpha"/>
<feMorphology radius="1" operator="erode" in="SourceAlpha" result="effect2_dropShadow_2499_6507"/>
<feOffset dy="2"/>
<feGaussianBlur stdDeviation="2"/>
<feComposite in2="hardAlpha" operator="out"/>
<feColorMatrix type="matrix" values="0 0 0 0 0.08125 0 0 0 0 0.09 0 0 0 0 0.3 0 0 0 0.06 0"/>
<feBlend mode="normal" in2="effect1_backgroundBlur_2499_6507" result="effect2_dropShadow_2499_6507"/>
<feColorMatrix in="SourceAlpha" type="matrix" values="0 0 0 0 0 0 0 0 0 0 0 0 0 0 0 0 0 0 127 0" result="hardAlpha"/>
<feMorphology radius="1" operator="erode" in="SourceAlpha" result="effect3_dropShadow_2499_6507"/>
<feOffset dy="4"/>
<feGaussianBlur stdDeviation="3"/>
<feComposite in2="hardAlpha" operator="out"/>
<feColorMatrix type="matrix" values="0 0 0 0 0.10625 0 0 0 0 0.137875 0 0 0 0 0.25 0 0 0 0.1 0"/>
<feBlend mode="normal" in2="effect2_dropShadow_2499_6507" result="effect3_dropShadow_2499_6507"/>
<feBlend mode="normal" in="SourceGraphic" in2="effect3_dropShadow_2499_6507" result="shape"/>
</filter>
<filter id="filter24_bdd_2499_6507" x="183" y="648" width="59.47" height="59.4697" filterUnits="userSpaceOnUse" color-interpolation-filters="sRGB">
<feFlood flood-opacity="0" result="BackgroundImageFix"/>
<feGaussianBlur in="BackgroundImageFix" stdDeviation="4"/>
<feComposite in2="SourceAlpha" operator="in" result="effect1_backgroundBlur_2499_6507"/>
<feColorMatrix in="SourceAlpha" type="matrix" values="0 0 0 0 0 0 0 0 0 0 0 0 0 0 0 0 0 0 127 0" result="hardAlpha"/>
<feOffset dy="1"/>
<feGaussianBlur stdDeviation="1"/>
<feComposite in2="hardAlpha" operator="out"/>
<feColorMatrix type="matrix" values="0 0 0 0 0 0 0 0 0 0 0 0 0 0 0 0 0 0 0.06 0"/>
<feBlend mode="normal" in2="effect1_backgroundBlur_2499_6507" result="effect2_dropShadow_2499_6507"/>
<feColorMatrix in="SourceAlpha" type="matrix" values="0 0 0 0 0 0 0 0 0 0 0 0 0 0 0 0 0 0 127 0" result="hardAlpha"/>
<feOffset dy="1"/>
<feGaussianBlur stdDeviation="1.5"/>
<feComposite in2="hardAlpha" operator="out"/>
<feColorMatrix type="matrix" values="0 0 0 0 0 0 0 0 0 0 0 0 0 0 0 0 0 0 0.1 0"/>
<feBlend mode="normal" in2="effect2_dropShadow_2499_6507" result="effect3_dropShadow_2499_6507"/>
<feBlend mode="normal" in="SourceGraphic" in2="effect3_dropShadow_2499_6507" result="shape"/>
</filter>
<linearGradient id="paint0_linear_2499_6507" x1="353.735" y1="179" x2="353.735" y2="230.47" gradientUnits="userSpaceOnUse">
<stop stop-color="white" stop-opacity="0.6"/>
<stop offset="1" stop-color="white" stop-opacity="0.5"/>
</linearGradient>
<linearGradient id="paint1_linear_2499_6507" x1="352.5" y1="230" x2="352.5" y2="180" gradientUnits="userSpaceOnUse">
<stop offset="0.380208" stop-color="white"/>
<stop offset="1" stop-color="#F3F4F6"/>
</linearGradient>
<linearGradient id="paint2_linear_2499_6507" x1="456.735" y1="64" x2="456.735" y2="115.47" gradientUnits="userSpaceOnUse">
<stop stop-color="white" stop-opacity="0.6"/>
<stop offset="1" stop-color="white" stop-opacity="0.5"/>
</linearGradient>
<linearGradient id="paint3_linear_2499_6507" x1="455.5" y1="115" x2="455.5" y2="65" gradientUnits="userSpaceOnUse">
<stop offset="0.380208" stop-color="white"/>
<stop offset="1" stop-color="#F3F4F6"/>
</linearGradient>
<linearGradient id="paint4_linear_2499_6507" x1="225.735" y1="299" x2="225.735" y2="350.47" gradientUnits="userSpaceOnUse">
<stop stop-color="white" stop-opacity="0.6"/>
<stop offset="1" stop-color="white" stop-opacity="0.5"/>
</linearGradient>
<linearGradient id="paint5_linear_2499_6507" x1="224.5" y1="350" x2="224.5" y2="300" gradientUnits="userSpaceOnUse">
<stop offset="0.380208" stop-color="white"/>
<stop offset="1" stop-color="#F3F4F6"/>
</linearGradient>
<linearGradient id="paint6_linear_2499_6507" x1="705.735" y1="652" x2="705.735" y2="703.47" gradientUnits="userSpaceOnUse">
<stop stop-color="white" stop-opacity="0.6"/>
<stop offset="1" stop-color="white" stop-opacity="0.5"/>
</linearGradient>
<linearGradient id="paint7_linear_2499_6507" x1="704.5" y1="703" x2="704.5" y2="653" gradientUnits="userSpaceOnUse">
<stop offset="0.380208" stop-color="white"/>
<stop offset="1" stop-color="#F3F4F6"/>
</linearGradient>
<linearGradient id="paint8_linear_2499_6507" x1="801.205" y1="408" x2="801.205" y2="459.47" gradientUnits="userSpaceOnUse">
<stop stop-color="white" stop-opacity="0.6"/>
<stop offset="1" stop-color="white" stop-opacity="0.5"/>
</linearGradient>
<linearGradient id="paint9_linear_2499_6507" x1="799.97" y1="459" x2="799.97" y2="409" gradientUnits="userSpaceOnUse">
<stop offset="0.380208" stop-color="white"/>
<stop offset="1" stop-color="#F3F4F6"/>
</linearGradient>
<linearGradient id="paint10_linear_2499_6507" x1="570.735" y1="180" x2="570.735" y2="231.47" gradientUnits="userSpaceOnUse">
<stop stop-color="white" stop-opacity="0.6"/>
<stop offset="1" stop-color="white" stop-opacity="0.5"/>
</linearGradient>
<linearGradient id="paint11_linear_2499_6507" x1="569.5" y1="231" x2="569.5" y2="181" gradientUnits="userSpaceOnUse">
<stop offset="0.380208" stop-color="white"/>
<stop offset="1" stop-color="#F3F4F6"/>
</linearGradient>
<linearGradient id="paint12_linear_2499_6507" x1="344.735" y1="643" x2="344.735" y2="694.47" gradientUnits="userSpaceOnUse">
<stop stop-color="white" stop-opacity="0.6"/>
<stop offset="1" stop-color="white" stop-opacity="0.5"/>
</linearGradient>
<linearGradient id="paint13_linear_2499_6507" x1="343.5" y1="694" x2="343.5" y2="644" gradientUnits="userSpaceOnUse">
<stop offset="0.380208" stop-color="white"/>
<stop offset="1" stop-color="#F3F4F6"/>
</linearGradient>
<linearGradient id="paint14_linear_2499_6507" x1="705.735" y1="165" x2="705.735" y2="216.47" gradientUnits="userSpaceOnUse">
<stop stop-color="white" stop-opacity="0.6"/>
<stop offset="1" stop-color="white" stop-opacity="0.5"/>
</linearGradient>
<linearGradient id="paint15_linear_2499_6507" x1="704.5" y1="216" x2="704.5" y2="166" gradientUnits="userSpaceOnUse">
<stop offset="0.380208" stop-color="white"/>
<stop offset="1" stop-color="#F3F4F6"/>
</linearGradient>
<linearGradient id="paint16_linear_2499_6507" x1="684.735" y1="300" x2="684.735" y2="351.47" gradientUnits="userSpaceOnUse">
<stop stop-color="white" stop-opacity="0.6"/>
<stop offset="1" stop-color="white" stop-opacity="0.5"/>
</linearGradient>
<linearGradient id="paint17_linear_2499_6507" x1="683.5" y1="351" x2="683.5" y2="301" gradientUnits="userSpaceOnUse">
<stop offset="0.380208" stop-color="white"/>
<stop offset="1" stop-color="#F3F4F6"/>
</linearGradient>
<linearGradient id="paint18_linear_2499_6507" x1="456.735" y1="752" x2="456.735" y2="803.47" gradientUnits="userSpaceOnUse">
<stop stop-color="white" stop-opacity="0.6"/>
<stop offset="1" stop-color="white" stop-opacity="0.5"/>
</linearGradient>
<linearGradient id="paint19_linear_2499_6507" x1="455.5" y1="803" x2="455.5" y2="753" gradientUnits="userSpaceOnUse">
<stop offset="0.380208" stop-color="white"/>
<stop offset="1" stop-color="#F3F4F6"/>
</linearGradient>
<linearGradient id="paint20_linear_2499_6507" x1="216.735" y1="166" x2="216.735" y2="217.47" gradientUnits="userSpaceOnUse">
<stop stop-color="white" stop-opacity="0.6"/>
<stop offset="1" stop-color="white" stop-opacity="0.5"/>
</linearGradient>
<linearGradient id="paint21_linear_2499_6507" x1="215.5" y1="217" x2="215.5" y2="167" gradientUnits="userSpaceOnUse">
<stop offset="0.380208" stop-color="white"/>
<stop offset="1" stop-color="#F3F4F6"/>
</linearGradient>
<linearGradient id="paint22_linear_2499_6507" x1="202.539" y1="197.934" x2="230.649" y2="197.934" gradientUnits="userSpaceOnUse">
<stop stop-color="#8930FD"/>
<stop offset="1" stop-color="#49CCF9"/>
</linearGradient>
<linearGradient id="paint23_linear_2499_6507" x1="203.114" y1="186.162" x2="230.065" y2="186.162" gradientUnits="userSpaceOnUse">
<stop stop-color="#FF02F0"/>
<stop offset="1" stop-color="#FFC800"/>
</linearGradient>
<linearGradient id="paint24_linear_2499_6507" x1="687.735" y1="505" x2="687.735" y2="556.47" gradientUnits="userSpaceOnUse">
<stop stop-color="white" stop-opacity="0.6"/>
<stop offset="1" stop-color="white" stop-opacity="0.5"/>
</linearGradient>
<linearGradient id="paint25_linear_2499_6507" x1="686.5" y1="556" x2="686.5" y2="506" gradientUnits="userSpaceOnUse">
<stop offset="0.380208" stop-color="white"/>
<stop offset="1" stop-color="#F3F4F6"/>
</linearGradient>
<linearGradient id="paint26_linear_2499_6507" x1="113.735" y1="408" x2="113.735" y2="459.47" gradientUnits="userSpaceOnUse">
<stop stop-color="white" stop-opacity="0.6"/>
<stop offset="1" stop-color="white" stop-opacity="0.5"/>
</linearGradient>
<linearGradient id="paint27_linear_2499_6507" x1="112.5" y1="459" x2="112.5" y2="409" gradientUnits="userSpaceOnUse">
<stop offset="0.380208" stop-color="white"/>
<stop offset="1" stop-color="#F3F4F6"/>
</linearGradient>
<linearGradient id="paint28_linear_2499_6507" x1="574.735" y1="639" x2="574.735" y2="690.47" gradientUnits="userSpaceOnUse">
<stop stop-color="white" stop-opacity="0.6"/>
<stop offset="1" stop-color="white" stop-opacity="0.5"/>
</linearGradient>
<linearGradient id="paint29_linear_2499_6507" x1="573.5" y1="690" x2="573.5" y2="640" gradientUnits="userSpaceOnUse">
<stop offset="0.380208" stop-color="white"/>
<stop offset="1" stop-color="#F3F4F6"/>
</linearGradient>
<linearGradient id="paint30_linear_2499_6507" x1="223.735" y1="504" x2="223.735" y2="555.47" gradientUnits="userSpaceOnUse">
<stop stop-color="white" stop-opacity="0.6"/>
<stop offset="1" stop-color="white" stop-opacity="0.5"/>
</linearGradient>
<linearGradient id="paint31_linear_2499_6507" x1="222.5" y1="555" x2="222.5" y2="505" gradientUnits="userSpaceOnUse">
<stop offset="0.380208" stop-color="white"/>
<stop offset="1" stop-color="#F3F4F6"/>
</linearGradient>
<linearGradient id="paint32_linear_2499_6507" x1="212.735" y1="652" x2="212.735" y2="703.47" gradientUnits="userSpaceOnUse">
<stop stop-color="white" stop-opacity="0.6"/>
<stop offset="1" stop-color="white" stop-opacity="0.5"/>
</linearGradient>
<linearGradient id="paint33_linear_2499_6507" x1="211.5" y1="703" x2="211.5" y2="653" gradientUnits="userSpaceOnUse">
<stop offset="0.380208" stop-color="white"/>
<stop offset="1" stop-color="#F3F4F6"/>
</linearGradient>
<radialGradient id="paint34_radial_2499_6507" cx="0" cy="0" r="1" gradientUnits="userSpaceOnUse" gradientTransform="translate(457.5 426.5) rotate(90) scale(410.5 440.337)">
<stop offset="0.05" stop-color="#F4F5FB"/>
<stop offset="0.34" stop-color="white" stop-opacity="0"/>
<stop offset="0.985" stop-color="white"/>
</radialGradient>
<clipPath id="clip0_2499_6507">
<rect x="781.705" y="414.235" width="39" height="39" rx="19.5" fill="white"/>
</clipPath>
<clipPath id="clip1_2499_6507">
<rect x="553.47" y="188.47" width="34.53" height="34.5298" rx="17.2649" fill="white"/>
</clipPath>
<clipPath id="clip2_2499_6507">
<rect x="440.235" y="761.235" width="33" height="33" rx="16.5" fill="white"/>
</clipPath>
</defs>
</svg>
