<svg width="40" height="40" viewBox="0 0 40 40" fill="none" xmlns="http://www.w3.org/2000/svg">
<rect x="0.5" y="0.5" width="39" height="39" rx="19.5" stroke="#E5E7EB"/>
<path fill-rule="evenodd" clip-rule="evenodd" d="M15.2803 15.7197C15.5732 16.0126 15.5732 16.4874 15.2803 16.7803L12.8107 19.25H29C29.4142 19.25 29.75 19.5858 29.75 20C29.75 20.4142 29.4142 20.75 29 20.75H12.8107L15.2803 23.2197C15.5732 23.5126 15.5732 23.9874 15.2803 24.2803C14.9874 24.5732 14.5126 24.5732 14.2197 24.2803L10.4697 20.5303C10.1768 20.2374 10.1768 19.7626 10.4697 19.4697L14.2197 15.7197C14.5126 15.4268 14.9874 15.4268 15.2803 15.7197Z" fill="#E5E7EB"/>
</svg>
