<svg width="48" height="48" viewBox="0 0 48 48" fill="none" xmlns="http://www.w3.org/2000/svg">
<rect x="47.4" y="47.4" width="46.8" height="46.8" rx="23.4" transform="rotate(-180 47.4 47.4)" stroke="#D1D5DB" stroke-width="1.2"/>
<path fill-rule="evenodd" clip-rule="evenodd" d="M29.6637 29.1364C29.3122 28.7849 29.3122 28.2151 29.6637 27.8636L32.6273 24.9L13.2001 24.9C12.703 24.9 12.3001 24.4971 12.3001 24C12.3001 23.503 12.703 23.1 13.2001 23.1L32.6273 23.1L29.6637 20.1364C29.3122 19.7849 29.3122 19.2151 29.6637 18.8636C30.0152 18.5122 30.585 18.5122 30.9365 18.8636L35.4365 23.3636C35.7879 23.7151 35.7879 24.2849 35.4365 24.6364L30.9365 29.1364C30.585 29.4879 30.0151 29.4879 29.6637 29.1364Z" fill="#D1D5DB"/>
</svg>
