<svg viewBox="0 0 56 34" fill="none">
  <title>Massive Online Marketing Logo</title>
  <path d="M33.8477 10.0594C33.8477 11.1203 33.4262 12.1377 32.6761 12.8879L12.964 32.5999C12.2139 33.3501 11.1965 33.7715 10.1356 33.7715L4.76486 33.7715C2.55572 33.7715 0.764854 31.9806 0.764855 29.7715L0.764855 24.4007C0.764855 23.3399 1.18628 22.3225 1.93643 21.5723L21.6485 1.86026C22.3986 1.11011 23.416 0.688682 24.4769 0.688682L29.8477 0.688682C32.0568 0.688683 33.8477 2.47954 33.8477 4.68868L33.8477 10.0594Z" fill="#1F2937"/>
  <path d="M55.5879 10.0594C55.5879 11.1203 55.1665 12.1377 54.4163 12.8879L34.7043 32.5999C33.9541 33.3501 32.9367 33.7715 31.8758 33.7715L26.5051 33.7715C24.296 33.7715 22.5051 31.9806 22.5051 29.7715L22.5051 24.4007C22.5051 23.3399 22.9265 22.3225 23.6767 21.5723L43.3887 1.86026C44.1389 1.11011 45.1563 0.688682 46.2171 0.688682L51.5879 0.688682C53.797 0.688683 55.5879 2.47954 55.5879 4.68868L55.5879 10.0594Z" fill="#1F2937"/>
  <path d="M55.459 29.5059C55.459 31.715 53.6681 33.5059 51.459 33.5059L49.8014 33.5059C46.2378 33.5059 44.4531 29.1973 46.9729 26.6774L48.6306 25.0198C51.1504 22.5 55.459 24.2846 55.459 27.8482L55.459 29.5059Z" fill="#7857FF"/>
</svg>